<svg width="517" height="682" viewBox="0 0 517 682" fill="none" xmlns="http://www.w3.org/2000/svg">
<g clip-path="url(#clip0_2025_307)">
<ellipse cx="286.002" cy="213.812" rx="189.387" ry="189.628" fill="#376967"/>
<path d="M465.399 538.542C478.244 399.812 563.88 239.755 481.867 108.72C380.202 -53.7554 138.335 -29.1313 69.0578 149.394C57.0907 180.284 57.4201 202.489 52.4795 233.929C45.8921 275.482 15.6999 320.553 2.41539 360.787C-3.40347 378.486 1.42728 394.755 20.2013 400.691C33.7055 404.979 48.1977 400.032 62.0312 401.681C63.2389 401.791 64.5564 401.681 65.3249 402.78C66.862 405.089 65.8739 451.369 65.8739 458.404C65.6543 489.074 62.4704 514.688 86.6241 538.652C117.585 569.323 160.842 555.581 199.268 558.879C216.066 560.308 229.68 576.028 231.656 592.408V682L475.39 680.901C469.9 633.631 461.117 586.362 465.509 538.542H465.399ZM132.955 321.872C53.0285 205.128 127.027 39.3546 268.656 28.2517C404.685 17.5886 504.594 145.326 461.776 275.482C414.237 419.819 219.031 447.411 132.955 321.762V321.872Z" fill="#B3D7B8"/>
<path d="M276.56 252.177C278.646 250.858 279.964 252.397 280.623 256.794L291.711 256.574L293.029 258.883C309.827 260.642 328.82 271.415 339.141 284.716C349.461 298.018 344.85 295.929 346.826 296.809C349.68 298.128 360.989 296.699 365.82 297.578C381.739 300.656 397 316.706 400.184 332.426C401.94 341.22 399.305 338.692 395.243 342.319L389.973 344.518H180.824L175.554 342.319C171.052 337.922 170.174 338.911 171.711 331.216C175.883 309.011 202.892 291.972 224.849 298.128C234.072 277.681 254.383 263.28 276.451 259.653C276.78 257.124 276.451 254.596 276.451 252.067L276.56 252.177Z" fill="#BFA689"/>
<path d="M305.106 200.511L304.557 197.213C317.622 178.525 334.639 162.475 352.645 148.184C332.443 155.77 313.12 170.28 300.275 188.528L296.213 190.617C286.551 149.504 324.538 115.426 362.745 111.578C400.952 107.731 402.819 110.809 405.454 114.656C408.089 118.504 405.014 130.266 404.685 132.684C398.427 182.153 354.182 216.56 304.886 200.401L305.106 200.511Z" fill="#B5D8B8"/>
<path d="M395.133 342.319C335.408 396.514 234.401 400.362 175.554 342.319H395.133Z" fill="#AC8369"/>
<path d="M276.56 215.901L272.718 214.911C260.531 201.61 245.929 190.617 229.461 183.472C244.282 193.475 258.335 205.018 267.777 220.408V224.695C220.458 243.603 176.652 198.862 179.287 152.032C181.153 149.284 209.589 149.613 214.31 150.053C249.003 153.241 279.415 178.965 276.451 215.901H276.56Z" fill="#B3D8B7"/>
<path d="M296.323 190.617C312.132 165.553 338.811 149.174 366.588 140.05C349.022 153.681 332.224 166.872 317.732 184.021C303.239 201.17 308.399 194.904 305.106 200.511C294.676 218.319 291.711 238.326 293.029 258.773C290.394 258.443 278.207 259.323 277.658 258.773C277.109 258.223 278.756 253.057 276.56 252.177C276.56 240.965 273.157 234.039 267.777 224.695C254.822 202.05 235.938 190.617 215.078 176.326C226.277 178.855 237.146 184.131 246.807 190.177C257.567 196.883 268.326 206.337 276.56 215.901C284.795 225.465 279.744 224.585 282.05 222.496C284.465 211.614 290.394 200.071 296.323 190.617Z" fill="#8DBA8D"/>
<path d="M295.115 75.961C311.474 106.851 280.952 152.362 245.38 141.479C236.377 137.411 228.143 128.837 224.3 119.603C205.526 73.8724 263.715 35.727 295.115 75.8511V75.961Z" fill="#F5D97B"/>
<path d="M245.38 141.479H260.421C289.406 135.762 304.447 103.223 295.005 75.9611C321.904 110.589 286.441 160.167 245.27 141.479H245.38Z" fill="#DCB657"/>
<path d="M266.57 69.4752C265.032 80.2483 269.095 76.2908 274.584 79.4788C280.074 82.6667 275.133 85.0851 274.804 88.9327C271.62 86.5142 260.97 82.5568 258.665 87.0639C254.822 94.8688 267.009 97.1773 271.4 100.145C279.525 105.752 281.391 117.514 272.059 122.681C262.727 127.848 264.813 122.791 265.581 134.223H260.092C262.617 122.791 253.505 126.528 247.795 122.131C242.086 117.734 248.674 114.106 249.552 113.996C251.638 113.777 262.837 122.131 267.448 115.206C272.059 108.28 254.602 103.883 250.43 99.1561C246.258 94.4291 246.698 85.8546 251.419 81.5674C253.395 79.6986 259.763 78.1596 260.092 77.7199C260.86 76.5107 259.872 71.4539 260.202 69.5851H266.679L266.57 69.4752Z" fill="#BDA04D"/>
</g>
<defs>
<clipPath id="clip0_2025_307">
<rect width="517" height="682" fill="white"/>
</clipPath>
</defs>
</svg>
