<svg width="879" height="1044" viewBox="0 0 879 1044" fill="none" xmlns="http://www.w3.org/2000/svg">
<path d="M68.963 149.38C131.521 -11.829 334.81 -47.5433 448.517 66.6796C448.767 66.9288 449.017 67.178 449.267 67.4286C449.503 67.6637 449.739 67.8992 449.974 68.1356C450.21 68.3708 450.446 68.6063 450.681 68.8427C450.917 69.0778 451.153 69.3133 451.388 69.5497C451.636 69.7975 451.885 70.0456 452.133 70.2948C452.359 70.5198 452.584 70.7455 452.809 70.9716C453.045 71.2067 453.281 71.4422 453.516 71.6786C453.752 71.9137 453.988 72.1492 454.223 72.3856C454.459 72.6208 454.695 72.8563 454.93 73.0927C455.171 73.3327 455.411 73.573 455.651 73.8144C455.884 74.0459 456.116 74.2778 456.348 74.5106C456.579 74.7407 456.809 74.9717 457.039 75.203C457.263 75.4256 457.486 75.6482 457.709 75.872C457.959 76.1211 458.21 76.3704 458.459 76.621C458.695 76.8561 458.931 77.0916 459.166 77.328C459.402 77.5631 459.638 77.7987 459.873 78.0351C460.109 78.2702 460.345 78.5057 460.58 78.7421C460.829 78.9899 461.077 79.238 461.325 79.4872C461.551 79.7122 461.776 79.9378 462.001 80.164C462.237 80.3991 462.473 80.6346 462.708 80.871C462.944 81.1061 463.18 81.3416 463.415 81.578C463.651 81.8132 463.887 82.0486 464.122 82.2851C464.363 82.5251 464.604 82.7654 464.844 83.0067C465.076 83.2383 465.309 83.4702 465.54 83.703C465.771 83.9331 466.001 84.1641 466.232 84.3954C466.455 84.618 466.679 84.8406 466.901 85.0644C467.152 85.3135 467.402 85.5628 467.651 85.8134C467.887 86.0485 468.123 86.284 468.359 86.5204C468.594 86.7555 468.83 86.991 469.066 87.2274C469.302 87.4626 469.537 87.6981 469.773 87.9345C470.021 88.1822 470.27 88.4304 470.518 88.6796C470.743 88.9045 470.969 89.1302 471.193 89.3563C471.429 89.5915 471.665 89.827 471.901 90.0634C472.136 90.2985 472.372 90.534 472.608 90.7704C472.844 91.0055 473.079 91.241 473.315 91.4774C473.555 91.7174 473.796 91.9578 474.036 92.1991C474.269 92.4307 474.501 92.6626 474.733 92.8954C474.963 93.1255 475.194 93.3565 475.424 93.5878C475.647 93.8104 475.871 94.033 476.094 94.2567C476.344 94.5059 476.595 94.7551 476.844 95.0058C477.08 95.2409 477.316 95.4764 477.551 95.7128C477.787 95.9479 478.023 96.1834 478.258 96.4198C478.494 96.6549 478.73 96.8905 478.965 97.1269C479.214 97.3746 479.462 97.6228 479.71 97.872C479.936 98.0969 480.161 98.3226 480.386 98.5487C480.622 98.7839 480.858 99.0193 481.093 99.2558C481.329 99.4909 481.565 99.7264 481.8 99.9628C482.036 100.198 482.272 100.433 482.507 100.67C482.748 100.91 482.989 101.15 483.229 101.392C483.461 101.623 483.693 101.855 483.925 102.088C484.156 102.318 484.386 102.549 484.616 102.78C484.84 103.003 485.063 103.225 485.286 103.449C485.536 103.698 485.787 103.948 486.036 104.198C486.272 104.433 486.508 104.669 486.743 104.905C486.979 105.14 487.215 105.376 487.45 105.612C487.686 105.847 487.922 106.083 488.157 106.319C488.406 106.567 488.655 106.815 488.902 107.064C489.128 107.289 489.353 107.515 489.578 107.741C489.814 107.976 490.05 108.212 490.285 108.448C490.521 108.683 490.757 108.919 490.992 109.155C491.228 109.39 491.464 109.626 491.699 109.862C491.94 110.102 492.181 110.343 492.421 110.584C492.653 110.815 492.886 111.047 493.117 111.28C493.348 111.51 493.579 111.741 493.809 111.973C494.032 112.195 494.256 112.418 494.479 112.642C494.729 112.891 494.979 113.14 495.229 113.391C495.465 113.626 495.7 113.861 495.936 114.098C496.172 114.333 496.407 114.568 496.643 114.805C496.879 115.04 497.115 115.275 497.35 115.512C497.598 115.759 497.847 116.008 498.095 116.257C498.321 116.482 498.546 116.707 498.771 116.933C499.007 117.169 499.242 117.404 499.478 117.641C499.714 117.876 499.949 118.111 500.185 118.348C500.421 118.583 500.657 118.818 500.892 119.055C501.133 119.295 501.373 119.535 501.613 119.776C501.846 120.008 502.078 120.24 502.31 120.473C502.541 120.703 502.771 120.934 503.001 121.165C503.225 121.388 503.448 121.61 503.671 121.834C503.921 122.083 504.172 122.332 504.421 122.583C504.657 122.818 504.893 123.054 505.128 123.29C505.364 123.525 505.6 123.761 505.835 123.997C506.071 124.232 506.307 124.468 506.542 124.704C506.791 124.952 507.039 125.2 507.287 125.449C507.513 125.674 507.738 125.9 507.963 126.126C508.199 126.361 508.435 126.596 508.67 126.833C508.906 127.068 509.142 127.304 509.377 127.54C509.618 127.78 509.859 128.02 510.099 128.262C510.331 128.493 510.563 128.725 510.795 128.958C511.031 129.193 511.267 129.429 511.502 129.665C511.733 129.895 511.963 130.126 512.193 130.357C512.417 130.58 512.641 130.803 512.863 131.026C513.114 131.275 513.364 131.525 513.613 131.775C513.849 132.01 514.085 132.246 514.32 132.482C514.556 132.717 514.792 132.953 515.027 133.189C515.276 133.437 515.525 133.685 515.773 133.934C515.994 134.156 516.216 134.377 516.437 134.6C516.677 134.839 516.916 135.078 517.155 135.318C517.391 135.553 517.627 135.789 517.862 136.025C518.098 136.26 518.334 136.496 518.569 136.732C518.81 136.972 519.051 137.213 519.291 137.454C519.524 137.686 519.756 137.917 519.987 138.15C520.223 138.385 520.459 138.621 520.694 138.857C520.925 139.087 521.156 139.318 521.386 139.55C521.609 139.772 521.833 139.995 522.056 140.219C522.306 140.468 522.556 140.717 522.806 140.968C523.042 141.203 523.278 141.438 523.513 141.675C523.749 141.91 523.985 142.145 524.22 142.382C524.469 142.63 524.717 142.878 524.965 143.127C525.187 143.348 525.408 143.57 525.629 143.792C525.869 144.031 526.109 144.27 526.348 144.511C526.584 144.746 526.82 144.981 527.055 145.218C527.291 145.453 527.527 145.688 527.762 145.925C528.003 146.165 528.243 146.405 528.484 146.646C528.716 146.878 528.948 147.11 529.18 147.343C529.416 147.578 529.652 147.813 529.887 148.05C530.118 148.28 530.348 148.511 530.578 148.742C530.802 148.965 531.025 149.187 531.248 149.411C531.498 149.66 531.749 149.909 531.998 150.16C532.234 150.395 532.47 150.631 532.705 150.867C532.941 151.102 533.177 151.338 533.412 151.574C533.661 151.822 533.91 152.07 534.157 152.319C534.379 152.54 534.6 152.762 534.821 152.984C535.061 153.223 535.301 153.463 535.54 153.703C535.776 153.938 536.012 154.174 536.247 154.41C536.483 154.645 536.719 154.881 536.954 155.117C537.195 155.357 537.436 155.597 537.676 155.839C537.908 156.07 538.141 156.302 538.372 156.535C538.608 156.77 538.844 157.006 539.079 157.242C539.31 157.472 539.54 157.703 539.771 157.934C539.994 158.157 540.218 158.38 540.441 158.603C540.691 158.853 540.941 159.102 541.191 159.352C541.427 159.588 541.662 159.823 541.898 160.059C542.134 160.295 542.369 160.53 542.605 160.767C542.853 161.014 543.102 161.262 543.35 161.512C543.575 161.737 543.801 161.962 544.026 162.188C544.261 162.424 544.497 162.659 544.733 162.895C544.969 163.131 545.204 163.366 545.44 163.602C545.676 163.838 545.911 164.073 546.147 164.309C546.387 164.549 546.628 164.79 546.868 165.031C547.101 165.263 547.333 165.495 547.565 165.727C547.801 165.963 548.036 166.198 548.272 166.434C548.503 166.665 548.733 166.896 548.963 167.127C549.186 167.349 549.41 167.572 549.633 167.796C549.883 168.045 550.134 168.294 550.383 168.545C550.619 168.78 550.855 169.015 551.09 169.252C551.326 169.487 551.562 169.722 551.797 169.959C552.046 170.207 552.294 170.455 552.542 170.704C552.768 170.929 552.993 171.155 553.218 171.381C553.454 171.616 553.69 171.851 553.925 172.088C554.161 172.323 554.397 172.558 554.632 172.795C554.868 173.03 555.104 173.265 555.339 173.502C555.58 173.742 555.821 173.982 556.061 174.224C556.293 174.455 556.525 174.687 556.757 174.92C556.993 175.155 557.229 175.39 557.464 175.627C557.682 175.844 557.901 176.062 558.118 176.281C558.368 176.53 558.619 176.78 558.868 177.03C559.104 177.265 559.34 177.501 559.575 177.737C559.811 177.972 560.047 178.208 560.282 178.444C560.518 178.679 560.754 178.915 560.989 179.151C561.238 179.399 561.487 179.647 561.734 179.896C561.96 180.121 562.185 180.347 562.41 180.573C562.646 180.808 562.882 181.044 563.117 181.28C563.353 181.515 563.589 181.751 563.824 181.987C564.06 182.222 564.296 182.458 564.531 182.694C564.772 182.934 565.013 183.175 565.253 183.416C565.485 183.648 565.718 183.879 565.949 184.112C566.18 184.342 566.411 184.573 566.641 184.805C566.864 185.027 567.088 185.25 567.311 185.474C567.561 185.723 567.811 185.972 568.061 186.223C568.297 186.458 568.532 186.693 568.768 186.93C569.004 187.165 569.24 187.4 569.475 187.637C569.711 187.872 569.947 188.107 570.182 188.344C570.43 188.591 570.679 188.84 570.927 189.089C571.153 189.314 571.378 189.539 571.603 189.766C571.839 190.001 572.074 190.236 572.31 190.473C572.546 190.708 572.782 190.943 573.017 191.18C573.253 191.415 573.489 191.65 573.724 191.887C573.965 192.127 574.205 192.367 574.445 192.608C574.678 192.84 574.91 193.072 575.142 193.305C575.373 193.535 575.603 193.766 575.833 193.997C576.057 194.22 576.28 194.442 576.503 194.666C576.753 194.915 577.004 195.164 577.253 195.415C577.489 195.65 577.725 195.886 577.96 196.122C578.196 196.357 578.432 196.593 578.667 196.829C578.903 197.064 579.139 197.3 579.374 197.536C579.623 197.784 579.871 198.032 580.119 198.281C580.345 198.506 580.57 198.732 580.795 198.958C581.031 199.193 581.267 199.429 581.502 199.665C581.738 199.9 581.974 200.136 582.209 200.372C582.445 200.607 582.681 200.843 582.916 201.079C583.157 201.319 583.398 201.559 583.638 201.801C583.87 202.032 584.102 202.264 584.334 202.497C584.565 202.727 584.795 202.958 585.026 203.189C585.249 203.412 585.473 203.635 585.695 203.858C585.946 204.107 586.196 204.357 586.445 204.607C586.681 204.842 586.917 205.078 587.152 205.314C587.388 205.549 587.624 205.785 587.859 206.021C588.095 206.257 588.331 206.492 588.567 206.728C588.815 206.976 589.064 207.224 589.312 207.474C589.537 207.698 589.762 207.924 589.987 208.15C590.223 208.385 590.459 208.621 590.694 208.857C590.93 209.092 591.166 209.328 591.401 209.564C591.637 209.799 591.873 210.035 592.109 210.271C592.349 210.511 592.59 210.752 592.83 210.993C593.063 211.225 593.295 211.457 593.526 211.689C593.757 211.919 593.988 212.15 594.218 212.382C594.441 212.604 594.665 212.827 594.888 213.051C595.138 213.3 595.388 213.549 595.638 213.8C595.874 214.035 596.11 214.27 596.345 214.507C596.581 214.742 596.817 214.977 597.052 215.214C597.288 215.449 597.524 215.684 597.759 215.921C598.008 216.169 598.256 216.417 598.504 216.666C598.73 216.891 598.955 217.117 599.18 217.343C599.416 217.578 599.652 217.813 599.887 218.05C600.123 218.285 600.359 218.52 600.594 218.757C600.83 218.992 601.066 219.227 601.301 219.464C601.542 219.704 601.783 219.944 602.023 220.185C602.255 220.417 602.487 220.649 602.719 220.882C602.95 221.112 603.18 221.343 603.41 221.574C603.634 221.797 603.857 222.019 604.08 222.243C604.33 222.492 604.581 222.741 604.83 222.992C605.066 223.227 605.302 223.463 605.537 223.699C605.773 223.934 606.009 224.17 606.244 224.406C606.48 224.641 606.716 224.877 606.951 225.113C607.2 225.361 607.449 225.609 607.696 225.858C607.922 226.083 608.147 226.309 608.372 226.535C608.608 226.77 608.844 227.006 609.079 227.242C609.315 227.477 609.551 227.713 609.786 227.949C610.022 228.184 610.258 228.42 610.493 228.656C610.734 228.896 610.975 229.137 611.215 229.378C611.447 229.609 611.68 229.841 611.911 230.074C612.142 230.304 612.372 230.535 612.603 230.767C612.826 230.989 613.05 231.212 613.273 231.435C613.523 231.685 613.773 231.934 614.023 232.184C614.259 232.42 614.494 232.655 614.73 232.892C614.966 233.127 615.201 233.362 615.437 233.599C615.673 233.834 615.908 234.069 616.144 234.306C616.392 234.553 616.641 234.801 616.889 235.051C617.114 235.276 617.34 235.501 617.565 235.727C617.801 235.963 618.036 236.198 618.272 236.434C618.508 236.67 618.743 236.905 618.979 237.142C619.215 237.377 619.45 237.612 619.686 237.849C619.927 238.089 620.167 238.329 620.407 238.57C620.64 238.802 620.872 239.034 621.104 239.267C621.335 239.497 621.565 239.728 621.795 239.959C622.018 240.182 622.242 240.404 622.465 240.628C622.715 240.877 622.966 241.126 623.215 241.377C623.451 241.612 623.687 241.847 623.922 242.084C624.158 242.319 624.394 242.555 624.629 242.791C624.865 243.026 625.101 243.262 625.336 243.498C625.585 243.746 625.833 243.994 626.081 244.243C626.307 244.468 626.532 244.694 626.757 244.92C626.993 245.155 627.229 245.39 627.464 245.627C627.7 245.862 627.936 246.097 628.171 246.334C628.407 246.569 628.643 246.805 628.878 247.041C629.119 247.281 629.36 247.521 629.6 247.763C629.832 247.994 630.064 248.226 630.296 248.459C630.527 248.689 630.757 248.92 630.987 249.151C631.211 249.374 631.435 249.596 631.657 249.82C631.908 250.069 632.158 250.319 632.407 250.569C632.643 250.804 632.879 251.04 633.114 251.276C633.35 251.511 633.586 251.747 633.821 251.983C634.057 252.218 634.293 252.454 634.528 252.69C634.777 252.938 635.026 253.186 635.274 253.435C635.499 253.66 635.724 253.886 635.949 254.112C636.185 254.347 636.421 254.583 636.656 254.819C636.892 255.054 637.128 255.29 637.363 255.526C637.599 255.761 637.835 255.997 638.07 256.233C638.311 256.473 638.552 256.714 638.792 256.955C639.024 257.187 639.257 257.418 639.488 257.651C639.719 257.881 639.95 258.112 640.18 258.344C640.403 258.566 640.627 258.789 640.85 259.013C641.1 259.262 641.35 259.511 641.6 259.762C641.836 259.997 642.072 260.232 642.307 260.469C642.543 260.704 642.779 260.939 643.014 261.176C643.262 261.423 643.511 261.672 643.759 261.921C643.981 262.142 644.202 262.364 644.423 262.586C644.663 262.825 644.903 263.064 645.142 263.305C645.378 263.54 645.614 263.775 645.849 264.012C646.085 264.247 646.321 264.482 646.556 264.719C646.797 264.959 647.037 265.199 647.277 265.44C647.51 265.672 647.742 265.904 647.974 266.137C648.21 266.372 648.446 266.607 648.681 266.844C648.912 267.074 649.142 267.305 649.372 267.536C649.596 267.759 649.819 267.981 650.042 268.205C650.292 268.454 650.543 268.703 650.792 268.954C651.028 269.189 651.264 269.425 651.499 269.661C651.735 269.896 651.971 270.132 652.206 270.368C652.455 270.616 652.703 270.864 652.951 271.113C653.173 271.334 653.394 271.556 653.615 271.778C653.855 272.017 654.095 272.257 654.334 272.497C654.57 272.732 654.806 272.968 655.041 273.204C655.277 273.439 655.513 273.675 655.748 273.911C655.989 274.151 656.23 274.391 656.47 274.633C656.702 274.864 656.935 275.096 657.166 275.329C657.402 275.564 657.638 275.8 657.873 276.036C658.104 276.266 658.334 276.497 658.565 276.728C658.788 276.951 659.012 277.174 659.234 277.397C659.485 277.647 659.735 277.896 659.984 278.146C660.22 278.382 660.456 278.617 660.692 278.853C660.928 279.089 661.163 279.324 661.399 279.56C661.647 279.808 661.896 280.056 662.144 280.306C662.365 280.527 662.587 280.748 662.808 280.971C663.048 281.21 663.287 281.449 663.526 281.689C663.762 281.924 663.998 282.16 664.234 282.396C664.469 282.632 664.705 282.867 664.941 283.103C665.181 283.343 665.422 283.584 665.662 283.825C665.895 284.057 666.127 284.289 666.359 284.521C666.594 284.757 666.83 284.992 667.066 285.228C667.296 285.459 667.527 285.689 667.757 285.921C667.98 286.143 668.204 286.366 668.427 286.59C668.677 286.839 668.928 287.088 669.177 287.339C669.413 287.574 669.649 287.809 669.884 288.046C670.12 288.281 670.356 288.516 670.591 288.753C670.84 289.001 671.088 289.249 671.336 289.498C671.558 289.719 671.779 289.941 672 290.163C672.24 290.402 672.48 290.641 672.719 290.882C672.955 291.117 673.191 291.352 673.426 291.589C673.662 291.824 673.898 292.059 674.133 292.296C674.374 292.536 674.615 292.776 674.855 293.017C675.087 293.249 675.319 293.481 675.551 293.714C675.787 293.949 676.023 294.184 676.258 294.421C676.489 294.651 676.719 294.882 676.949 295.113C677.173 295.336 677.397 295.558 677.619 295.782C677.869 296.031 678.12 296.281 678.369 296.531C678.605 296.766 678.841 297.002 679.076 297.238C679.312 297.473 679.548 297.709 679.783 297.945C680.032 298.193 680.281 298.441 680.528 298.69C680.754 298.915 680.979 299.141 681.204 299.367C681.44 299.602 681.676 299.838 681.911 300.074C682.147 300.309 682.383 300.545 682.618 300.781C682.854 301.016 683.09 301.252 683.325 301.488C683.566 301.728 683.807 301.969 684.047 302.21C684.279 302.441 684.512 302.673 684.743 302.906C684.979 303.141 685.215 303.377 685.45 303.613C685.681 303.843 685.912 304.074 686.142 304.306C686.365 304.528 686.589 304.751 686.812 304.975C687.062 305.224 687.312 305.473 687.562 305.724C687.798 305.959 688.033 306.194 688.269 306.431C688.505 306.666 688.74 306.901 688.976 307.138C689.224 307.385 689.473 307.634 689.721 307.883C689.946 308.108 690.172 308.333 690.397 308.559C690.633 308.795 690.868 309.03 691.104 309.267C691.34 309.502 691.575 309.737 691.811 309.974C692.047 310.209 692.282 310.444 692.518 310.681C692.759 310.921 692.999 311.161 693.239 311.402C693.472 311.634 693.704 311.866 693.936 312.099C694.167 312.329 694.397 312.56 694.627 312.791C694.851 313.014 695.074 313.236 695.297 313.46C695.547 313.709 695.798 313.958 696.047 314.209C696.283 314.444 696.519 314.68 696.754 314.916C696.99 315.151 697.226 315.387 697.461 315.623C697.697 315.858 697.933 316.094 698.168 316.33C698.417 316.578 698.665 316.826 698.913 317.075C699.139 317.3 699.364 317.526 699.589 317.752C699.825 317.987 700.061 318.222 700.296 318.459C700.532 318.694 700.768 318.93 701.003 319.166C701.239 319.401 701.475 319.637 701.71 319.873C701.951 320.113 702.192 320.353 702.432 320.595C702.664 320.826 702.896 321.058 703.128 321.291C703.359 321.521 703.589 321.752 703.819 321.983C704.043 322.206 704.267 322.428 704.489 322.652C704.74 322.901 704.99 323.151 705.239 323.401C705.475 323.636 705.711 323.872 705.946 324.108C706.182 324.343 706.418 324.579 706.653 324.815C706.889 325.05 707.125 325.286 707.36 325.522C707.609 325.77 707.858 326.018 708.106 326.267C708.331 326.492 708.556 326.718 708.781 326.944C709.017 327.179 709.253 327.415 709.488 327.651C709.724 327.886 709.96 328.122 710.195 328.358C710.431 328.593 710.667 328.829 710.902 329.065C711.143 329.305 711.384 329.546 711.624 329.787C711.857 330.019 712.089 330.25 712.32 330.483C712.551 330.713 712.782 330.944 713.012 331.176C713.235 331.398 713.459 331.621 713.682 331.845C713.932 332.094 714.182 332.343 714.432 332.594C714.668 332.829 714.904 333.064 715.139 333.301C715.375 333.536 715.611 333.771 715.846 334.008C716.082 334.243 716.318 334.478 716.553 334.715C716.802 334.963 717.05 335.211 717.298 335.46C717.524 335.685 717.749 335.911 717.974 336.137C718.21 336.372 718.446 336.607 718.681 336.844C718.917 337.079 719.153 337.314 719.388 337.551C719.624 337.786 719.86 338.021 720.095 338.258C720.336 338.498 720.576 338.738 720.817 338.979C721.049 339.211 721.281 339.443 721.513 339.676C721.744 339.906 721.974 340.137 722.204 340.368C722.428 340.591 722.651 340.813 722.874 341.037C723.124 341.286 723.375 341.535 723.624 341.786C723.86 342.021 724.096 342.257 724.331 342.493C724.567 342.728 724.803 342.964 725.038 343.2C725.274 343.435 725.51 343.671 725.745 343.907C725.994 344.155 726.243 344.403 726.49 344.652C726.716 344.877 726.941 345.103 727.166 345.329C727.402 345.564 727.638 345.8 727.873 346.036C728.109 346.271 728.345 346.507 728.58 346.743C728.816 346.978 729.052 347.214 729.287 347.45C729.528 347.69 729.769 347.93 730.009 348.172C730.241 348.403 730.474 348.635 730.705 348.868C730.936 349.098 731.166 349.329 731.397 349.56C731.62 349.783 731.844 350.006 732.067 350.229C732.317 350.479 732.567 350.728 732.817 350.978C733.053 351.214 733.288 351.449 733.524 351.685C733.76 351.921 733.995 352.156 734.231 352.392C734.467 352.628 734.702 352.863 734.938 353.1C735.186 353.347 735.435 353.595 735.683 353.845C735.908 354.07 736.134 354.295 736.359 354.521C736.594 354.757 736.83 354.992 737.066 355.228C737.302 355.464 737.537 355.699 737.773 355.935C738.009 356.171 738.244 356.406 738.48 356.642C738.72 356.882 738.961 357.123 739.201 357.364C739.434 357.596 739.666 357.828 739.898 358.06C740.128 358.291 740.359 358.522 740.589 358.753C740.812 358.975 741.036 359.198 741.259 359.422C741.509 359.671 741.76 359.92 742.009 360.171C742.245 360.406 742.481 360.641 742.716 360.878C742.952 361.113 743.188 361.348 743.423 361.585C743.659 361.82 743.895 362.055 744.13 362.292C744.379 362.54 744.627 362.788 744.875 363.037C745.101 363.262 745.326 363.488 745.551 363.714C745.787 363.949 746.023 364.184 746.258 364.421C746.494 364.656 746.73 364.891 746.965 365.128C747.201 365.363 747.437 365.598 747.672 365.835C747.913 366.075 748.154 366.315 748.394 366.557C748.626 366.788 748.858 367.02 749.09 367.253C749.321 367.483 749.551 367.714 749.781 367.945C750.005 368.168 750.229 368.39 750.451 368.614C750.702 368.863 750.952 369.113 751.201 369.363C751.437 369.598 751.673 369.834 751.908 370.07C752.144 370.305 752.38 370.541 752.615 370.777C752.864 371.025 753.113 371.273 753.36 371.522C753.582 371.743 753.803 371.965 754.025 372.187C754.264 372.426 754.504 372.666 754.743 372.906C754.979 373.141 755.215 373.377 755.45 373.613C755.686 373.848 755.922 374.084 756.157 374.32C756.393 374.555 756.629 374.791 756.864 375.027C757.105 375.267 757.346 375.508 757.586 375.749C757.818 375.981 758.051 376.212 758.282 376.445C758.513 376.675 758.744 376.906 758.974 377.138C759.197 377.36 759.421 377.583 759.644 377.807C759.894 378.056 760.144 378.305 760.394 378.556C760.63 378.791 760.865 379.026 761.101 379.263C761.337 379.498 761.573 379.733 761.808 379.97C762.056 380.217 762.305 380.466 762.553 380.715C762.775 380.936 762.996 381.158 763.217 381.38C763.457 381.619 763.697 381.858 763.936 382.099C764.172 382.334 764.407 382.569 764.643 382.806C764.879 383.041 765.115 383.276 765.35 383.513C765.586 383.748 765.822 383.983 766.057 384.22C766.298 384.46 766.538 384.7 766.778 384.941C767.011 385.173 767.243 385.405 767.475 385.638C767.706 385.868 767.936 386.099 768.166 386.33C768.39 386.553 768.613 386.775 768.836 386.999C769.086 387.248 769.337 387.497 769.586 387.748C769.822 387.983 770.058 388.219 770.293 388.455C770.528 388.689 770.763 388.924 770.997 389.159C771.247 389.408 771.496 389.657 771.745 389.907C771.967 390.128 772.188 390.35 772.409 390.572C772.649 390.811 772.889 391.051 773.128 391.291C773.364 391.526 773.6 391.762 773.835 391.998C774.071 392.233 774.307 392.469 774.542 392.705C774.778 392.94 775.014 393.176 775.249 393.412C775.49 393.652 775.731 393.892 775.971 394.134C776.203 394.365 776.435 394.597 776.667 394.83C776.898 395.06 777.128 395.291 777.359 395.522C777.582 395.745 777.806 395.968 778.028 396.191C778.279 396.44 778.529 396.69 778.778 396.94C779.014 397.175 779.25 397.411 779.485 397.647C779.721 397.882 779.957 398.118 780.193 398.354C780.441 398.602 780.69 398.85 780.938 399.1C781.159 399.321 781.381 399.542 781.602 399.765C781.842 400.004 782.081 400.243 782.32 400.483C782.556 400.718 782.792 400.954 783.027 401.19C783.263 401.425 783.499 401.661 783.734 401.897C783.964 402.126 784.194 402.356 784.423 402.586C784.67 402.832 784.917 403.079 785.163 403.326C785.396 403.558 785.628 403.79 785.859 404.022C786.083 404.245 786.307 404.468 786.529 404.692C786.76 404.922 786.991 405.153 787.221 405.384C787.471 405.633 787.721 405.882 787.971 406.133C788.207 406.368 788.443 406.603 788.678 406.84C788.914 407.075 789.15 407.31 789.385 407.547C789.634 407.795 789.882 408.043 790.13 408.292C790.352 408.513 790.573 408.735 790.794 408.957C791.034 409.196 791.274 409.435 791.513 409.676C791.749 409.911 791.985 410.146 792.22 410.383C792.445 410.607 792.669 410.831 792.894 411.057C793.146 411.308 793.397 411.559 793.649 411.811C793.881 412.043 794.113 412.275 794.345 412.508C794.581 412.743 794.817 412.978 795.052 413.215C795.283 413.445 795.513 413.676 795.743 413.907C795.967 414.13 796.19 414.352 796.413 414.576C796.663 414.825 796.914 415.074 797.163 415.325C797.399 415.56 797.635 415.796 797.87 416.032C798.106 416.267 798.342 416.503 798.577 416.739C798.826 416.987 799.075 417.235 799.322 417.484C799.544 417.705 799.765 417.927 799.986 418.149C800.226 418.388 800.466 418.628 800.705 418.868C800.941 419.103 801.177 419.339 801.412 419.575C801.635 419.797 801.857 420.019 802.079 420.242C802.333 420.495 802.588 420.749 802.841 421.004C803.073 421.235 803.306 421.467 803.537 421.7C803.773 421.935 804.009 422.171 804.244 422.407C804.475 422.637 804.705 422.868 804.936 423.1C805.159 423.322 805.383 423.545 805.606 423.768C805.856 424.018 806.106 424.267 806.356 424.517C806.592 424.753 806.827 424.988 807.063 425.225C807.299 425.46 807.534 425.695 807.77 425.932C808.018 426.179 808.267 426.427 808.515 426.677C808.735 426.896 808.955 427.117 809.175 427.338C821.651 439.767 833.063 453.989 843.105 470.037C925.118 601.072 839.481 761.13 826.636 899.86H826.745C822.354 947.679 831.138 994.949 836.627 1042.22L592.894 1043.32V1042.61L592.187 1042.61V1041.9L591.48 1041.9V1041.19L590.773 1041.2V1040.49L590.065 1040.49V1039.78L589.358 1039.78V1039.07L588.651 1039.08V1038.36L587.943 1038.37V1037.66L587.236 1037.66V1036.95L586.529 1036.95V1036.24L585.822 1036.25V1035.54L585.115 1035.54V1034.83L584.408 1034.83V1034.12L583.701 1034.12V1033.41L582.994 1033.42V1032.71L582.287 1032.71V1032L581.58 1032V1031.29L580.872 1031.3V1030.59L580.165 1030.59V1029.88L579.458 1029.88V1029.17L578.751 1029.18V1028.46L578.044 1028.47V1027.76L577.337 1027.76V1027.05L576.63 1027.05V1026.34L575.923 1026.35V1025.64L575.216 1025.64V1024.93L574.509 1024.93V1024.22L573.802 1024.23V1023.51L573.095 1023.52V1022.81L572.388 1022.81V1022.1L571.68 1022.1V1021.39L570.973 1021.4V1020.69L570.266 1020.69V1019.98L569.559 1019.98V1019.27L568.852 1019.28V1018.56L568.145 1018.57V1017.86L567.438 1017.86V1017.15L566.731 1017.15V1016.44L566.024 1016.45V1015.74L565.317 1015.74V1015.03L564.609 1015.03V1014.32L563.902 1014.33V1013.62L563.195 1013.62V1012.91L562.487 1012.91V1012.2L561.78 1012.2V1011.49L561.073 1011.5V1010.79L560.366 1010.79V1010.08L559.659 1010.08V1009.37L558.952 1009.38V1008.66L558.245 1008.67V1007.96L557.538 1007.96V1007.25L556.831 1007.25V1006.54L556.124 1006.55V1005.84L555.417 1005.84V1005.13L554.71 1005.13V1004.42L554.003 1004.43V1003.72L553.295 1003.72V1003.01L552.588 1003.01V1002.3L551.881 1002.31V1001.59L551.174 1001.6V1000.89L550.467 1000.89V1000.18L549.76 1000.18V999.473L549.053 999.476V998.766L548.346 998.769V998.058L547.639 998.062V997.351L546.932 997.355V996.644L546.225 996.648V995.937L545.518 995.941V995.23L544.811 995.234V994.523L544.103 994.527V993.816L543.396 993.82V993.109L542.689 993.113V992.402L541.982 992.406V991.695L541.275 991.699V990.987L540.568 990.991V990.28L539.86 990.284V989.573L539.153 989.577V988.866L538.446 988.87V988.159L537.739 988.163V987.452L537.032 987.456V986.745L536.325 986.749V986.038L535.618 986.042L535.617 985.331L534.91 985.335V984.624L534.203 984.628V983.917L533.496 983.921V983.21L532.789 983.214V982.503L532.082 982.507V981.795L531.375 981.799V981.088L530.668 981.092V980.381L529.961 980.385V979.674L529.254 979.678V978.967L528.547 978.971V978.26L527.84 978.264V977.553L527.133 977.557V976.846L526.426 976.849V976.139L525.718 976.142V975.432L525.011 975.435V974.724L524.304 974.728V974.017L523.597 974.021V973.31L522.89 973.314V972.602L522.183 972.606V971.895L521.476 971.899V971.188L520.769 971.192V970.481L520.062 970.485V969.774L519.355 969.778V969.067L518.648 969.071V968.36L517.941 968.364V967.653L517.234 967.657V966.946L516.526 966.95V966.239L515.818 966.243V965.532L515.111 965.536V964.825L514.404 964.829V964.118L513.697 964.122V963.41L512.99 963.414V962.703L512.283 962.707V961.996L511.576 962V961.289L510.869 961.293V960.582L510.162 960.586V959.875L509.455 959.879V959.168L508.748 959.172V958.461L508.041 958.465V957.754L507.333 957.758V957.047L506.626 957.051V956.34L505.919 956.344V955.633L505.212 955.637V954.926L504.505 954.93V954.218L503.798 954.222V953.511L503.091 953.515V952.804L502.384 952.807V952.097L501.677 952.1V951.39L500.97 951.393V950.682L500.263 950.686V949.975L499.556 949.979V949.268L498.849 949.272V948.561L498.141 948.565V947.854L497.434 947.858V947.147L496.727 947.151V946.44L496.02 946.444V945.733L495.313 945.737V945.025L494.606 945.029V944.318L493.899 944.322V943.611L493.192 943.615V942.904L492.484 942.908V942.197L491.777 942.201V941.49L491.07 941.494V940.783L490.363 940.787V940.076L489.655 940.08V939.369L488.948 939.373V938.662L488.241 938.666V937.955L487.534 937.959V937.248L486.827 937.252V936.541L486.12 936.545V935.833L485.413 935.837V935.126L484.706 935.13V934.419L483.999 934.423V933.712L483.292 933.716V933.005L482.585 933.009V932.298L481.878 932.302V931.591L481.171 931.595V930.884L480.463 930.888V930.177L479.756 930.181V929.47L479.049 929.474V928.763L478.342 928.766V928.056L477.635 928.059V927.349L476.928 927.352V926.641L476.221 926.644V925.933L475.514 925.937V925.226L474.807 925.23V924.519L474.1 924.523V923.812L473.393 923.816V923.105L472.686 923.109V922.398L471.979 922.402V921.691L471.271 921.695V920.984L470.564 920.988V920.277L469.857 920.281V919.57L469.15 919.574V918.863L468.443 918.867V918.156L467.735 918.16V917.448L467.028 917.452V916.741L466.321 916.745V916.034L465.614 916.038V915.327L464.907 915.331V914.62L464.2 914.624V913.913L463.493 913.917V913.206L462.786 913.21V912.499L462.078 912.503V911.792L461.371 911.796V911.085L460.664 911.089V910.378L459.957 910.382V909.671L459.25 909.675V909.037C459.212 909.013 459.174 908.989 459.136 908.965L458.543 908.968V908.587C458.376 908.479 458.209 908.369 458.042 908.259L457.836 908.26V908.122C454.393 905.833 451.061 903.139 447.861 899.97C447.698 899.807 447.538 899.643 447.377 899.48C447.303 899.408 447.228 899.336 447.154 899.263C446.991 899.1 446.831 898.936 446.67 898.773C446.596 898.701 446.521 898.629 446.447 898.556C446.29 898.4 446.137 898.242 445.983 898.086C445.902 898.007 445.82 897.928 445.739 897.849C445.573 897.684 445.411 897.516 445.247 897.35C445.176 897.281 445.103 897.212 445.032 897.141C444.866 896.976 444.704 896.809 444.54 896.643C444.469 896.574 444.396 896.505 444.325 896.434C444.163 896.273 444.005 896.109 443.845 895.948C443.77 895.874 443.693 895.802 443.618 895.727C443.456 895.566 443.298 895.402 443.138 895.241C443.063 895.167 442.986 895.095 442.911 895.02C442.752 894.862 442.597 894.701 442.44 894.543C442.361 894.466 442.282 894.391 442.204 894.313C442.045 894.155 441.89 893.994 441.733 893.836C441.654 893.759 441.575 893.684 441.497 893.606C441.335 893.445 441.177 893.281 441.017 893.12C440.942 893.046 440.865 892.974 440.79 892.899C440.628 892.738 440.47 892.574 440.31 892.413C440.235 892.339 440.158 892.267 440.083 892.192C439.914 892.025 439.749 891.854 439.583 891.686C439.514 891.619 439.445 891.552 439.376 891.484C439.213 891.322 439.053 891.157 438.892 890.995C438.818 890.922 438.743 890.85 438.669 890.777C438.506 890.615 438.346 890.45 438.185 890.288C438.111 890.215 438.036 890.143 437.962 890.07C437.799 889.908 437.639 889.743 437.478 889.581C437.404 889.508 437.329 889.436 437.255 889.363C437.098 889.207 436.945 889.049 436.79 888.893C436.71 888.814 436.627 888.736 436.547 888.656C436.381 888.491 436.219 888.323 436.055 888.158C435.984 888.088 435.911 888.019 435.84 887.949C435.674 887.784 435.511 887.616 435.348 887.451C435.277 887.381 435.204 887.312 435.133 887.242C434.971 887.081 434.812 886.917 434.652 886.756C434.577 886.682 434.501 886.609 434.426 886.535C434.264 886.374 434.105 886.21 433.945 886.049C433.87 885.975 433.794 885.902 433.719 885.828C433.559 885.67 433.404 885.509 433.247 885.35C433.169 885.274 433.09 885.198 433.012 885.121C432.852 884.963 432.697 884.802 432.54 884.643C432.462 884.567 432.383 884.491 432.305 884.414C432.143 884.253 431.984 884.089 431.824 883.928C431.749 883.854 431.673 883.781 431.598 883.707C431.435 883.546 431.277 883.382 431.117 883.221C431.042 883.147 430.966 883.074 430.891 883C430.722 882.832 430.557 882.662 430.391 882.494C430.322 882.427 430.252 882.36 430.184 882.292C430.02 882.13 429.86 881.965 429.699 881.803C429.625 881.73 429.551 881.658 429.477 881.585C429.313 881.423 429.153 881.258 428.992 881.096C428.918 881.023 428.843 880.951 428.77 880.878C428.606 880.716 428.446 880.551 428.285 880.389C428.211 880.316 428.136 880.244 428.063 880.171C427.906 880.015 427.752 879.857 427.598 879.701C427.517 879.622 427.435 879.543 427.355 879.464C427.188 879.299 427.026 879.131 426.862 878.966C426.791 878.896 426.719 878.827 426.648 878.757C426.481 878.592 426.319 878.424 426.155 878.259C426.084 878.189 426.012 878.12 425.941 878.05C425.778 877.889 425.62 877.725 425.46 877.563C425.385 877.49 425.308 877.417 425.234 877.343C425.071 877.182 424.913 877.018 424.753 876.856C424.678 876.783 424.601 876.71 424.526 876.636C424.367 876.477 424.212 876.316 424.055 876.158C423.977 876.081 423.897 876.006 423.819 875.929C423.657 875.768 423.499 875.603 423.339 875.442C423.264 875.368 423.187 875.296 423.112 875.222C422.95 875.061 422.792 874.896 422.632 874.735C422.557 874.661 422.48 874.589 422.405 874.515C422.237 874.347 422.072 874.176 421.905 874.009C421.837 873.941 421.767 873.874 421.698 873.807C421.535 873.644 421.375 873.48 421.214 873.317C421.14 873.245 421.065 873.173 420.991 873.099C420.828 872.937 420.668 872.773 420.507 872.61C420.433 872.538 420.358 872.466 420.284 872.392C420.121 872.23 419.961 872.066 419.8 871.903C419.726 871.831 419.651 871.759 419.577 871.685C419.414 871.523 419.254 871.359 419.093 871.196C419.019 871.124 418.944 871.052 418.87 870.978C418.713 870.823 418.56 870.664 418.405 870.509C418.325 870.43 418.243 870.351 418.162 870.271C417.996 870.106 417.834 869.938 417.67 869.773C417.599 869.703 417.526 869.635 417.455 869.564C417.289 869.399 417.127 869.231 416.963 869.066C416.892 868.996 416.819 868.928 416.748 868.857C416.586 868.696 416.428 868.532 416.268 868.371C416.193 868.297 416.116 868.225 416.041 868.15C415.879 867.989 415.721 867.825 415.561 867.664C415.486 867.59 415.409 867.518 415.334 867.443C415.175 867.285 415.019 867.124 414.862 866.966C414.784 866.889 414.705 866.813 414.627 866.736C414.465 866.575 414.306 866.411 414.147 866.25C414.071 866.176 413.995 866.103 413.92 866.029C413.758 865.868 413.599 865.704 413.44 865.543C413.364 865.469 413.288 865.396 413.213 865.322C413.044 865.155 412.879 864.984 412.713 864.816C412.644 864.749 412.575 864.682 412.506 864.614C412.342 864.452 412.183 864.287 412.022 864.125C411.948 864.052 411.873 863.98 411.799 863.907C411.635 863.745 411.476 863.58 411.315 863.418C411.241 863.345 411.166 863.273 411.092 863.2C410.928 863.038 410.769 862.873 410.608 862.711C410.534 862.638 410.459 862.566 410.385 862.493C410.221 862.331 410.062 862.166 409.901 862.004C409.827 861.931 409.752 861.859 409.678 861.786C409.521 861.63 409.368 861.472 409.213 861.316C409.132 861.237 409.05 861.159 408.97 861.079C408.804 860.914 408.641 860.746 408.478 860.581C408.407 860.511 408.334 860.442 408.263 860.372C408.097 860.207 407.934 860.039 407.771 859.874C407.7 859.804 407.627 859.735 407.556 859.665C407.393 859.504 407.235 859.34 407.075 859.179C407 859.105 406.924 859.032 406.849 858.958C406.686 858.797 406.528 858.633 406.368 858.472C406.293 858.398 406.217 858.325 406.142 858.251C405.982 858.093 405.827 857.932 405.67 857.773C405.592 857.697 405.513 857.621 405.435 857.544C405.272 857.383 405.114 857.219 404.954 857.057C404.879 856.984 404.803 856.911 404.728 856.837C404.565 856.676 404.407 856.512 404.247 856.35C404.172 856.277 404.096 856.204 404.021 856.13C403.852 855.962 403.687 855.792 403.521 855.624C403.452 855.556 403.382 855.49 403.314 855.422C403.15 855.26 402.99 855.095 402.829 854.932C402.755 854.86 402.68 854.788 402.607 854.715C402.443 854.552 402.283 854.388 402.122 854.225C402.048 854.153 401.973 854.081 401.9 854.008C401.736 853.845 401.576 853.681 401.415 853.518C401.341 853.446 401.266 853.374 401.193 853.301C401.029 853.138 400.869 852.974 400.708 852.811C400.634 852.739 400.559 852.667 400.485 852.594C400.329 852.438 400.175 852.28 400.021 852.124C399.94 852.045 399.858 851.966 399.777 851.887C399.611 851.722 399.449 851.554 399.285 851.389C399.214 851.319 399.141 851.25 399.07 851.18C398.904 851.015 398.742 850.847 398.578 850.682C398.507 850.612 398.434 850.543 398.363 850.473C398.201 850.311 398.043 850.147 397.883 849.986C397.808 849.912 397.731 849.84 397.656 849.766C397.494 849.604 397.336 849.44 397.176 849.279C397.101 849.205 397.024 849.133 396.949 849.058C396.79 848.9 396.635 848.739 396.478 848.581C396.4 848.504 396.32 848.429 396.242 848.351C396.08 848.19 395.922 848.026 395.762 847.865C395.687 847.791 395.61 847.719 395.535 847.644C395.373 847.483 395.215 847.319 395.055 847.158C394.98 847.084 394.903 847.012 394.828 846.937C394.659 846.77 394.494 846.599 394.328 846.432C394.26 846.364 394.19 846.297 394.121 846.229C393.958 846.067 393.798 845.902 393.637 845.74C393.563 845.667 393.488 845.595 393.414 845.522C393.251 845.36 393.091 845.195 392.93 845.033C392.856 844.96 392.781 844.888 392.707 844.815C392.544 844.653 392.384 844.488 392.223 844.326C392.149 844.253 392.074 844.181 392 844.108C391.837 843.946 391.677 843.781 391.516 843.619C391.442 843.546 391.367 843.474 391.293 843.401C391.136 843.246 390.983 843.087 390.828 842.932C390.748 842.852 390.666 842.774 390.585 842.694C390.419 842.529 390.257 842.361 390.093 842.196C390.022 842.126 389.949 842.057 389.878 841.987C389.712 841.822 389.55 841.654 389.386 841.489C389.315 841.419 389.242 841.35 389.171 841.28C389.009 841.119 388.85 840.955 388.691 840.794C388.615 840.72 388.539 840.647 388.464 840.573C388.305 840.415 388.149 840.254 387.992 840.096C387.914 840.019 387.835 839.943 387.757 839.866C387.598 839.708 387.442 839.547 387.285 839.389C387.207 839.312 387.128 839.236 387.05 839.159C386.888 838.998 386.729 838.834 386.569 838.673C386.494 838.599 386.418 838.526 386.343 838.452C386.181 838.291 386.022 838.127 385.862 837.966C385.787 837.892 385.711 837.819 385.636 837.745C385.467 837.577 385.302 837.407 385.136 837.239C385.067 837.172 384.997 837.105 384.929 837.037C384.765 836.875 384.605 836.71 384.444 836.548C384.37 836.475 384.296 836.403 384.222 836.33C384.058 836.168 383.898 836.003 383.737 835.841C383.663 835.768 383.589 835.696 383.515 835.623C383.351 835.461 383.191 835.296 383.03 835.134C382.956 835.061 382.882 834.989 382.808 834.916C382.644 834.754 382.484 834.589 382.323 834.427C382.249 834.354 382.175 834.282 382.101 834.209C381.944 834.053 381.79 833.895 381.636 833.739C381.555 833.66 381.473 833.582 381.393 833.502C381.226 833.337 381.064 833.169 380.901 833.004C380.829 832.934 380.757 832.865 380.686 832.795C380.519 832.63 380.357 832.462 380.193 832.297C380.122 832.227 380.05 832.158 379.979 832.088C379.816 831.927 379.658 831.763 379.498 831.601C379.423 831.528 379.347 831.455 379.272 831.381C379.112 831.223 378.957 831.061 378.8 830.903C378.722 830.827 378.643 830.751 378.565 830.674C378.405 830.516 378.25 830.354 378.093 830.196C378.015 830.12 377.935 830.044 377.858 829.967C377.695 829.806 377.537 829.642 377.377 829.48C377.302 829.407 377.226 829.334 377.151 829.26C376.988 829.099 376.83 828.934 376.67 828.773C376.595 828.7 376.518 828.627 376.443 828.553C376.275 828.385 376.11 828.214 375.943 828.047C375.875 827.979 375.805 827.913 375.736 827.845C375.573 827.682 375.413 827.518 375.252 827.355C375.178 827.283 375.103 827.211 375.029 827.138C374.866 826.975 374.706 826.811 374.545 826.648C374.471 826.576 374.396 826.504 374.322 826.431C374.159 826.268 373.999 826.104 373.838 825.941C373.764 825.869 373.689 825.797 373.615 825.724C373.458 825.568 373.305 825.41 373.151 825.254C373.07 825.175 372.988 825.096 372.907 825.016C372.741 824.851 372.579 824.684 372.415 824.518C372.344 824.449 372.271 824.38 372.2 824.309C372.034 824.144 371.872 823.977 371.708 823.811C371.637 823.742 371.564 823.673 371.493 823.602C371.327 823.437 371.165 823.27 371.001 823.104C370.93 823.034 370.857 822.966 370.786 822.895C370.624 822.734 370.466 822.57 370.306 822.409C370.231 822.335 370.154 822.263 370.079 822.188C369.92 822.03 369.765 821.869 369.608 821.711C369.529 821.634 369.45 821.559 369.372 821.481C369.213 821.323 369.058 821.162 368.901 821.004C368.822 820.927 368.743 820.852 368.665 820.774C368.503 820.613 368.345 820.449 368.185 820.288C368.11 820.214 368.033 820.142 367.958 820.067C367.796 819.906 367.637 819.742 367.478 819.581C367.403 819.507 367.326 819.435 367.251 819.36C367.082 819.193 366.917 819.022 366.751 818.854C366.682 818.787 366.613 818.72 366.544 818.652C366.381 818.49 366.221 818.325 366.06 818.163C365.986 818.09 365.911 818.018 365.837 817.945C365.674 817.783 365.514 817.618 365.353 817.456C365.279 817.383 365.204 817.311 365.13 817.238C364.967 817.076 364.807 816.911 364.646 816.749C364.572 816.676 364.497 816.604 364.423 816.531C364.266 816.375 364.113 816.217 363.958 816.061C363.878 815.982 363.795 815.904 363.715 815.824C363.549 815.659 363.386 815.491 363.223 815.326C363.152 815.256 363.079 815.187 363.008 815.117C362.842 814.952 362.679 814.784 362.516 814.619C362.445 814.549 362.372 814.48 362.301 814.41C362.135 814.245 361.972 814.077 361.809 813.912C361.738 813.842 361.665 813.773 361.594 813.703C361.432 813.542 361.273 813.378 361.113 813.217C361.038 813.143 360.962 813.07 360.887 812.996C360.727 812.838 360.572 812.677 360.415 812.518C360.337 812.442 360.258 812.366 360.18 812.289C360.02 812.131 359.865 811.97 359.708 811.811C359.63 811.735 359.551 811.659 359.473 811.582C359.31 811.421 359.152 811.257 358.992 811.096C358.917 811.022 358.841 810.949 358.766 810.875C358.603 810.714 358.445 810.55 358.285 810.389C358.21 810.315 358.134 810.242 358.059 810.168C357.89 810 357.725 809.83 357.559 809.662C357.49 809.595 357.42 809.528 357.352 809.46C357.188 809.298 357.028 809.133 356.867 808.971C356.793 808.898 356.718 808.826 356.645 808.753C356.481 808.591 356.321 808.426 356.16 808.264C356.086 808.191 356.011 808.119 355.938 808.046C355.774 807.884 355.614 807.719 355.453 807.557C355.379 807.484 355.304 807.412 355.231 807.339C355.074 807.183 354.92 807.025 354.766 806.869C354.685 806.79 354.603 806.711 354.523 806.632C354.356 806.467 354.194 806.299 354.03 806.134C353.959 806.064 353.887 805.995 353.816 805.925C353.649 805.76 353.487 805.592 353.323 805.427C353.252 805.357 353.18 805.288 353.109 805.218C352.946 805.057 352.788 804.893 352.628 804.731C352.553 804.658 352.476 804.585 352.401 804.511C352.239 804.35 352.081 804.186 351.921 804.024C351.846 803.951 351.769 803.878 351.694 803.804C351.535 803.645 351.38 803.484 351.223 803.326C351.145 803.249 351.065 803.174 350.987 803.097C350.828 802.938 350.673 802.777 350.516 802.619C350.438 802.542 350.358 802.467 350.28 802.39C350.118 802.228 349.96 802.064 349.8 801.903C349.725 801.829 349.648 801.757 349.573 801.682C349.411 801.521 349.253 801.357 349.093 801.196C349.018 801.122 348.941 801.05 348.866 800.975C348.697 800.808 348.533 800.637 348.366 800.47C348.298 800.402 348.228 800.335 348.159 800.267C347.996 800.105 347.836 799.941 347.675 799.778C347.601 799.706 347.526 799.634 347.452 799.56C347.289 799.398 347.129 799.234 346.968 799.071C346.894 798.999 346.819 798.927 346.745 798.853C346.582 798.691 346.422 798.527 346.261 798.364C346.187 798.291 346.112 798.22 346.038 798.146C345.881 797.991 345.728 797.832 345.573 797.677C345.493 797.598 345.411 797.519 345.33 797.439C345.164 797.274 345.002 797.106 344.838 796.941C344.767 796.871 344.694 796.803 344.623 796.732C344.457 796.567 344.295 796.399 344.131 796.234C344.06 796.164 343.987 796.096 343.916 796.025C343.754 795.864 343.596 795.7 343.436 795.539C343.361 795.465 343.284 795.392 343.209 795.318C343.047 795.157 342.889 794.993 342.729 794.832C342.654 794.758 342.577 794.685 342.502 794.611C342.343 794.453 342.187 794.292 342.03 794.134C341.952 794.057 341.873 793.981 341.795 793.904C341.636 793.746 341.48 793.585 341.323 793.427C341.245 793.35 341.166 793.274 341.088 793.197C340.926 793.036 340.767 792.872 340.608 792.711C340.532 792.637 340.456 792.564 340.381 792.49C340.219 792.329 340.06 792.165 339.901 792.004C339.825 791.93 339.749 791.857 339.674 791.783C339.512 791.622 339.353 791.458 339.193 791.297C339.118 791.223 339.042 791.15 338.967 791.076C338.798 790.909 338.633 790.738 338.467 790.57C338.398 790.503 338.328 790.436 338.26 790.368C338.096 790.206 337.937 790.041 337.776 789.879C337.702 789.806 337.627 789.734 337.553 789.661C337.389 789.499 337.229 789.334 337.068 789.172C336.994 789.099 336.92 789.027 336.846 788.954C336.689 788.798 336.536 788.64 336.381 788.484C336.3 788.405 336.218 788.327 336.138 788.247C335.972 788.082 335.809 787.914 335.646 787.749C335.575 787.679 335.502 787.61 335.431 787.54C335.264 787.375 335.102 787.207 334.939 787.042C334.867 786.972 334.795 786.903 334.724 786.833C334.561 786.672 334.403 786.508 334.243 786.347C334.168 786.273 334.092 786.2 334.017 786.126C333.854 785.965 333.696 785.801 333.536 785.64C333.461 785.566 333.385 785.493 333.31 785.419C333.15 785.261 332.995 785.1 332.838 784.941C332.76 784.865 332.681 784.789 332.603 784.712C332.443 784.554 332.288 784.393 332.131 784.234C332.053 784.158 331.974 784.082 331.896 784.005C331.733 783.844 331.575 783.68 331.415 783.518C331.34 783.445 331.264 783.372 331.189 783.298C331.026 783.137 330.868 782.973 330.708 782.811C330.633 782.738 330.557 782.665 330.482 782.591C330.319 782.43 330.161 782.266 330.001 782.104C329.926 782.031 329.85 781.958 329.775 781.884C329.606 781.716 329.441 781.545 329.275 781.378C329.206 781.31 329.136 781.244 329.068 781.176C328.904 781.013 328.744 780.849 328.583 780.686C328.509 780.614 328.434 780.542 328.36 780.469C328.197 780.306 328.037 780.142 327.876 779.979C327.802 779.907 327.727 779.835 327.653 779.762C327.497 779.606 327.343 779.448 327.189 779.292C327.108 779.213 327.026 779.134 326.945 779.055C326.779 778.89 326.617 778.722 326.453 778.557C326.382 778.487 326.309 778.418 326.238 778.348C326.072 778.183 325.91 778.015 325.746 777.849C325.675 777.78 325.602 777.711 325.531 777.641C325.369 777.479 325.211 777.315 325.051 777.154C324.976 777.08 324.899 777.008 324.824 776.933C324.662 776.772 324.504 776.608 324.344 776.447C324.269 776.373 324.192 776.301 324.117 776.226C323.958 776.068 323.803 775.907 323.646 775.749C323.568 775.672 323.488 775.597 323.41 775.519C323.251 775.361 323.096 775.2 322.939 775.042C322.86 774.965 322.781 774.89 322.703 774.812C322.541 774.651 322.383 774.487 322.223 774.326C322.148 774.252 322.071 774.18 321.996 774.105C321.834 773.944 321.676 773.78 321.516 773.619C321.441 773.545 321.364 773.473 321.289 773.398C321.127 773.237 320.969 773.073 320.809 772.912C320.734 772.838 320.657 772.766 320.582 772.691C320.413 772.524 320.248 772.353 320.082 772.185C320.013 772.118 319.944 772.051 319.875 771.983C319.712 771.821 319.552 771.656 319.391 771.494C319.317 771.421 319.242 771.349 319.168 771.276C319.005 771.114 318.845 770.949 318.684 770.787C318.61 770.714 318.535 770.642 318.461 770.569C318.304 770.414 318.151 770.255 317.996 770.099C317.916 770.02 317.834 769.942 317.753 769.862C317.587 769.697 317.425 769.529 317.261 769.364C317.19 769.294 317.117 769.225 317.046 769.155C316.88 768.99 316.718 768.822 316.554 768.657C316.483 768.587 316.41 768.518 316.339 768.448C316.177 768.287 316.018 768.123 315.859 767.962C315.783 767.888 315.707 767.815 315.632 767.741C315.47 767.58 315.311 767.416 315.151 767.255C315.076 767.181 315 767.108 314.925 767.034C314.766 766.876 314.61 766.715 314.453 766.557C314.375 766.48 314.296 766.404 314.218 766.327C314.059 766.169 313.903 766.008 313.746 765.849C313.668 765.773 313.589 765.697 313.511 765.62C313.349 765.459 313.19 765.295 313.03 765.134C312.955 765.06 312.879 764.987 312.804 764.913C312.642 764.752 312.483 764.588 312.323 764.427C312.248 764.353 312.172 764.28 312.097 764.206C311.935 764.045 311.776 763.881 311.616 763.72C311.541 763.646 311.465 763.573 311.39 763.499C311.221 763.331 311.056 763.161 310.89 762.993C310.821 762.926 310.751 762.859 310.683 762.791C310.519 762.629 310.359 762.464 310.198 762.302C310.124 762.229 310.05 762.157 309.976 762.084C309.812 761.922 309.652 761.757 309.491 761.595C309.417 761.522 309.343 761.45 309.269 761.377C309.112 761.221 308.958 761.063 308.804 760.907C308.723 760.828 308.641 760.75 308.561 760.67C308.394 760.505 308.232 760.337 308.068 760.172C307.997 760.102 307.925 760.033 307.854 759.963C307.687 759.798 307.525 759.63 307.361 759.465C307.29 759.395 307.218 759.326 307.147 759.256C306.984 759.095 306.826 758.931 306.666 758.769C306.591 758.696 306.515 758.623 306.44 758.549C306.277 758.388 306.119 758.224 305.959 758.062C305.884 757.989 305.808 757.916 305.733 757.842C305.573 757.684 305.418 757.522 305.261 757.364C305.183 757.287 305.103 757.212 305.026 757.135C304.866 756.977 304.711 756.815 304.554 756.657C304.476 756.58 304.396 756.505 304.318 756.428C304.156 756.267 303.998 756.102 303.838 755.941C303.763 755.868 303.686 755.795 303.611 755.721C303.449 755.56 303.291 755.395 303.131 755.234C303.056 755.16 302.979 755.088 302.904 755.014C302.742 754.853 302.584 754.688 302.424 754.527C302.349 754.453 302.272 754.381 302.197 754.307C302.029 754.139 301.864 753.968 301.697 753.801C301.629 753.733 301.559 753.666 301.49 753.599C301.327 753.436 301.167 753.272 301.006 753.109C300.932 753.037 300.857 752.965 300.783 752.891C300.62 752.729 300.46 752.565 300.299 752.402C300.225 752.33 300.15 752.258 300.076 752.184C299.919 752.029 299.766 751.871 299.611 751.715C299.531 751.636 299.449 751.557 299.368 751.477C299.202 751.312 299.04 751.145 298.876 750.979C298.805 750.91 298.732 750.841 298.661 750.77C298.495 750.605 298.333 750.437 298.169 750.272C298.098 750.202 298.025 750.134 297.954 750.063C297.792 749.902 297.634 749.738 297.474 749.577C297.399 749.503 297.322 749.431 297.247 749.356C297.085 749.195 296.927 749.031 296.767 748.87C296.692 748.796 296.615 748.724 296.54 748.649C296.381 748.491 296.225 748.33 296.068 748.172C295.99 748.095 295.911 748.019 295.833 747.942C295.674 747.784 295.518 747.623 295.361 747.465C295.283 747.388 295.204 747.312 295.126 747.235C294.964 747.074 294.805 746.91 294.646 746.749C294.57 746.675 294.494 746.602 294.419 746.528C294.257 746.367 294.098 746.203 293.939 746.042C293.863 745.968 293.787 745.895 293.712 745.821C293.55 745.66 293.391 745.496 293.232 745.335C293.156 745.261 293.08 745.188 293.005 745.114C292.836 744.947 292.671 744.776 292.505 744.608C292.436 744.541 292.367 744.474 292.298 744.406C292.134 744.244 291.975 744.079 291.814 743.917C291.74 743.844 291.665 743.772 291.591 743.699C291.427 743.537 291.268 743.372 291.107 743.21C291.033 743.137 290.958 743.065 290.884 742.992C290.727 742.836 290.574 742.678 290.419 742.522C290.338 742.443 290.256 742.365 290.176 742.285C290.01 742.12 289.847 741.952 289.684 741.787C289.613 741.717 289.54 741.648 289.469 741.578C289.303 741.413 289.14 741.245 288.977 741.08C288.906 741.01 288.833 740.941 288.762 740.871C288.599 740.71 288.441 740.546 288.281 740.385C288.206 740.311 288.13 740.238 288.055 740.164C287.892 740.003 287.734 739.839 287.574 739.678C287.499 739.604 287.423 739.531 287.348 739.457C287.188 739.299 287.033 739.138 286.876 738.979C286.798 738.903 286.719 738.827 286.641 738.75C286.481 738.592 286.326 738.431 286.169 738.272C286.091 738.196 286.012 738.12 285.934 738.043C285.771 737.882 285.613 737.718 285.453 737.557C285.378 737.483 285.302 737.41 285.227 737.336C285.064 737.175 284.906 737.011 284.746 736.849C284.671 736.776 284.595 736.703 284.52 736.629C284.357 736.468 284.199 736.304 284.039 736.142C283.964 736.069 283.888 735.996 283.813 735.922C283.644 735.754 283.479 735.584 283.313 735.416C283.244 735.348 283.174 735.282 283.106 735.214C282.942 735.052 282.782 734.887 282.621 734.724C282.547 734.652 282.472 734.58 282.399 734.507C282.235 734.344 282.075 734.18 281.914 734.017C281.84 733.945 281.765 733.873 281.692 733.8C281.535 733.644 281.381 733.486 281.227 733.33C281.146 733.251 281.064 733.172 280.984 733.093C280.817 732.928 280.655 732.76 280.491 732.595C280.42 732.525 280.347 732.456 280.276 732.386C280.11 732.221 279.948 732.053 279.784 731.888C279.713 731.818 279.64 731.749 279.569 731.679C279.407 731.518 279.249 731.353 279.089 731.192C279.014 731.119 278.937 731.046 278.862 730.972C278.7 730.81 278.542 730.646 278.382 730.485C278.307 730.411 278.23 730.339 278.155 730.265C277.996 730.106 277.841 729.945 277.684 729.787C277.606 729.71 277.526 729.635 277.448 729.557C277.286 729.396 277.128 729.232 276.968 729.071C276.893 728.997 276.816 728.925 276.741 728.85C276.579 728.689 276.421 728.525 276.261 728.364C276.186 728.29 276.109 728.218 276.034 728.143C275.872 727.982 275.714 727.818 275.554 727.657C275.479 727.583 275.402 727.511 275.327 727.436C275.165 727.275 275.007 727.111 274.847 726.95C274.772 726.876 274.695 726.804 274.62 726.729C274.451 726.562 274.286 726.391 274.12 726.224C274.052 726.156 273.982 726.089 273.913 726.021C273.75 725.859 273.59 725.694 273.429 725.532C273.355 725.459 273.28 725.387 273.206 725.314C273.043 725.152 272.883 724.987 272.722 724.825C272.648 724.752 272.573 724.68 272.499 724.607C272.342 724.452 272.189 724.293 272.034 724.138C271.954 724.058 271.872 723.98 271.791 723.9C271.625 723.735 271.463 723.567 271.299 723.402C271.228 723.332 271.155 723.264 271.084 723.193C270.918 723.028 270.756 722.86 270.592 722.695C270.521 722.625 270.448 722.557 270.377 722.486C270.215 722.325 270.056 722.161 269.897 722C269.821 721.926 269.745 721.853 269.67 721.779C269.508 721.618 269.349 721.454 269.19 721.293C269.114 721.219 269.038 721.146 268.963 721.072C268.804 720.914 268.648 720.753 268.491 720.595C268.413 720.518 268.334 720.442 268.256 720.365C268.094 720.204 267.935 720.04 267.776 719.879C267.7 719.805 267.624 719.732 267.549 719.658C267.387 719.497 267.228 719.333 267.068 719.172C266.993 719.098 266.917 719.025 266.842 718.951C266.68 718.79 266.521 718.626 266.361 718.465C266.286 718.391 266.21 718.318 266.135 718.244C265.973 718.083 265.814 717.919 265.654 717.758C265.579 717.684 265.503 717.611 265.428 717.537C265.259 717.369 265.094 717.199 264.928 717.031C264.859 716.964 264.789 716.897 264.721 716.829C264.557 716.667 264.397 716.502 264.236 716.34C264.162 716.267 264.088 716.195 264.014 716.122C263.85 715.96 263.69 715.795 263.529 715.633C263.455 715.56 263.381 715.488 263.307 715.415C263.15 715.259 262.997 715.101 262.842 714.945C262.761 714.866 262.679 714.788 262.599 714.708C262.432 714.543 262.27 714.375 262.107 714.21C262.035 714.14 261.963 714.071 261.892 714.001C261.725 713.836 261.563 713.668 261.4 713.503C261.328 713.433 261.256 713.364 261.185 713.294C261.022 713.133 260.864 712.969 260.704 712.807C260.629 712.734 260.553 712.661 260.478 712.587C260.315 712.426 260.157 712.262 259.997 712.1C259.922 712.027 259.846 711.954 259.771 711.88C259.611 711.722 259.456 711.561 259.299 711.402C259.221 711.326 259.142 711.25 259.064 711.173C258.901 711.012 258.743 710.848 258.583 710.686C258.508 710.613 258.432 710.54 258.357 710.466C258.194 710.305 258.036 710.141 257.876 709.979C257.801 709.906 257.725 709.833 257.65 709.759C257.487 709.598 257.329 709.433 257.169 709.272C257.094 709.199 257.017 709.126 256.943 709.052C256.78 708.891 256.622 708.726 256.462 708.565C256.387 708.492 256.31 708.419 256.235 708.345C256.067 708.177 255.902 708.006 255.735 707.839C255.667 707.771 255.597 707.705 255.528 707.637C255.365 707.474 255.205 707.31 255.044 707.147C254.97 707.075 254.895 707.003 254.821 706.93C254.658 706.767 254.498 706.603 254.337 706.44C254.263 706.368 254.188 706.296 254.114 706.223C253.958 706.067 253.804 705.909 253.65 705.753C253.569 705.674 253.487 705.595 253.406 705.516C253.24 705.351 253.078 705.183 252.914 705.017C252.843 704.948 252.77 704.879 252.699 704.808C252.533 704.643 252.371 704.476 252.207 704.31C252.136 704.241 252.063 704.172 251.992 704.101C251.83 703.94 251.672 703.776 251.512 703.615C251.437 703.541 251.36 703.469 251.285 703.394C251.123 703.233 250.965 703.069 250.805 702.908C250.73 702.834 250.653 702.762 250.578 702.687C250.419 702.529 250.264 702.368 250.107 702.21C250.028 702.133 249.949 702.058 249.871 701.98C249.709 701.819 249.551 701.655 249.391 701.494C249.316 701.42 249.239 701.348 249.164 701.273C249.002 701.112 248.844 700.948 248.684 700.787C248.609 700.713 248.532 700.641 248.457 700.566C248.295 700.405 248.137 700.241 247.977 700.08C247.902 700.006 247.825 699.934 247.75 699.859C247.581 699.692 247.416 699.521 247.25 699.353C247.181 699.286 247.112 699.219 247.043 699.151C246.88 698.989 246.72 698.824 246.559 698.662C246.485 698.589 246.41 698.517 246.336 698.444C246.173 698.282 246.013 698.117 245.852 697.955C245.778 697.882 245.703 697.81 245.629 697.737C245.466 697.575 245.306 697.41 245.145 697.248C245.071 697.175 244.996 697.103 244.922 697.03C244.765 696.874 244.612 696.716 244.457 696.56C244.377 696.481 244.294 696.403 244.214 696.323C244.048 696.158 243.886 695.99 243.722 695.825C243.651 695.755 243.578 695.686 243.507 695.616C243.341 695.451 243.179 695.283 243.015 695.118C242.944 695.048 242.871 694.979 242.8 694.909C242.638 694.748 242.479 694.584 242.319 694.423C242.244 694.349 242.168 694.276 242.093 694.202C241.934 694.044 241.778 693.883 241.621 693.724C241.543 693.648 241.464 693.572 241.386 693.495C241.226 693.337 241.071 693.176 240.914 693.017C240.836 692.941 240.757 692.865 240.679 692.788C240.517 692.627 240.358 692.463 240.198 692.302C240.123 692.228 240.047 692.155 239.972 692.081C239.81 691.92 239.651 691.756 239.491 691.595C239.416 691.521 239.34 691.448 239.265 691.374C239.103 691.213 238.944 691.049 238.784 690.888C238.709 690.814 238.633 690.741 238.558 690.667C238.389 690.499 238.224 690.329 238.058 690.161C237.989 690.094 237.919 690.027 237.851 689.959C237.687 689.797 237.527 689.632 237.366 689.47C237.292 689.397 237.218 689.325 237.144 689.252C236.98 689.09 236.82 688.925 236.659 688.763C236.585 688.69 236.511 688.618 236.437 688.545C236.273 688.383 236.113 688.218 235.952 688.056C235.878 687.983 235.803 687.911 235.73 687.838C235.573 687.682 235.419 687.524 235.265 687.368C235.184 687.289 235.102 687.21 235.022 687.131C234.855 686.966 234.693 686.798 234.529 686.633C234.458 686.563 234.386 686.494 234.315 686.424C234.152 686.263 233.994 686.099 233.834 685.937C233.759 685.864 233.683 685.791 233.608 685.717C233.445 685.556 233.287 685.392 233.127 685.23C233.052 685.157 232.976 685.084 232.901 685.01C232.741 684.852 232.586 684.69 232.429 684.532C232.351 684.455 232.271 684.38 232.193 684.303C232.034 684.144 231.879 683.983 231.722 683.825C231.644 683.748 231.564 683.673 231.486 683.596C231.324 683.435 231.166 683.27 231.006 683.109C230.931 683.035 230.854 682.963 230.779 682.889C230.617 682.728 230.459 682.563 230.299 682.402C230.224 682.328 230.147 682.256 230.072 682.182C229.91 682.021 229.752 681.856 229.592 681.695C229.517 681.621 229.44 681.549 229.365 681.474C229.197 681.307 229.032 681.136 228.865 680.969C228.797 680.901 228.727 680.834 228.658 680.766C228.495 680.604 228.335 680.44 228.174 680.277C228.1 680.205 228.025 680.133 227.951 680.059C227.788 679.897 227.628 679.733 227.467 679.57C227.393 679.498 227.318 679.426 227.244 679.352C227.087 679.197 226.934 679.039 226.779 678.883C226.699 678.804 226.617 678.725 226.536 678.645C226.37 678.48 226.208 678.312 226.044 678.147C225.973 678.078 225.9 678.009 225.829 677.938C225.663 677.773 225.501 677.605 225.337 677.44C225.266 677.37 225.193 677.302 225.122 677.231C224.96 677.07 224.802 676.906 224.642 676.745C224.567 676.671 224.49 676.599 224.415 676.524C224.253 676.363 224.095 676.199 223.935 676.038C223.86 675.964 223.783 675.892 223.708 675.817C223.549 675.659 223.393 675.498 223.236 675.34C223.158 675.263 223.079 675.187 223.001 675.11C222.842 674.952 222.686 674.791 222.529 674.633C222.451 674.556 222.372 674.48 222.294 674.403C222.132 674.242 221.973 674.078 221.814 673.917C221.738 673.843 221.662 673.77 221.587 673.696C221.425 673.535 221.266 673.371 221.107 673.21C221.031 673.136 220.955 673.063 220.88 672.989C220.718 672.828 220.559 672.664 220.4 672.503C220.324 672.429 220.248 672.356 220.173 672.282C220.004 672.115 219.839 671.944 219.673 671.776C219.604 671.709 219.535 671.642 219.466 671.574C219.302 671.412 219.143 671.247 218.982 671.085C218.908 671.012 218.833 670.94 218.759 670.867C218.595 670.705 218.436 670.54 218.275 670.378C218.201 670.305 218.126 670.233 218.052 670.16C217.895 670.004 217.742 669.846 217.587 669.69C217.506 669.611 217.424 669.533 217.344 669.453C217.178 669.288 217.015 669.12 216.852 668.955C216.781 668.885 216.708 668.816 216.637 668.746C216.471 668.581 216.308 668.413 216.145 668.248C216.074 668.178 216.001 668.109 215.93 668.039C215.767 667.878 215.609 667.714 215.449 667.553C215.374 667.479 215.298 667.406 215.223 667.332C215.06 667.171 214.902 667.007 214.742 666.846C214.667 666.772 214.591 666.699 214.516 666.625C214.356 666.467 214.201 666.306 214.044 666.147C213.966 666.071 213.887 665.995 213.809 665.918C213.649 665.76 213.494 665.599 213.337 665.44C213.259 665.364 213.18 665.288 213.102 665.211C212.939 665.05 212.781 664.886 212.621 664.724C212.546 664.651 212.47 664.578 212.395 664.504C212.232 664.343 212.074 664.179 211.914 664.017C211.839 663.944 211.763 663.871 211.688 663.797C211.525 663.636 211.367 663.472 211.207 663.31C211.132 663.237 211.056 663.164 210.981 663.09C210.812 662.922 210.647 662.752 210.481 662.584C210.412 662.516 210.342 662.45 210.274 662.382C210.11 662.219 209.95 662.055 209.789 661.892C209.715 661.82 209.64 661.748 209.567 661.675C209.403 661.512 209.243 661.348 209.082 661.185C209.008 661.113 208.933 661.041 208.86 660.968C208.703 660.812 208.549 660.654 208.395 660.498C208.314 660.419 208.232 660.34 208.152 660.261C207.989 660.1 207.831 659.936 207.671 659.775C207.596 659.701 207.52 659.628 207.444 659.554C207.278 659.389 207.116 659.221 206.952 659.056C206.881 658.986 206.808 658.917 206.737 658.847C206.575 658.685 206.417 658.521 206.257 658.36C206.182 658.287 206.105 658.214 206.03 658.14C205.868 657.978 205.71 657.814 205.55 657.653C205.475 657.579 205.398 657.507 205.323 657.432C205.164 657.274 205.009 657.113 204.852 656.955C204.774 656.878 204.694 656.803 204.616 656.725C204.457 656.567 204.302 656.406 204.145 656.248C204.067 656.171 203.987 656.096 203.909 656.018C203.747 655.857 203.589 655.693 203.429 655.532C203.354 655.458 203.277 655.386 203.202 655.311C203.04 655.15 202.882 654.986 202.722 654.825C202.647 654.751 202.57 654.679 202.495 654.604C202.333 654.443 202.175 654.279 202.015 654.118C201.94 654.044 201.863 653.972 201.788 653.897C201.619 653.73 201.454 653.559 201.288 653.391C201.22 653.324 201.15 653.257 201.081 653.189C200.918 653.027 200.758 652.862 200.597 652.7C200.523 652.627 200.448 652.555 200.374 652.482C200.211 652.32 200.051 652.155 199.89 651.993C199.816 651.92 199.741 651.848 199.667 651.775C199.51 651.62 199.357 651.461 199.202 651.306C199.122 651.226 199.04 651.148 198.959 651.068C198.797 650.907 198.638 650.744 198.479 650.583C198.403 650.509 198.327 650.436 198.252 650.361C198.086 650.196 197.924 650.028 197.76 649.863C197.689 649.793 197.616 649.725 197.545 649.654C197.383 649.493 197.224 649.329 197.065 649.168C196.99 649.094 196.913 649.021 196.838 648.947C196.676 648.786 196.517 648.622 196.358 648.461C196.282 648.387 196.206 648.314 196.131 648.24C195.972 648.082 195.816 647.921 195.659 647.763C195.581 647.686 195.502 647.61 195.424 647.533C195.265 647.375 195.109 647.214 194.952 647.056C194.874 646.979 194.795 646.903 194.717 646.826C194.555 646.665 194.396 646.501 194.236 646.34C194.161 646.266 194.085 646.193 194.01 646.119C193.848 645.958 193.689 645.794 193.529 645.633C193.454 645.559 193.378 645.486 193.303 645.412C193.141 645.251 192.982 645.087 192.822 644.926C192.747 644.852 192.671 644.779 192.596 644.705C192.427 644.537 192.262 644.367 192.096 644.199C192.027 644.132 191.957 644.065 191.889 643.997C191.725 643.835 191.565 643.67 191.404 643.508C191.33 643.435 191.256 643.363 191.182 643.29C191.018 643.128 190.858 642.963 190.697 642.801C190.623 642.728 190.549 642.656 190.475 642.583C190.318 642.427 190.165 642.269 190.01 642.113C189.929 642.034 189.847 641.956 189.767 641.876C189.605 641.715 189.446 641.552 189.286 641.391C189.211 641.317 189.135 641.243 189.06 641.169C188.893 641.004 188.731 640.836 188.568 640.671C188.496 640.601 188.424 640.532 188.353 640.462C188.19 640.301 188.032 640.137 187.872 639.975C187.797 639.902 187.721 639.829 187.646 639.755C187.483 639.594 187.325 639.43 187.165 639.268C187.09 639.195 187.014 639.122 186.939 639.048C186.779 638.89 186.624 638.728 186.467 638.57C186.389 638.494 186.31 638.418 186.232 638.341C186.072 638.183 185.917 638.021 185.76 637.863C185.682 637.787 185.602 637.711 185.525 637.634C185.362 637.473 185.204 637.309 185.044 637.147C184.969 637.074 184.893 637.001 184.818 636.927C184.655 636.766 184.497 636.601 184.337 636.44C184.262 636.367 184.185 636.294 184.11 636.22C183.948 636.059 183.79 635.894 183.63 635.733C183.555 635.66 183.478 635.587 183.403 635.513C183.235 635.345 183.07 635.174 182.903 635.007C182.835 634.939 182.765 634.873 182.696 634.805C182.533 634.642 182.373 634.478 182.212 634.315C182.138 634.243 182.063 634.171 181.989 634.098C181.826 633.935 181.666 633.771 181.505 633.608C181.431 633.536 181.356 633.464 181.282 633.391C181.125 633.235 180.972 633.077 180.818 632.921C180.737 632.842 180.655 632.763 180.574 632.683C180.412 632.523 180.254 632.359 180.094 632.198C180.019 632.124 179.942 632.051 179.867 631.976C179.701 631.811 179.539 631.644 179.375 631.478C179.304 631.409 179.231 631.34 179.16 631.269C178.998 631.108 178.84 630.944 178.68 630.783C178.605 630.709 178.528 630.637 178.453 630.562C178.291 630.401 178.133 630.237 177.973 630.076C177.898 630.002 177.821 629.93 177.746 629.855C177.587 629.697 177.432 629.536 177.275 629.378C177.196 629.301 177.117 629.226 177.039 629.148C176.88 628.99 176.725 628.829 176.568 628.671C176.489 628.594 176.41 628.518 176.332 628.441C176.17 628.28 176.012 628.116 175.852 627.955C175.777 627.881 175.7 627.809 175.625 627.734C175.463 627.573 175.304 627.409 175.145 627.248C175.07 627.174 174.993 627.102 174.918 627.027C174.756 626.866 174.597 626.702 174.438 626.541C174.362 626.467 174.286 626.394 174.211 626.32C174.042 626.153 173.877 625.982 173.711 625.814C173.642 625.747 173.573 625.68 173.504 625.612C173.341 625.45 173.181 625.285 173.02 625.123C172.946 625.05 172.871 624.978 172.797 624.905C172.634 624.743 172.474 624.578 172.313 624.416C172.239 624.343 172.164 624.271 172.09 624.198C171.933 624.042 171.78 623.884 171.625 623.728C171.545 623.649 171.462 623.571 171.382 623.491C171.22 623.33 171.061 623.167 170.902 623.006C170.826 622.932 170.75 622.858 170.675 622.784C170.509 622.619 170.346 622.451 170.183 622.286C170.112 622.216 170.039 622.147 169.968 622.077C169.806 621.916 169.647 621.752 169.487 621.591C169.412 621.517 169.336 621.444 169.261 621.37C169.099 621.209 168.94 621.045 168.78 620.884C168.705 620.81 168.629 620.737 168.554 620.663C168.394 620.505 168.239 620.344 168.082 620.185C168.004 620.109 167.925 620.033 167.847 619.956C167.687 619.798 167.532 619.637 167.375 619.478C167.297 619.402 167.218 619.326 167.14 619.249C166.977 619.088 166.819 618.924 166.659 618.763C166.584 618.689 166.508 618.616 166.433 618.542C166.27 618.381 166.112 618.217 165.952 618.056C165.877 617.982 165.801 617.909 165.726 617.835C165.563 617.674 165.405 617.51 165.245 617.349C165.17 617.275 165.094 617.202 165.019 617.128C164.85 616.96 164.685 616.79 164.519 616.622C164.45 616.554 164.38 616.488 164.312 616.42C164.148 616.258 163.988 616.093 163.827 615.931C163.753 615.858 163.678 615.786 163.605 615.713C163.441 615.551 163.281 615.386 163.12 615.224C163.046 615.151 162.971 615.079 162.898 615.006C162.741 614.85 162.587 614.692 162.433 614.536C162.352 614.457 162.27 614.378 162.19 614.299C162.027 614.138 161.869 613.974 161.709 613.813C161.634 613.74 161.558 613.666 161.483 613.592C161.316 613.427 161.154 613.259 160.99 613.094C160.919 613.024 160.847 612.955 160.776 612.885C160.613 612.724 160.455 612.56 160.295 612.398C160.22 612.325 160.143 612.252 160.068 612.178C159.906 612.017 159.748 611.853 159.588 611.691C159.513 611.618 159.436 611.545 159.361 611.471C159.202 611.312 159.047 611.151 158.89 610.993C158.812 610.916 158.732 610.841 158.654 610.764C158.495 610.605 158.34 610.444 158.183 610.286C158.105 610.209 158.025 610.134 157.947 610.057C157.785 609.895 157.627 609.731 157.467 609.57C157.392 609.496 157.315 609.424 157.24 609.349C157.078 609.188 156.92 609.024 156.76 608.863C156.685 608.789 156.608 608.717 156.533 608.642C156.371 608.481 156.213 608.317 156.053 608.156C155.978 608.082 155.901 608.01 155.826 607.935C155.657 607.768 155.492 607.597 155.326 607.43C155.258 607.362 155.188 607.295 155.119 607.227C154.956 607.065 154.796 606.901 154.635 606.738C154.561 606.666 154.486 606.594 154.412 606.52C154.249 606.358 154.089 606.194 153.928 606.031C153.854 605.958 153.779 605.887 153.705 605.813C153.548 605.658 153.395 605.499 153.24 605.344C153.16 605.265 153.078 605.186 152.997 605.106C152.835 604.945 152.676 604.782 152.517 604.621C152.442 604.547 152.365 604.474 152.29 604.399C152.124 604.234 151.962 604.066 151.798 603.901C151.727 603.831 151.654 603.763 151.583 603.692C151.421 603.531 151.263 603.367 151.103 603.206C151.028 603.132 150.951 603.059 150.876 602.985C150.714 602.824 150.556 602.66 150.396 602.499C150.321 602.425 150.244 602.352 150.169 602.278C150.01 602.12 149.854 601.959 149.697 601.801C149.619 601.724 149.54 601.648 149.462 601.571C149.303 601.413 149.147 601.252 148.99 601.094C148.912 601.017 148.833 600.941 148.755 600.864C148.593 600.703 148.434 600.539 148.275 600.378C148.199 600.304 148.123 600.231 148.048 600.157C147.886 599.996 147.727 599.832 147.568 599.671C147.492 599.597 147.416 599.524 147.341 599.45C147.179 599.289 147.02 599.125 146.86 598.964C146.785 598.89 146.709 598.817 146.634 598.743C146.465 598.576 146.3 598.405 146.134 598.237C146.065 598.17 145.995 598.103 145.927 598.035C145.763 597.873 145.604 597.708 145.443 597.546C145.369 597.473 145.294 597.401 145.22 597.328C145.056 597.166 144.896 597.001 144.735 596.839C144.662 596.766 144.587 596.694 144.513 596.621C144.356 596.465 144.203 596.307 144.048 596.151C143.967 596.072 143.885 595.994 143.805 595.914C143.643 595.753 143.484 595.59 143.324 595.429C143.249 595.355 143.173 595.281 143.098 595.207C142.931 595.042 142.769 594.874 142.606 594.709C142.534 594.639 142.462 594.57 142.391 594.5C142.228 594.339 142.07 594.175 141.91 594.014C141.835 593.94 141.759 593.867 141.684 593.793C141.521 593.632 141.363 593.468 141.203 593.307C141.128 593.233 141.052 593.16 140.977 593.086C140.817 592.928 140.662 592.767 140.505 592.608C140.427 592.532 140.348 592.456 140.27 592.379C140.107 592.218 139.949 592.054 139.789 591.892C139.714 591.819 139.638 591.746 139.563 591.672C139.4 591.511 139.242 591.347 139.082 591.185C139.007 591.112 138.931 591.039 138.856 590.965C138.693 590.804 138.535 590.64 138.375 590.478C138.3 590.405 138.224 590.332 138.149 590.258C137.986 590.097 137.828 589.932 137.668 589.771C137.593 589.698 137.517 589.625 137.442 589.551C137.273 589.383 137.108 589.212 136.942 589.045C136.873 588.977 136.803 588.911 136.735 588.843C136.571 588.68 136.411 588.516 136.25 588.353C136.176 588.281 136.101 588.209 136.027 588.136C135.864 587.973 135.704 587.809 135.543 587.646C135.469 587.574 135.394 587.502 135.32 587.429C135.164 587.273 135.01 587.115 134.856 586.959C134.775 586.88 134.693 586.801 134.612 586.722C134.45 586.561 134.292 586.397 134.132 586.236C134.057 586.162 133.98 586.089 133.905 586.015C133.739 585.85 133.577 585.682 133.413 585.516C133.342 585.447 133.269 585.378 133.198 585.307C133.036 585.146 132.878 584.982 132.718 584.821C132.643 584.747 132.566 584.675 132.491 584.6C132.329 584.439 132.171 584.275 132.011 584.114C131.936 584.04 131.859 583.968 131.784 583.893C131.625 583.735 131.47 583.574 131.313 583.416C131.235 583.339 131.155 583.264 131.077 583.186C130.915 583.025 130.757 582.861 130.597 582.7C130.522 582.626 130.445 582.554 130.37 582.479C130.208 582.318 130.05 582.154 129.89 581.993C129.815 581.919 129.738 581.847 129.663 581.772C129.501 581.611 129.343 581.447 129.183 581.286C129.108 581.212 129.031 581.14 128.956 581.065C128.794 580.904 128.636 580.74 128.476 580.579C128.401 580.505 128.324 580.433 128.249 580.358C128.08 580.191 127.915 580.02 127.749 579.852C127.68 579.785 127.611 579.718 127.542 579.65C127.379 579.488 127.219 579.323 127.058 579.161C126.984 579.088 126.909 579.016 126.835 578.943C126.672 578.781 126.512 578.616 126.351 578.454C126.277 578.381 126.202 578.309 126.128 578.236C125.971 578.081 125.818 577.922 125.663 577.766C125.583 577.687 125.501 577.609 125.42 577.529C125.258 577.368 125.099 577.205 124.94 577.044C124.864 576.97 124.788 576.897 124.713 576.822C124.542 576.652 124.374 576.48 124.205 576.309C124.139 576.245 124.072 576.18 124.006 576.115C123.844 575.954 123.685 575.79 123.526 575.629C123.45 575.555 123.374 575.482 123.299 575.408C123.137 575.247 122.978 575.083 122.818 574.922C122.743 574.848 122.667 574.775 122.592 574.701C122.433 574.543 122.277 574.382 122.12 574.224C122.042 574.147 121.963 574.071 121.885 573.994C121.723 573.833 121.564 573.669 121.404 573.508C121.329 573.434 121.253 573.361 121.178 573.287C121.016 573.126 120.857 572.962 120.697 572.801C120.622 572.727 120.546 572.654 120.471 572.58C120.309 572.419 120.15 572.255 119.99 572.094C119.915 572.02 119.839 571.947 119.764 571.873C119.602 571.712 119.443 571.548 119.283 571.387C119.208 571.313 119.132 571.24 119.057 571.166C118.888 570.998 118.723 570.828 118.557 570.66C118.488 570.593 118.418 570.526 118.35 570.458C118.186 570.296 118.026 570.131 117.865 569.969C117.791 569.896 117.717 569.824 117.643 569.751C117.479 569.589 117.319 569.424 117.158 569.262C117.084 569.189 117.01 569.117 116.936 569.044C116.779 568.888 116.625 568.73 116.471 568.574C116.39 568.495 116.308 568.417 116.228 568.337C116.065 568.176 115.907 568.013 115.747 567.851C115.672 567.778 115.596 567.704 115.521 567.63C115.358 567.469 115.2 567.305 115.04 567.143C114.965 567.07 114.889 566.997 114.814 566.923C114.651 566.762 114.493 566.598 114.333 566.436C114.258 566.363 114.182 566.29 114.107 566.216C113.944 566.055 113.786 565.891 113.626 565.729C113.551 565.656 113.475 565.583 113.4 565.509C113.24 565.351 113.085 565.189 112.928 565.031C112.85 564.954 112.77 564.879 112.693 564.802C112.53 564.641 112.372 564.477 112.212 564.315C112.137 564.242 112.06 564.169 111.985 564.095C111.823 563.934 111.665 563.769 111.505 563.608C111.43 563.535 111.353 563.462 111.278 563.388C111.116 563.227 110.958 563.062 110.798 562.901C110.723 562.827 110.646 562.755 110.571 562.681C110.403 562.513 110.238 562.342 110.071 562.175C110.003 562.107 109.933 562.04 109.864 561.973C109.701 561.81 109.541 561.646 109.38 561.483C109.306 561.411 109.231 561.339 109.157 561.266C108.994 561.103 108.834 560.939 108.673 560.776C108.599 560.704 108.524 560.632 108.45 560.558C108.287 560.396 108.127 560.232 107.966 560.069C107.892 559.997 107.817 559.925 107.743 559.851C107.586 559.696 107.433 559.538 107.278 559.382C107.198 559.303 107.116 559.224 107.035 559.144C106.869 558.979 106.707 558.812 106.543 558.646C106.472 558.576 106.399 558.508 106.328 558.437C106.166 558.276 106.008 558.112 105.848 557.951C105.773 557.877 105.696 557.805 105.621 557.73C105.459 557.569 105.301 557.405 105.141 557.244C105.066 557.17 104.989 557.098 104.914 557.023C104.755 556.865 104.6 556.704 104.443 556.546C104.364 556.469 104.285 556.393 104.207 556.316C104.048 556.158 103.892 555.997 103.735 555.839C103.657 555.762 103.578 555.686 103.5 555.609C103.338 555.448 103.18 555.284 103.02 555.123C102.945 555.049 102.868 554.977 102.793 554.902C102.631 554.741 102.472 554.577 102.313 554.416C102.237 554.342 102.161 554.269 102.086 554.195C101.924 554.034 101.765 553.87 101.606 553.709C101.53 553.635 101.454 553.562 101.379 553.488C101.21 553.321 101.045 553.15 100.879 552.982C100.81 552.915 100.741 552.848 100.672 552.78C100.509 552.618 100.349 552.453 100.188 552.291C100.114 552.218 100.039 552.146 99.965 552.073C99.8015 551.911 99.6416 551.746 99.4806 551.584C99.4066 551.511 99.3318 551.439 99.2579 551.366C99.0945 551.204 98.9346 551.039 98.7736 550.877C98.6996 550.804 98.6248 550.732 98.5509 550.659C98.394 550.503 98.2407 550.345 98.0861 550.189C98.0054 550.11 97.9234 550.032 97.8429 549.952C97.6766 549.787 97.5144 549.619 97.3507 549.454C97.2796 549.384 97.2069 549.315 97.1359 549.245C96.9735 549.084 96.8153 548.92 96.6554 548.759C96.5803 548.685 96.5038 548.612 96.4288 548.538C96.2665 548.377 96.1083 548.213 95.9484 548.052C95.8732 547.978 95.7968 547.905 95.7218 547.831C95.5595 547.67 95.4012 547.506 95.2413 547.345C95.1662 547.271 95.0898 547.198 95.0148 547.124C94.8554 546.966 94.7001 546.805 94.5431 546.646C94.465 546.57 94.3857 546.494 94.3077 546.417C94.1454 546.256 93.9871 546.092 93.8273 545.931C93.7521 545.857 93.6757 545.784 93.6007 545.71C93.4384 545.549 93.2801 545.385 93.1202 545.224C93.0451 545.15 92.9687 545.077 92.8937 545.003C92.7314 544.842 92.573 544.678 92.4132 544.516C92.3381 544.443 92.2616 544.37 92.1867 544.296C92.0178 544.128 91.8528 543.958 91.6867 543.79C91.618 543.722 91.5482 543.656 91.4796 543.588C91.3161 543.426 91.1563 543.261 90.9952 543.099C90.9213 543.026 90.8464 542.954 90.7726 542.881C90.6091 542.719 90.4492 542.554 90.2882 542.391C90.2142 542.319 90.1394 542.247 90.0656 542.174C89.9021 542.012 89.7422 541.847 89.5812 541.684C89.5072 541.612 89.4324 541.54 89.3585 541.467C89.2016 541.311 89.0483 541.153 88.8937 540.997C88.813 540.918 88.731 540.839 88.6505 540.76C88.4842 540.595 88.3221 540.427 88.1583 540.262C88.0872 540.192 88.0145 540.123 87.9435 540.053C87.7811 539.892 87.6229 539.728 87.463 539.566C87.3879 539.493 87.3114 539.42 87.2365 539.346C87.0741 539.185 86.9159 539.02 86.756 538.859C86.6809 538.785 86.6044 538.713 86.5294 538.639C62.3758 514.674 65.5598 489.061 65.7794 458.391C65.7794 457.188 65.8076 454.837 65.8478 451.755C65.7949 451.7 65.7409 451.647 65.6886 451.593C65.4475 451.36 65.2109 451.125 64.9816 450.886C64.7405 450.653 64.5039 450.418 64.2745 450.179C64.0283 449.941 63.7859 449.702 63.5519 449.457C63.3112 449.224 63.0748 448.99 62.8458 448.75C62.6049 448.517 62.368 448.283 62.1388 448.043C61.8979 447.81 61.6609 447.576 61.4318 447.336C61.1957 447.108 60.9632 446.878 60.7384 446.643C60.4973 446.411 60.2607 446.176 60.0314 445.936C59.7863 445.7 59.5456 445.461 59.3126 445.218C59.0777 444.991 58.8469 444.762 58.6232 444.528C58.382 444.296 58.1456 444.061 57.9161 443.821C57.6728 443.587 57.4346 443.349 57.2033 443.107C56.9622 442.875 56.7256 442.64 56.4962 442.4C56.2551 442.168 56.0185 441.933 55.7892 441.693C55.5481 441.461 55.3115 441.226 55.0822 440.986C54.8359 440.749 54.5935 440.51 54.3595 440.265C54.1188 440.032 53.8824 439.797 53.6535 439.558C53.4126 439.325 53.1756 439.09 52.9464 438.85C52.7055 438.618 52.4685 438.383 52.2394 438.143C52.0033 437.915 51.7708 437.686 51.546 437.451C51.305 437.218 51.0683 436.984 50.839 436.744C50.5939 436.508 50.3532 436.269 50.1202 436.025C49.8853 435.798 49.6545 435.57 49.4308 435.336C49.1896 435.103 48.9532 434.868 48.7238 434.629C48.4804 434.394 48.2423 434.157 48.0109 433.915C47.7698 433.682 47.5332 433.448 47.3038 433.208C47.0628 432.975 46.8262 432.741 46.5968 432.501C46.3557 432.268 46.1191 432.034 45.8898 431.794C45.6435 431.556 45.4011 431.317 45.1671 431.072C44.9264 430.839 44.6901 430.605 44.4611 430.365C44.2202 430.132 43.9832 429.898 43.754 429.658C43.514 429.426 43.2774 429.193 43.049 428.954C42.812 428.725 42.5792 428.494 42.3536 428.259C42.1126 428.026 41.876 427.791 41.6466 427.552C41.4015 427.315 41.1608 427.077 40.9279 426.833C40.693 426.606 40.4622 426.377 40.2384 426.143C39.9973 425.911 39.7608 425.676 39.5314 425.436C39.288 425.202 39.0499 424.964 38.8185 424.723C38.5774 424.49 38.3408 424.255 38.1115 424.016C37.8704 423.783 37.6338 423.548 37.4044 423.309C37.1633 423.076 36.9267 422.841 36.6974 422.601C36.4513 422.364 36.2096 422.125 35.9757 421.88C35.7348 421.647 35.4978 421.413 35.2687 421.173C35.0278 420.94 34.7908 420.706 34.5617 420.466C34.3216 420.234 34.085 420.001 33.8566 419.762C33.6197 419.533 33.3868 419.302 33.1613 419.066C32.9202 418.834 32.6836 418.599 32.4542 418.359C32.2091 418.123 31.9684 417.884 31.7355 417.641C31.5006 417.414 31.2698 417.185 31.046 416.951C30.8049 416.719 30.5684 416.484 30.339 416.244C30.0957 416.009 29.8575 415.772 29.6261 415.53C29.385 415.298 29.1484 415.063 28.9191 414.823C28.678 414.59 28.4414 414.356 28.212 414.116C27.9658 413.878 27.7234 413.639 27.4894 413.394C27.2487 413.162 27.0123 412.927 26.7833 412.687C26.5424 412.455 26.3055 412.22 26.0763 411.98C25.8354 411.748 25.5984 411.513 25.3693 411.273C25.1292 411.041 24.8926 410.808 24.6642 410.569C24.4273 410.34 24.1944 410.11 23.9689 409.874C23.7278 409.641 23.4912 409.407 23.2619 409.167C23.0168 408.93 22.7761 408.692 22.5431 408.448C22.3082 408.221 22.0774 407.992 21.8536 407.759C21.6125 407.526 21.376 407.291 21.1466 407.052C20.9033 406.817 20.6651 406.58 20.4337 406.338C20.1926 406.105 19.956 405.87 19.7267 405.631C19.4856 405.398 19.249 405.163 19.0197 404.924C18.7734 404.686 18.531 404.447 18.297 404.202C18.0563 403.969 17.8199 403.735 17.591 403.495C17.3501 403.262 17.1131 403.028 16.8839 402.788C16.643 402.555 16.406 402.321 16.1769 402.081C15.9368 401.849 15.7002 401.616 15.4718 401.377C15.2349 401.148 15.0021 400.917 14.7765 400.682C14.5354 400.449 14.2988 400.214 14.0695 399.975C13.8244 399.738 13.5837 399.5 13.3507 399.256C13.1158 399.029 12.885 398.8 12.6613 398.566C12.4201 398.334 12.1837 398.099 11.9542 397.859C11.7109 397.625 11.4727 397.387 11.2413 397.145C11.0003 396.913 10.7637 396.678 10.5343 396.438C10.2932 396.206 10.0566 395.971 9.82728 395.731C9.58102 395.494 9.33864 395.255 9.10462 395.01C8.86391 394.777 8.62756 394.542 8.39857 394.303C8.15768 394.07 7.92069 393.835 7.69154 393.596C-0.519119 385.659 -1.89406 373.592 2.32044 360.773C15.605 320.539 45.7975 275.468 52.3849 233.915C57.3254 202.475 56.996 180.27 68.963 149.38Z" fill="#376967"/>
</svg>
