<svg width="1024" height="1024" viewBox="0 0 1024 1024" fill="none" xmlns="http://www.w3.org/2000/svg">
<g clip-path="url(#clip0_1_3040)">
<rect width="1024" height="1024" fill="white"/>
<g opacity="0.5">
<g clip-path="url(#clip1_1_3040)">
<rect width="1024" height="1024" fill="#F8F9FA"/>
<path d="M0 703H1024" stroke="#007AFF"/>
<path d="M0 512H1024" stroke="#007AFF"/>
<path d="M0 321H1024" stroke="#007AFF"/>
<path d="M703 1024V0" stroke="#007AFF"/>
<path d="M512 1024V0" stroke="#007AFF"/>
<path d="M321 1024V0" stroke="#007AFF"/>
<path d="M1024 1024L0 0" stroke="#007AFF"/>
<path d="M0 1024L1024 0" stroke="#007AFF"/>
<rect x="67" y="67" width="890" height="890" stroke="#007AFF"/>
<circle cx="512" cy="512" r="191" stroke="#007AFF"/>
<circle cx="512" cy="512" r="269" stroke="#007AFF"/>
<circle cx="512" cy="512" r="445" stroke="#007AFF"/>
</g>
<rect x="0.5" y="0.5" width="1023" height="1023" stroke="#FF3B30"/>
</g>
<rect width="1024" height="1024" fill="#498A83"/>
<path d="M323.715 321.301C386.272 160.092 589.562 124.378 703.268 238.601C703.519 238.85 703.769 239.099 704.018 239.35C704.254 239.585 704.49 239.82 704.725 240.057C704.961 240.292 705.197 240.527 705.432 240.764C705.668 240.999 705.904 241.234 706.139 241.471C706.388 241.719 706.637 241.967 706.885 242.216C707.11 242.441 707.335 242.666 707.56 242.893C707.796 243.128 708.032 243.363 708.267 243.6C708.503 243.835 708.739 244.07 708.974 244.307C709.21 244.542 709.446 244.777 709.681 245.014C709.922 245.254 710.163 245.494 710.403 245.735C710.635 245.967 710.868 246.199 711.099 246.432C711.33 246.662 711.561 246.893 711.791 247.124C712.014 247.347 712.238 247.569 712.461 247.793C712.711 248.042 712.961 248.291 713.211 248.542C713.447 248.777 713.683 249.013 713.918 249.249C714.154 249.484 714.39 249.72 714.625 249.956C714.861 250.191 715.097 250.427 715.332 250.663C715.581 250.911 715.829 251.159 716.077 251.408C716.303 251.633 716.528 251.859 716.753 252.085C716.989 252.32 717.225 252.556 717.46 252.792C717.696 253.027 717.932 253.263 718.167 253.499C718.403 253.734 718.639 253.97 718.874 254.206C719.115 254.446 719.355 254.686 719.595 254.928C719.828 255.159 720.06 255.391 720.292 255.624C720.523 255.854 720.753 256.085 720.983 256.316C721.207 256.539 721.43 256.762 721.653 256.985C721.903 257.235 722.154 257.484 722.403 257.734C722.639 257.97 722.875 258.205 723.11 258.441C723.346 258.677 723.582 258.912 723.817 259.148C724.053 259.384 724.289 259.619 724.524 259.855C724.773 260.103 725.021 260.351 725.269 260.601C725.495 260.826 725.72 261.051 725.945 261.277C726.181 261.512 726.417 261.748 726.652 261.984C726.888 262.22 727.124 262.455 727.359 262.691C727.595 262.927 727.831 263.162 728.066 263.398C728.307 263.638 728.548 263.879 728.788 264.12C729.02 264.352 729.253 264.584 729.484 264.816C729.715 265.047 729.945 265.277 730.176 265.509C730.399 265.731 730.623 265.954 730.845 266.178C731.096 266.427 731.346 266.676 731.595 266.927C731.831 267.162 732.067 267.397 732.303 267.634C732.539 267.869 732.774 268.104 733.01 268.341C733.246 268.576 733.481 268.811 733.717 269.048C733.965 269.296 734.214 269.544 734.462 269.793C734.687 270.018 734.913 270.244 735.137 270.47C735.373 270.705 735.609 270.94 735.845 271.177C736.08 271.412 736.316 271.647 736.552 271.884C736.788 272.119 737.023 272.354 737.259 272.591C737.499 272.831 737.74 273.071 737.98 273.313C738.213 273.544 738.445 273.776 738.677 274.009C738.907 274.239 739.138 274.47 739.368 274.701C739.591 274.924 739.815 275.146 740.038 275.37C740.288 275.619 740.539 275.869 740.788 276.119C741.024 276.354 741.26 276.59 741.495 276.826C741.731 277.061 741.967 277.297 742.202 277.533C742.438 277.768 742.674 278.004 742.909 278.24C743.158 278.488 743.406 278.736 743.654 278.985C743.88 279.21 744.105 279.436 744.33 279.662C744.566 279.897 744.802 280.133 745.037 280.369C745.273 280.604 745.509 280.84 745.744 281.076C745.98 281.311 746.216 281.547 746.451 281.783C746.692 282.023 746.933 282.264 747.173 282.505C747.405 282.736 747.637 282.968 747.869 283.201C748.1 283.431 748.33 283.662 748.56 283.894C748.784 284.116 749.008 284.339 749.23 284.563C749.48 284.812 749.731 285.061 749.98 285.312C750.216 285.547 750.452 285.782 750.687 286.019C750.923 286.254 751.159 286.489 751.394 286.726C751.63 286.961 751.866 287.196 752.101 287.433C752.35 287.68 752.599 287.929 752.846 288.178C753.072 288.403 753.297 288.628 753.522 288.855C753.758 289.09 753.994 289.325 754.229 289.562C754.465 289.797 754.701 290.032 754.936 290.269C755.172 290.504 755.408 290.739 755.643 290.976C755.884 291.216 756.125 291.456 756.365 291.697C756.597 291.929 756.83 292.161 757.061 292.394C757.292 292.624 757.523 292.855 757.753 293.086C757.976 293.309 758.2 293.531 758.423 293.755C758.673 294.004 758.923 294.253 759.173 294.504C759.409 294.739 759.644 294.975 759.88 295.211C760.116 295.446 760.352 295.682 760.587 295.918C760.823 296.153 761.059 296.389 761.294 296.625C761.542 296.873 761.791 297.121 762.039 297.37C762.265 297.595 762.49 297.821 762.715 298.047C762.951 298.282 763.186 298.518 763.422 298.754C763.658 298.989 763.893 299.225 764.129 299.461C764.37 299.701 764.61 299.941 764.85 300.183C765.083 300.414 765.315 300.646 765.547 300.879C765.783 301.114 766.018 301.35 766.254 301.586C766.485 301.816 766.715 302.047 766.945 302.278C767.169 302.501 767.392 302.724 767.615 302.947C767.865 303.196 768.116 303.446 768.365 303.696C768.601 303.931 768.837 304.167 769.072 304.403C769.308 304.638 769.544 304.874 769.779 305.11C770.028 305.358 770.276 305.606 770.524 305.855C770.746 306.077 770.967 306.298 771.188 306.521C771.428 306.76 771.668 306.999 771.907 307.239C772.143 307.474 772.379 307.71 772.614 307.946C772.85 308.181 773.086 308.417 773.321 308.653C773.562 308.893 773.803 309.134 774.043 309.375C774.275 309.607 774.507 309.839 774.739 310.071C774.975 310.306 775.211 310.542 775.446 310.778C775.677 311.008 775.907 311.239 776.137 311.471C776.361 311.693 776.585 311.916 776.807 312.14C777.058 312.389 777.308 312.638 777.557 312.889C777.793 313.124 778.029 313.359 778.264 313.596C778.5 313.831 778.736 314.066 778.971 314.303C779.22 314.551 779.469 314.799 779.717 315.048C779.938 315.269 780.16 315.491 780.381 315.713C780.621 315.952 780.86 316.191 781.099 316.432C781.335 316.667 781.571 316.902 781.806 317.139C782.042 317.374 782.278 317.609 782.513 317.846C782.754 318.086 782.995 318.326 783.235 318.567C783.467 318.799 783.7 319.031 783.931 319.264C784.167 319.499 784.403 319.734 784.638 319.971C784.869 320.201 785.1 320.432 785.33 320.663C785.553 320.886 785.777 321.108 786 321.332C786.25 321.581 786.5 321.83 786.75 322.081C786.986 322.316 787.222 322.552 787.457 322.788C787.693 323.023 787.929 323.259 788.164 323.495C788.413 323.743 788.661 323.991 788.909 324.24C789.131 324.461 789.352 324.683 789.573 324.905C789.813 325.144 790.053 325.384 790.292 325.624C790.528 325.859 790.764 326.095 790.999 326.331C791.235 326.566 791.471 326.802 791.706 327.038C791.947 327.278 792.187 327.518 792.428 327.76C792.66 327.991 792.892 328.223 793.124 328.456C793.36 328.691 793.596 328.927 793.831 329.163C794.062 329.393 794.292 329.624 794.522 329.855C794.746 330.078 794.969 330.301 795.192 330.524C795.442 330.774 795.693 331.023 795.942 331.273C796.178 331.509 796.414 331.744 796.649 331.98C796.885 332.216 797.121 332.451 797.356 332.688C797.605 332.935 797.854 333.183 798.101 333.433C798.327 333.658 798.552 333.883 798.777 334.109C799.013 334.345 799.249 334.58 799.484 334.816C799.72 335.052 799.956 335.287 800.191 335.523C800.427 335.759 800.663 335.994 800.898 336.23C801.139 336.471 801.38 336.711 801.62 336.952C801.852 337.184 802.085 337.416 802.316 337.648C802.552 337.884 802.788 338.119 803.023 338.355C803.254 338.586 803.484 338.817 803.715 339.048C803.938 339.27 804.162 339.493 804.385 339.717C804.635 339.966 804.885 340.215 805.135 340.466C805.371 340.701 805.606 340.936 805.842 341.173C806.078 341.408 806.313 341.644 806.549 341.88C806.797 342.128 807.046 342.376 807.294 342.625C807.519 342.85 807.745 343.076 807.97 343.302C808.205 343.537 808.441 343.772 808.677 344.009C808.913 344.244 809.148 344.479 809.384 344.716C809.62 344.951 809.855 345.186 810.091 345.423C810.331 345.663 810.572 345.903 810.812 346.145C811.045 346.376 811.277 346.608 811.509 346.841C811.745 347.076 811.98 347.311 812.216 347.548C812.434 347.765 812.652 347.983 812.87 348.202C813.12 348.451 813.371 348.701 813.62 348.951C813.856 349.186 814.092 349.422 814.327 349.658C814.563 349.893 814.799 350.129 815.034 350.365C815.27 350.6 815.506 350.836 815.741 351.072C815.99 351.32 816.238 351.568 816.486 351.817C816.712 352.042 816.937 352.268 817.162 352.494C817.398 352.729 817.634 352.965 817.869 353.201C818.105 353.436 818.341 353.672 818.576 353.908C818.812 354.143 819.048 354.379 819.283 354.615C819.524 354.855 819.765 355.096 820.005 355.337C820.237 355.569 820.469 355.8 820.701 356.033C820.932 356.263 821.162 356.494 821.392 356.726C821.616 356.948 821.84 357.171 822.062 357.395C822.312 357.644 822.563 357.893 822.812 358.144C823.048 358.379 823.284 358.614 823.519 358.851C823.755 359.086 823.991 359.321 824.226 359.558C824.462 359.793 824.698 360.028 824.933 360.265C825.182 360.512 825.431 360.761 825.678 361.01C825.904 361.235 826.129 361.46 826.354 361.687C826.59 361.922 826.826 362.157 827.061 362.394C827.297 362.629 827.533 362.864 827.768 363.101C828.004 363.336 828.24 363.571 828.475 363.808C828.716 364.048 828.957 364.288 829.197 364.529C829.429 364.761 829.662 364.993 829.893 365.226C830.124 365.456 830.355 365.687 830.585 365.918C830.808 366.141 831.032 366.363 831.255 366.587C831.505 366.836 831.755 367.085 832.005 367.336C832.241 367.571 832.476 367.807 832.712 368.043C832.948 368.278 833.184 368.514 833.419 368.75C833.655 368.985 833.891 369.221 834.126 369.457C834.374 369.705 834.623 369.953 834.871 370.202C835.097 370.427 835.322 370.653 835.547 370.879C835.783 371.114 836.018 371.35 836.254 371.586C836.49 371.821 836.725 372.057 836.961 372.293C837.197 372.528 837.433 372.764 837.668 373C837.909 373.24 838.149 373.48 838.389 373.722C838.622 373.953 838.854 374.185 839.086 374.418C839.317 374.648 839.547 374.879 839.777 375.11C840.001 375.333 840.224 375.556 840.447 375.779C840.697 376.029 840.948 376.278 841.197 376.528C841.433 376.763 841.669 376.999 841.904 377.235C842.14 377.471 842.376 377.706 842.611 377.942C842.847 378.178 843.083 378.413 843.318 378.649C843.567 378.897 843.815 379.145 844.063 379.395C844.289 379.62 844.514 379.845 844.739 380.071C844.975 380.306 845.211 380.542 845.446 380.778C845.682 381.013 845.918 381.249 846.153 381.485C846.389 381.721 846.625 381.956 846.86 382.192C847.101 382.432 847.342 382.673 847.582 382.914C847.814 383.146 848.046 383.378 848.278 383.61C848.509 383.84 848.739 384.071 848.97 384.303C849.193 384.525 849.417 384.748 849.639 384.972C849.89 385.221 850.14 385.47 850.389 385.721C850.625 385.956 850.861 386.191 851.096 386.428C851.332 386.663 851.568 386.898 851.803 387.135C852.039 387.37 852.275 387.605 852.511 387.842C852.759 388.09 853.008 388.338 853.256 388.587C853.481 388.812 853.706 389.038 853.931 389.264C854.167 389.499 854.403 389.734 854.638 389.971C854.874 390.206 855.11 390.441 855.345 390.678C855.581 390.913 855.817 391.148 856.053 391.385C856.293 391.625 856.534 391.865 856.774 392.106C857.007 392.338 857.239 392.57 857.47 392.803C857.701 393.033 857.932 393.264 858.162 393.495C858.385 393.718 858.609 393.94 858.832 394.164C859.082 394.413 859.332 394.663 859.582 394.913C859.818 395.148 860.054 395.384 860.289 395.62C860.525 395.855 860.761 396.091 860.996 396.327C861.232 396.562 861.468 396.798 861.703 397.034C861.952 397.282 862.2 397.53 862.448 397.779C862.674 398.004 862.899 398.23 863.124 398.456C863.36 398.691 863.596 398.927 863.831 399.163C864.067 399.398 864.303 399.634 864.538 399.87C864.774 400.105 865.01 400.341 865.245 400.577C865.486 400.817 865.727 401.058 865.967 401.299C866.199 401.53 866.431 401.762 866.663 401.995C866.894 402.225 867.124 402.456 867.354 402.688C867.578 402.91 867.801 403.133 868.024 403.356C868.274 403.606 868.525 403.855 868.774 404.105C869.01 404.341 869.246 404.576 869.481 404.813C869.717 405.048 869.953 405.283 870.188 405.52C870.424 405.755 870.66 405.99 870.895 406.227C871.144 406.474 871.393 406.723 871.64 406.972C871.866 407.197 872.091 407.422 872.316 407.648C872.552 407.884 872.788 408.119 873.023 408.355C873.259 408.591 873.495 408.826 873.73 409.063C873.966 409.298 874.202 409.533 874.437 409.77C874.678 410.01 874.919 410.25 875.159 410.491C875.391 410.723 875.624 410.955 875.855 411.188C876.086 411.418 876.316 411.649 876.547 411.88C876.77 412.103 876.994 412.325 877.217 412.549C877.467 412.798 877.717 413.047 877.967 413.298C878.203 413.533 878.438 413.769 878.674 414.005C878.91 414.24 879.145 414.476 879.381 414.712C879.617 414.947 879.852 415.183 880.088 415.419C880.336 415.667 880.585 415.915 880.833 416.164C881.058 416.389 881.284 416.615 881.509 416.841C881.745 417.076 881.98 417.311 882.216 417.548C882.452 417.783 882.687 418.018 882.923 418.255C883.159 418.49 883.394 418.726 883.63 418.962C883.871 419.202 884.111 419.442 884.351 419.684C884.584 419.915 884.816 420.147 885.048 420.38C885.279 420.61 885.509 420.841 885.739 421.072C885.962 421.295 886.186 421.517 886.409 421.741C886.659 421.99 886.91 422.24 887.159 422.49C887.395 422.725 887.631 422.961 887.866 423.197C888.102 423.432 888.338 423.668 888.573 423.904C888.809 424.139 889.045 424.375 889.28 424.611C889.529 424.859 889.777 425.107 890.025 425.356C890.251 425.581 890.476 425.807 890.701 426.033C890.937 426.268 891.173 426.504 891.408 426.74C891.644 426.975 891.88 427.211 892.115 427.447C892.351 427.682 892.587 427.918 892.822 428.154C893.063 428.394 893.304 428.635 893.544 428.876C893.776 429.108 894.008 429.339 894.24 429.572C894.471 429.802 894.701 430.033 894.931 430.265C895.155 430.487 895.379 430.71 895.601 430.934C895.852 431.183 896.102 431.432 896.351 431.683C896.587 431.918 896.823 432.153 897.058 432.39C897.294 432.625 897.53 432.86 897.765 433.097C898.014 433.344 898.263 433.593 898.511 433.842C898.732 434.063 898.954 434.285 899.175 434.507C899.414 434.746 899.654 434.985 899.893 435.226C900.129 435.461 900.365 435.696 900.6 435.933C900.836 436.168 901.072 436.403 901.307 436.64C901.548 436.88 901.789 437.12 902.029 437.361C902.261 437.593 902.494 437.825 902.725 438.058C902.961 438.293 903.197 438.528 903.432 438.765C903.663 438.995 903.894 439.226 904.124 439.457C904.347 439.68 904.571 439.902 904.794 440.126C905.044 440.375 905.294 440.624 905.544 440.875C905.78 441.11 906.016 441.346 906.251 441.582C906.487 441.817 906.723 442.053 906.958 442.289C907.206 442.537 907.455 442.785 907.703 443.034C907.925 443.255 908.146 443.477 908.367 443.699C908.607 443.938 908.847 444.178 909.086 444.418C909.322 444.653 909.558 444.889 909.793 445.125C910.029 445.36 910.265 445.596 910.5 445.832C910.741 446.072 910.981 446.312 911.221 446.554C911.454 446.785 911.686 447.017 911.918 447.25C912.154 447.485 912.39 447.721 912.625 447.957C912.856 448.187 913.086 448.418 913.316 448.649C913.54 448.872 913.763 449.095 913.986 449.318C914.236 449.568 914.487 449.817 914.736 450.067C914.972 450.303 915.208 450.538 915.443 450.774C915.679 451.01 915.915 451.245 916.15 451.481C916.399 451.729 916.647 451.977 916.895 452.227C917.117 452.448 917.338 452.669 917.559 452.892C917.799 453.131 918.039 453.37 918.278 453.61C918.514 453.846 918.75 454.081 918.985 454.317C919.221 454.553 919.457 454.788 919.692 455.024C919.933 455.264 920.174 455.505 920.414 455.746C920.646 455.978 920.879 456.21 921.11 456.442C921.346 456.678 921.582 456.913 921.817 457.149C922.048 457.38 922.278 457.611 922.509 457.842C922.732 458.064 922.956 458.287 923.178 458.511C923.429 458.76 923.679 459.009 923.928 459.26C924.164 459.495 924.4 459.73 924.636 459.967C924.871 460.202 925.107 460.437 925.343 460.674C925.591 460.922 925.84 461.17 926.088 461.419C926.309 461.64 926.531 461.862 926.752 462.084C926.992 462.323 927.231 462.562 927.47 462.803C927.706 463.038 927.942 463.273 928.178 463.51C928.413 463.745 928.649 463.98 928.885 464.217C929.125 464.457 929.366 464.697 929.606 464.939C929.839 465.17 930.071 465.402 930.303 465.635C930.538 465.87 930.774 466.105 931.01 466.342C931.24 466.572 931.471 466.803 931.701 467.034C931.924 467.257 932.148 467.479 932.371 467.703C932.621 467.952 932.872 468.202 933.121 468.452C933.357 468.687 933.593 468.923 933.828 469.159C934.064 469.394 934.3 469.63 934.535 469.866C934.784 470.114 935.032 470.362 935.28 470.611C935.506 470.836 935.731 471.062 935.956 471.288C936.192 471.523 936.428 471.759 936.663 471.995C936.899 472.23 937.135 472.466 937.37 472.702C937.606 472.937 937.842 473.173 938.077 473.409C938.318 473.649 938.559 473.89 938.799 474.131C939.031 474.362 939.263 474.594 939.495 474.827C939.731 475.062 939.967 475.298 940.202 475.534C940.433 475.764 940.663 475.995 940.893 476.227C941.117 476.449 941.34 476.672 941.563 476.896C941.813 477.145 942.064 477.394 942.313 477.645C942.549 477.88 942.785 478.115 943.02 478.352C943.256 478.587 943.492 478.822 943.727 479.059C943.976 479.306 944.225 479.555 944.472 479.804C944.698 480.029 944.923 480.254 945.148 480.48C945.384 480.716 945.62 480.951 945.855 481.188C946.091 481.423 946.327 481.658 946.562 481.895C946.798 482.13 947.034 482.365 947.269 482.602C947.51 482.842 947.751 483.082 947.991 483.323C948.223 483.555 948.456 483.787 948.687 484.02C948.918 484.25 949.149 484.481 949.379 484.712C949.602 484.935 949.826 485.157 950.049 485.381C950.299 485.63 950.549 485.879 950.799 486.13C951.035 486.365 951.27 486.601 951.506 486.837C951.742 487.072 951.977 487.308 952.213 487.544C952.449 487.779 952.684 488.015 952.92 488.251C953.168 488.499 953.417 488.747 953.665 488.996C953.89 489.221 954.116 489.447 954.341 489.673C954.577 489.908 954.812 490.143 955.048 490.38C955.284 490.615 955.519 490.851 955.755 491.087C955.991 491.322 956.226 491.558 956.462 491.794C956.703 492.034 956.943 492.274 957.183 492.516C957.416 492.747 957.648 492.979 957.88 493.212C958.111 493.442 958.341 493.673 958.571 493.904C958.795 494.127 959.018 494.35 959.241 494.573C959.491 494.822 959.742 495.072 959.991 495.322C960.227 495.557 960.463 495.793 960.698 496.029C960.934 496.264 961.17 496.5 961.405 496.736C961.641 496.971 961.877 497.207 962.112 497.443C962.361 497.691 962.609 497.939 962.857 498.189C963.083 498.413 963.308 498.639 963.533 498.865C963.769 499.1 964.005 499.336 964.24 499.572C964.476 499.807 964.712 500.043 964.947 500.279C965.183 500.514 965.419 500.75 965.654 500.986C965.895 501.226 966.136 501.467 966.376 501.708C966.608 501.94 966.84 502.172 967.072 502.404C967.303 502.634 967.533 502.865 967.763 503.097C967.987 503.319 968.211 503.542 968.433 503.766C968.684 504.015 968.934 504.264 969.183 504.515C969.419 504.75 969.655 504.985 969.89 505.222C970.126 505.457 970.362 505.692 970.597 505.929C970.833 506.164 971.069 506.399 971.304 506.636C971.553 506.884 971.802 507.132 972.05 507.381C972.275 507.606 972.5 507.832 972.725 508.058C972.961 508.293 973.197 508.528 973.432 508.765C973.668 509 973.904 509.235 974.139 509.472C974.375 509.707 974.611 509.942 974.846 510.179C975.087 510.419 975.328 510.659 975.568 510.9C975.801 511.132 976.033 511.364 976.264 511.597C976.495 511.827 976.726 512.058 976.956 512.289C977.179 512.512 977.403 512.734 977.626 512.958C977.876 513.207 978.126 513.456 978.376 513.707C978.612 513.942 978.848 514.178 979.083 514.414C979.319 514.649 979.555 514.885 979.79 515.121C980.026 515.356 980.262 515.592 980.497 515.828C980.746 516.076 980.994 516.324 981.242 516.573C981.468 516.798 981.693 517.024 981.918 517.25C982.154 517.485 982.39 517.721 982.625 517.957C982.861 518.192 983.097 518.428 983.332 518.664C983.568 518.899 983.804 519.135 984.039 519.371C984.28 519.611 984.52 519.851 984.761 520.093C984.993 520.324 985.225 520.556 985.457 520.789C985.688 521.019 985.918 521.25 986.148 521.481C986.372 521.704 986.595 521.927 986.818 522.15C987.068 522.4 987.319 522.649 987.568 522.899C987.804 523.135 988.04 523.37 988.275 523.606C988.511 523.842 988.747 524.077 988.982 524.314C989.218 524.549 989.454 524.784 989.689 525.021C989.938 525.268 990.187 525.516 990.434 525.766C990.66 525.991 990.885 526.216 991.11 526.442C991.346 526.678 991.582 526.913 991.817 527.149C992.053 527.385 992.289 527.62 992.524 527.856C992.76 528.092 992.996 528.327 993.231 528.564C993.472 528.803 993.713 529.044 993.953 529.285C994.185 529.517 994.418 529.749 994.649 529.981C994.88 530.212 995.11 530.443 995.341 530.674C995.564 530.896 995.788 531.119 996.011 531.343C996.261 531.592 996.511 531.841 996.761 532.092C996.996 532.327 997.232 532.562 997.468 532.799C997.704 533.034 997.939 533.27 998.175 533.506C998.411 533.741 998.646 533.977 998.882 534.213C999.13 534.461 999.379 534.709 999.627 534.958C999.852 535.183 1000.08 535.409 1000.3 535.635C1000.54 535.87 1000.77 536.105 1001.01 536.342C1001.25 536.577 1001.48 536.812 1001.72 537.049C1001.95 537.284 1002.19 537.519 1002.42 537.756C1002.66 537.996 1002.91 538.236 1003.15 538.478C1003.38 538.709 1003.61 538.941 1003.84 539.174C1004.07 539.404 1004.3 539.635 1004.53 539.866C1004.76 540.089 1004.98 540.311 1005.2 540.535C1005.45 540.784 1005.7 541.034 1005.95 541.284C1006.19 541.519 1006.42 541.755 1006.66 541.991C1006.9 542.226 1007.13 542.462 1007.37 542.698C1007.62 542.946 1007.86 543.194 1008.11 543.443C1008.33 543.664 1008.56 543.886 1008.78 544.108C1009.02 544.347 1009.26 544.587 1009.49 544.827C1009.73 545.062 1009.97 545.298 1010.2 545.534C1010.44 545.769 1010.67 546.005 1010.91 546.241C1011.14 546.476 1011.38 546.712 1011.62 546.948C1011.86 547.188 1012.1 547.429 1012.34 547.67C1012.57 547.902 1012.8 548.133 1013.03 548.366C1013.26 548.596 1013.5 548.827 1013.73 549.059C1013.95 549.281 1014.17 549.504 1014.4 549.728C1014.65 549.977 1014.9 550.226 1015.15 550.477C1015.38 550.712 1015.62 550.947 1015.85 551.184C1016.09 551.419 1016.32 551.654 1016.56 551.891C1016.81 552.138 1017.06 552.387 1017.3 552.636C1017.53 552.857 1017.75 553.079 1017.97 553.301C1018.21 553.54 1018.45 553.779 1018.69 554.02C1018.92 554.255 1019.16 554.49 1019.39 554.727C1019.63 554.962 1019.87 555.197 1020.1 555.434C1020.34 555.669 1020.57 555.904 1020.81 556.141C1021.05 556.381 1021.29 556.621 1021.53 556.862C1021.76 557.094 1021.99 557.326 1022.23 557.559C1022.46 557.789 1022.69 558.02 1022.92 558.251C1023.14 558.474 1023.36 558.696 1023.59 558.92C1023.84 559.169 1024.09 559.418 1024.34 559.669C1024.57 559.904 1024.81 560.14 1025.04 560.376C1025.28 560.61 1025.51 560.845 1025.75 561.08C1026 561.329 1026.25 561.578 1026.5 561.828C1026.72 562.049 1026.94 562.271 1027.16 562.493C1027.4 562.732 1027.64 562.972 1027.88 563.212C1028.12 563.447 1028.35 563.683 1028.59 563.919C1028.82 564.154 1029.06 564.39 1029.29 564.626C1029.53 564.861 1029.77 565.097 1030 565.333C1030.24 565.573 1030.48 565.813 1030.72 566.055C1030.95 566.286 1031.19 566.518 1031.42 566.751C1031.65 566.981 1031.88 567.212 1032.11 567.443C1032.33 567.666 1032.56 567.889 1032.78 568.112C1033.03 568.362 1033.28 568.611 1033.53 568.861C1033.77 569.096 1034 569.332 1034.24 569.568C1034.47 569.803 1034.71 570.039 1034.94 570.275C1035.19 570.523 1035.44 570.771 1035.69 571.021C1035.91 571.242 1036.13 571.463 1036.35 571.686C1036.59 571.925 1036.83 572.164 1037.07 572.404C1037.31 572.639 1037.54 572.875 1037.78 573.111C1038.02 573.346 1038.25 573.582 1038.49 573.818C1038.72 574.047 1038.95 574.277 1039.17 574.507C1039.42 574.753 1039.67 575 1039.91 575.247C1040.15 575.479 1040.38 575.711 1040.61 575.943C1040.83 576.166 1041.06 576.389 1041.28 576.613C1041.51 576.843 1041.74 577.074 1041.97 577.305C1042.22 577.554 1042.47 577.803 1042.72 578.054C1042.96 578.289 1043.19 578.524 1043.43 578.761C1043.67 578.996 1043.9 579.231 1044.14 579.468C1044.39 579.716 1044.63 579.964 1044.88 580.213C1045.1 580.434 1045.32 580.656 1045.55 580.878C1045.79 581.117 1046.03 581.356 1046.26 581.597C1046.5 581.832 1046.74 582.067 1046.97 582.304C1047.2 582.528 1047.42 582.752 1047.65 582.978C1047.9 583.229 1048.15 583.48 1048.4 583.732C1048.63 583.964 1048.86 584.196 1049.1 584.429C1049.33 584.664 1049.57 584.899 1049.8 585.136C1050.03 585.366 1050.26 585.597 1050.49 585.828C1050.72 586.051 1050.94 586.273 1051.16 586.497C1051.42 586.746 1051.67 586.996 1051.91 587.246C1052.15 587.481 1052.39 587.717 1052.62 587.953C1052.86 588.188 1053.09 588.424 1053.33 588.66C1053.58 588.908 1053.83 589.156 1054.07 589.405C1054.3 589.626 1054.52 589.848 1054.74 590.07C1054.98 590.309 1055.22 590.549 1055.46 590.789C1055.69 591.024 1055.93 591.26 1056.16 591.496C1056.39 591.718 1056.61 591.94 1056.83 592.163C1057.09 592.416 1057.34 592.67 1057.59 592.925C1057.82 593.156 1058.06 593.388 1058.29 593.621C1058.52 593.856 1058.76 594.092 1059 594.328C1059.23 594.558 1059.46 594.789 1059.69 595.021C1059.91 595.243 1060.13 595.466 1060.36 595.689C1060.61 595.939 1060.86 596.188 1061.11 596.439C1061.34 596.674 1061.58 596.909 1061.81 597.146C1062.05 597.381 1062.29 597.616 1062.52 597.853C1062.77 598.1 1063.02 598.348 1063.27 598.598C1063.49 598.817 1063.71 599.038 1063.93 599.259C1076.4 611.688 1087.81 625.91 1097.86 641.958C1179.87 772.993 1094.23 933.051 1081.39 1071.78H1081.5C1077.11 1119.6 1085.89 1166.87 1091.38 1214.14L847.645 1215.24V1214.53L846.938 1214.53V1213.82L846.231 1213.82V1213.11L845.524 1213.12V1212.41L844.816 1212.41V1211.7L844.109 1211.7V1210.99L843.402 1211V1210.29L842.695 1210.29V1209.58L841.988 1209.58V1208.87L841.281 1208.88V1208.16L840.574 1208.17V1207.46L839.867 1207.46V1206.75L839.16 1206.75V1206.04L838.453 1206.05V1205.33L837.746 1205.34V1204.63L837.039 1204.63V1203.92L836.332 1203.92V1203.21L835.624 1203.22V1202.51L834.917 1202.51V1201.8L834.21 1201.8V1201.09L833.503 1201.1V1200.39L832.796 1200.39V1199.68L832.089 1199.68V1198.97L831.382 1198.97V1198.26L830.675 1198.27V1197.56L829.968 1197.56V1196.85L829.261 1196.85V1196.14L828.553 1196.15V1195.44L827.846 1195.44V1194.73L827.139 1194.73V1194.02L826.431 1194.03V1193.31L825.724 1193.32V1192.61L825.017 1192.61V1191.9L824.31 1191.9V1191.19L823.603 1191.2V1190.49L822.896 1190.49V1189.78L822.189 1189.78V1189.07L821.482 1189.08V1188.36L820.775 1188.37V1187.66L820.068 1187.66V1186.95L819.361 1186.95V1186.24L818.654 1186.25V1185.54L817.947 1185.54V1184.83L817.239 1184.83V1184.12L816.532 1184.13V1183.42L815.825 1183.42V1182.71L815.118 1182.71V1182L814.411 1182V1181.29L813.704 1181.3V1180.59L812.997 1180.59V1179.88L812.29 1179.88V1179.17L811.583 1179.18V1178.46L810.876 1178.47V1177.76L810.169 1177.76V1177.05L809.462 1177.05V1176.34L808.755 1176.35V1175.64L808.047 1175.64V1174.93L807.34 1174.93V1174.22L806.633 1174.23V1173.52L805.926 1173.52V1172.81L805.219 1172.81V1172.1L804.512 1172.1V1171.39L803.804 1171.4V1170.69L803.097 1170.69V1169.98L802.39 1169.98V1169.27L801.683 1169.28V1168.57L800.976 1168.57V1167.86L800.269 1167.86V1167.15L799.562 1167.16V1166.44L798.854 1166.45V1165.74L798.147 1165.74V1165.03L797.44 1165.03V1164.32L796.733 1164.33V1163.62L796.026 1163.62V1162.91L795.319 1162.91V1162.2L794.612 1162.21V1161.49L793.905 1161.5V1160.79L793.198 1160.79V1160.08L792.491 1160.08V1159.37L791.784 1159.38V1158.67L791.077 1158.67V1157.96L790.37 1157.96L790.369 1157.25L789.662 1157.26V1156.54L788.955 1156.55V1155.84L788.248 1155.84V1155.13L787.541 1155.13V1154.42L786.834 1154.43V1153.72L786.127 1153.72V1153.01L785.42 1153.01V1152.3L784.713 1152.31V1151.59L784.006 1151.6V1150.89L783.299 1150.89V1150.18L782.592 1150.18V1149.47L781.885 1149.48V1148.77L781.178 1148.77V1148.06L780.47 1148.06V1147.35L779.762 1147.36V1146.65L779.055 1146.65V1145.94L778.348 1145.94V1145.23L777.641 1145.24V1144.52L776.934 1144.53V1143.82L776.227 1143.82V1143.11L775.52 1143.11V1142.4L774.813 1142.41V1141.7L774.106 1141.7V1140.99L773.399 1140.99V1140.28L772.692 1140.29V1139.57L771.985 1139.58V1138.87L771.277 1138.87V1138.16L770.57 1138.16V1137.45L769.863 1137.46V1136.75L769.156 1136.75V1136.04L768.449 1136.04V1135.33L767.742 1135.33V1134.62L767.035 1134.63V1133.92L766.328 1133.92V1133.21L765.621 1133.21V1132.5L764.914 1132.51V1131.8L764.207 1131.8V1131.09L763.5 1131.09V1130.38L762.793 1130.39V1129.67L762.085 1129.68V1128.97L761.378 1128.97V1128.26L760.671 1128.26V1127.55L759.964 1127.56V1126.85L759.257 1126.85V1126.14L758.55 1126.14V1125.43L757.843 1125.44V1124.72L757.136 1124.73V1124.02L756.428 1124.02V1123.31L755.721 1123.31V1122.6L755.014 1122.61V1121.9L754.307 1121.9V1121.19L753.6 1121.19V1120.48L752.892 1120.49V1119.78L752.185 1119.78V1119.07L751.478 1119.07V1118.36L750.771 1118.37V1117.65L750.064 1117.66V1116.95L749.357 1116.95V1116.24L748.65 1116.24V1115.53L747.943 1115.54V1114.83L747.236 1114.83V1114.12L746.529 1114.12V1113.41L745.822 1113.42V1112.7L745.115 1112.71V1112L744.407 1112V1111.29L743.7 1111.29V1110.58L742.993 1110.59V1109.88L742.286 1109.88V1109.17L741.579 1109.17V1108.46L740.872 1108.47V1107.75L740.165 1107.76V1107.05L739.458 1107.05V1106.34L738.751 1106.34V1105.63L738.044 1105.64V1104.93L737.337 1104.93V1104.22L736.63 1104.22V1103.51L735.923 1103.52V1102.8L735.215 1102.81V1102.1L734.508 1102.1V1101.39L733.801 1101.39V1100.68L733.094 1100.69V1099.98L732.387 1099.98V1099.27L731.679 1099.27V1098.56L730.972 1098.57V1097.85L730.265 1097.86V1097.15L729.558 1097.15V1096.44L728.851 1096.44V1095.73L728.144 1095.74V1095.03L727.437 1095.03V1094.32L726.73 1094.32V1093.61L726.022 1093.62V1092.91L725.315 1092.91V1092.2L724.608 1092.2V1091.49L723.901 1091.5V1090.78L723.194 1090.79V1090.08L722.487 1090.08V1089.37L721.78 1089.37V1088.66L721.073 1088.67V1087.96L720.366 1087.96V1087.25L719.659 1087.25V1086.54L718.952 1086.54V1085.83L718.245 1085.84V1085.13L717.538 1085.13V1084.42L716.83 1084.42V1083.71L716.123 1083.72V1083.01L715.416 1083.01V1082.3L714.709 1082.3V1081.59L714.002 1081.6V1080.96C713.964 1080.93 713.926 1080.91 713.887 1080.89L713.295 1080.89V1080.51C713.127 1080.4 712.961 1080.29 712.794 1080.18L712.588 1080.18V1080.04C709.144 1077.75 705.813 1075.06 702.613 1071.89C702.45 1071.73 702.29 1071.56 702.129 1071.4C702.055 1071.33 701.98 1071.26 701.906 1071.18C701.743 1071.02 701.583 1070.86 701.422 1070.69C701.348 1070.62 701.273 1070.55 701.199 1070.48C701.042 1070.32 700.889 1070.16 700.734 1070.01C700.654 1069.93 700.571 1069.85 700.491 1069.77C700.325 1069.6 700.163 1069.44 699.999 1069.27C699.928 1069.2 699.855 1069.13 699.784 1069.06C699.618 1068.9 699.456 1068.73 699.292 1068.56C699.221 1068.49 699.148 1068.43 699.077 1068.36C698.915 1068.19 698.756 1068.03 698.596 1067.87C698.521 1067.8 698.445 1067.72 698.37 1067.65C698.208 1067.49 698.049 1067.32 697.889 1067.16C697.814 1067.09 697.738 1067.02 697.663 1066.94C697.503 1066.78 697.348 1066.62 697.191 1066.46C697.113 1066.39 697.034 1066.31 696.956 1066.23C696.796 1066.08 696.641 1065.92 696.484 1065.76C696.406 1065.68 696.327 1065.6 696.249 1065.53C696.086 1065.37 695.928 1065.2 695.768 1065.04C695.693 1064.97 695.617 1064.89 695.542 1064.82C695.379 1064.66 695.221 1064.5 695.061 1064.33C694.986 1064.26 694.91 1064.19 694.835 1064.11C694.666 1063.95 694.501 1063.78 694.335 1063.61C694.266 1063.54 694.196 1063.47 694.128 1063.41C693.964 1063.24 693.804 1063.08 693.643 1062.92C693.569 1062.84 693.495 1062.77 693.421 1062.7C693.257 1062.54 693.097 1062.37 692.936 1062.21C692.862 1062.14 692.788 1062.06 692.714 1061.99C692.55 1061.83 692.39 1061.66 692.229 1061.5C692.155 1061.43 692.08 1061.36 692.007 1061.28C691.85 1061.13 691.696 1060.97 691.542 1060.81C691.461 1060.74 691.379 1060.66 691.299 1060.58C691.132 1060.41 690.97 1060.24 690.806 1060.08C690.735 1060.01 690.663 1059.94 690.592 1059.87C690.425 1059.71 690.263 1059.54 690.099 1059.37C690.028 1059.3 689.956 1059.23 689.885 1059.16C689.722 1059 689.564 1058.84 689.404 1058.68C689.329 1058.6 689.253 1058.53 689.178 1058.46C689.015 1058.29 688.857 1058.13 688.697 1057.97C688.622 1057.9 688.545 1057.82 688.47 1057.75C688.311 1057.59 688.156 1057.43 687.999 1057.27C687.921 1057.19 687.841 1057.12 687.763 1057.04C687.604 1056.88 687.449 1056.72 687.292 1056.56C687.214 1056.49 687.134 1056.41 687.056 1056.33C686.894 1056.17 686.736 1056.01 686.576 1055.85C686.501 1055.77 686.424 1055.7 686.349 1055.63C686.187 1055.47 686.029 1055.3 685.869 1055.14C685.794 1055.07 685.717 1055 685.642 1054.92C685.474 1054.75 685.309 1054.58 685.142 1054.42C685.074 1054.35 685.004 1054.28 684.935 1054.21C684.772 1054.05 684.612 1053.89 684.451 1053.72C684.377 1053.65 684.302 1053.58 684.228 1053.51C684.065 1053.34 683.905 1053.18 683.744 1053.02C683.67 1052.94 683.595 1052.87 683.521 1052.8C683.358 1052.64 683.198 1052.47 683.037 1052.31C682.963 1052.24 682.888 1052.16 682.814 1052.09C682.657 1051.94 682.504 1051.78 682.349 1051.62C682.269 1051.54 682.187 1051.46 682.106 1051.38C681.94 1051.22 681.778 1051.05 681.614 1050.89C681.543 1050.82 681.47 1050.75 681.399 1050.68C681.233 1050.51 681.071 1050.34 680.907 1050.18C680.836 1050.11 680.763 1050.04 680.692 1049.97C680.53 1049.81 680.372 1049.65 680.212 1049.48C680.137 1049.41 680.06 1049.34 679.985 1049.26C679.823 1049.1 679.665 1048.94 679.505 1048.78C679.43 1048.7 679.353 1048.63 679.278 1048.56C679.119 1048.4 678.963 1048.24 678.806 1048.08C678.728 1048 678.649 1047.93 678.571 1047.85C678.409 1047.69 678.25 1047.52 678.091 1047.36C678.015 1047.29 677.939 1047.22 677.864 1047.14C677.702 1046.98 677.543 1046.82 677.384 1046.66C677.308 1046.58 677.232 1046.51 677.157 1046.44C676.988 1046.27 676.823 1046.1 676.657 1045.93C676.588 1045.86 676.519 1045.8 676.45 1045.73C676.286 1045.57 676.127 1045.4 675.966 1045.24C675.892 1045.17 675.817 1045.09 675.743 1045.02C675.579 1044.86 675.42 1044.69 675.259 1044.53C675.185 1044.46 675.11 1044.39 675.036 1044.31C674.872 1044.15 674.713 1043.99 674.552 1043.82C674.478 1043.75 674.403 1043.68 674.329 1043.61C674.165 1043.44 674.006 1043.28 673.845 1043.12C673.771 1043.04 673.696 1042.97 673.622 1042.9C673.465 1042.74 673.312 1042.59 673.157 1042.43C673.076 1042.35 672.994 1042.27 672.914 1042.19C672.748 1042.03 672.585 1041.86 672.422 1041.69C672.351 1041.62 672.278 1041.56 672.207 1041.49C672.041 1041.32 671.878 1041.15 671.715 1040.99C671.643 1040.92 671.571 1040.85 671.5 1040.78C671.337 1040.62 671.179 1040.45 671.019 1040.29C670.944 1040.22 670.868 1040.15 670.793 1040.07C670.63 1039.91 670.472 1039.75 670.312 1039.58C670.237 1039.51 670.161 1039.44 670.086 1039.36C669.926 1039.21 669.771 1039.04 669.614 1038.89C669.536 1038.81 669.457 1038.73 669.379 1038.66C669.216 1038.5 669.058 1038.33 668.898 1038.17C668.823 1038.1 668.747 1038.02 668.672 1037.95C668.509 1037.79 668.351 1037.63 668.191 1037.46C668.116 1037.39 668.04 1037.32 667.965 1037.24C667.796 1037.08 667.631 1036.91 667.465 1036.74C667.396 1036.67 667.326 1036.6 667.258 1036.54C667.094 1036.37 666.934 1036.21 666.773 1036.05C666.699 1035.97 666.624 1035.9 666.551 1035.83C666.387 1035.67 666.227 1035.5 666.066 1035.34C665.992 1035.27 665.917 1035.19 665.844 1035.12C665.68 1034.96 665.52 1034.79 665.359 1034.63C665.285 1034.56 665.21 1034.49 665.137 1034.41C664.973 1034.25 664.813 1034.09 664.652 1033.92C664.578 1033.85 664.503 1033.78 664.429 1033.71C664.273 1033.55 664.119 1033.39 663.965 1033.24C663.884 1033.16 663.802 1033.08 663.721 1033C663.555 1032.84 663.393 1032.67 663.229 1032.5C663.158 1032.43 663.085 1032.36 663.014 1032.29C662.848 1032.13 662.686 1031.96 662.522 1031.79C662.451 1031.73 662.378 1031.66 662.307 1031.59C662.145 1031.42 661.987 1031.26 661.827 1031.1C661.752 1031.03 661.675 1030.95 661.6 1030.88C661.438 1030.72 661.28 1030.55 661.12 1030.39C661.045 1030.32 660.968 1030.25 660.893 1030.17C660.734 1030.01 660.579 1029.85 660.422 1029.69C660.344 1029.62 660.264 1029.54 660.186 1029.46C660.024 1029.3 659.866 1029.14 659.706 1028.98C659.631 1028.9 659.554 1028.83 659.479 1028.76C659.317 1028.6 659.159 1028.43 658.999 1028.27C658.924 1028.2 658.847 1028.13 658.772 1028.05C658.603 1027.88 658.438 1027.71 658.272 1027.54C658.204 1027.48 658.134 1027.41 658.065 1027.34C657.902 1027.18 657.742 1027.02 657.581 1026.85C657.507 1026.78 657.432 1026.71 657.358 1026.64C657.195 1026.47 657.035 1026.31 656.874 1026.15C656.8 1026.07 656.725 1026 656.651 1025.93C656.488 1025.77 656.328 1025.6 656.167 1025.44C656.093 1025.37 656.018 1025.29 655.944 1025.22C655.781 1025.06 655.621 1024.89 655.46 1024.73C655.386 1024.66 655.311 1024.59 655.237 1024.51C655.08 1024.36 654.927 1024.2 654.772 1024.04C654.692 1023.97 654.61 1023.89 654.529 1023.81C654.363 1023.64 654.201 1023.47 654.037 1023.31C653.966 1023.24 653.893 1023.17 653.822 1023.1C653.656 1022.94 653.494 1022.77 653.33 1022.6C653.259 1022.53 653.186 1022.46 653.115 1022.39C652.953 1022.23 652.794 1022.07 652.635 1021.91C652.559 1021.83 652.483 1021.76 652.408 1021.69C652.246 1021.53 652.087 1021.36 651.928 1021.2C651.852 1021.13 651.776 1021.05 651.701 1020.98C651.542 1020.82 651.386 1020.66 651.229 1020.5C651.151 1020.43 651.072 1020.35 650.994 1020.27C650.832 1020.11 650.673 1019.95 650.513 1019.79C650.438 1019.71 650.362 1019.64 650.287 1019.57C650.125 1019.4 649.966 1019.24 649.806 1019.08C649.731 1019.01 649.655 1018.93 649.58 1018.86C649.411 1018.69 649.246 1018.52 649.08 1018.35C649.011 1018.29 648.941 1018.22 648.873 1018.15C648.709 1017.99 648.549 1017.82 648.388 1017.66C648.314 1017.59 648.24 1017.52 648.166 1017.44C648.002 1017.28 647.842 1017.12 647.681 1016.95C647.607 1016.88 647.533 1016.81 647.459 1016.74C647.295 1016.57 647.135 1016.41 646.974 1016.25C646.9 1016.17 646.826 1016.1 646.752 1016.03C646.588 1015.87 646.428 1015.7 646.267 1015.54C646.193 1015.47 646.119 1015.4 646.045 1015.32C645.888 1015.17 645.734 1015.01 645.58 1014.85C645.499 1014.77 645.417 1014.69 645.337 1014.62C645.17 1014.45 645.008 1014.28 644.845 1014.12C644.773 1014.05 644.701 1013.98 644.63 1013.91C644.463 1013.74 644.301 1013.58 644.137 1013.41C644.066 1013.34 643.994 1013.27 643.923 1013.2C643.76 1013.04 643.602 1012.88 643.442 1012.71C643.367 1012.64 643.291 1012.57 643.216 1012.49C643.056 1012.34 642.901 1012.17 642.744 1012.02C642.666 1011.94 642.587 1011.86 642.509 1011.79C642.349 1011.63 642.194 1011.47 642.037 1011.31C641.959 1011.23 641.879 1011.16 641.802 1011.08C641.639 1010.92 641.481 1010.75 641.321 1010.59C641.246 1010.52 641.169 1010.45 641.095 1010.37C640.932 1010.21 640.774 1010.05 640.614 1009.89C640.539 1009.81 640.462 1009.74 640.387 1009.67C640.219 1009.5 640.054 1009.33 639.887 1009.16C639.819 1009.09 639.749 1009.03 639.68 1008.96C639.517 1008.8 639.357 1008.63 639.196 1008.47C639.122 1008.4 639.047 1008.32 638.973 1008.25C638.81 1008.09 638.65 1007.92 638.489 1007.76C638.415 1007.69 638.34 1007.62 638.266 1007.54C638.103 1007.38 637.943 1007.22 637.782 1007.05C637.708 1006.98 637.633 1006.91 637.559 1006.84C637.396 1006.67 637.236 1006.51 637.075 1006.35C637.001 1006.28 636.926 1006.2 636.852 1006.13C636.695 1005.97 636.542 1005.82 636.387 1005.66C636.307 1005.58 636.225 1005.5 636.144 1005.42C635.978 1005.26 635.816 1005.09 635.652 1004.92C635.581 1004.85 635.508 1004.79 635.437 1004.72C635.271 1004.55 635.109 1004.38 634.945 1004.22C634.874 1004.15 634.801 1004.08 634.73 1004.01C634.568 1003.85 634.41 1003.68 634.25 1003.52C634.175 1003.45 634.098 1003.38 634.023 1003.3C633.864 1003.14 633.709 1002.98 633.552 1002.82C633.473 1002.75 633.394 1002.67 633.316 1002.59C633.157 1002.44 633.002 1002.28 632.845 1002.12C632.766 1002.04 632.687 1001.96 632.609 1001.89C632.447 1001.73 632.289 1001.56 632.129 1001.4C632.054 1001.33 631.977 1001.25 631.902 1001.18C631.74 1001.02 631.581 1000.86 631.422 1000.69C631.347 1000.62 631.27 1000.55 631.195 1000.47C631.026 1000.31 630.861 1000.14 630.695 999.968C630.626 999.9 630.557 999.833 630.488 999.766C630.325 999.603 630.165 999.439 630.004 999.276C629.93 999.204 629.855 999.132 629.781 999.059C629.618 998.896 629.458 998.732 629.297 998.569C629.223 998.497 629.148 998.425 629.074 998.352C628.91 998.189 628.751 998.025 628.59 997.862C628.516 997.79 628.441 997.718 628.367 997.645C628.21 997.489 628.057 997.331 627.902 997.175C627.822 997.096 627.739 997.017 627.659 996.938C627.493 996.773 627.331 996.605 627.167 996.439C627.096 996.37 627.023 996.301 626.952 996.23C626.786 996.065 626.623 995.898 626.46 995.732C626.389 995.663 626.316 995.594 626.245 995.523C626.079 995.358 625.916 995.191 625.753 995.025C625.682 994.956 625.609 994.887 625.538 994.816C625.376 994.655 625.217 994.491 625.057 994.33C624.982 994.256 624.906 994.184 624.831 994.109C624.671 993.951 624.516 993.79 624.359 993.632C624.281 993.555 624.202 993.48 624.124 993.402C623.964 993.244 623.809 993.083 623.652 992.925C623.574 992.848 623.495 992.773 623.417 992.695C623.254 992.534 623.096 992.37 622.936 992.209C622.861 992.135 622.785 992.063 622.71 991.988C622.547 991.827 622.389 991.663 622.229 991.502C622.154 991.428 622.078 991.356 622.003 991.281C621.834 991.114 621.669 990.943 621.503 990.775C621.434 990.708 621.364 990.641 621.296 990.573C621.132 990.411 620.972 990.246 620.811 990.084C620.737 990.011 620.662 989.939 620.589 989.866C620.425 989.704 620.265 989.539 620.104 989.377C620.03 989.304 619.955 989.232 619.882 989.159C619.718 988.997 619.558 988.832 619.397 988.67C619.323 988.597 619.248 988.525 619.175 988.452C619.018 988.297 618.864 988.138 618.71 987.982C618.629 987.903 618.547 987.825 618.467 987.745C618.3 987.58 618.138 987.412 617.974 987.247C617.903 987.177 617.831 987.108 617.76 987.038C617.593 986.873 617.431 986.705 617.267 986.54C617.196 986.47 617.124 986.401 617.053 986.331C616.886 986.166 616.724 985.998 616.56 985.833C616.489 985.763 616.417 985.694 616.345 985.624C616.183 985.463 616.025 985.299 615.865 985.138C615.79 985.064 615.713 984.991 615.638 984.917C615.479 984.759 615.324 984.598 615.167 984.439C615.089 984.363 615.009 984.287 614.931 984.21C614.772 984.052 614.617 983.891 614.46 983.732C614.382 983.656 614.302 983.58 614.224 983.503C614.062 983.342 613.904 983.178 613.744 983.017C613.669 982.943 613.592 982.87 613.517 982.796C613.355 982.635 613.197 982.471 613.037 982.31C612.962 982.236 612.885 982.163 612.81 982.089C612.641 981.921 612.477 981.751 612.31 981.583C612.242 981.516 612.172 981.449 612.103 981.381C611.94 981.219 611.78 981.054 611.619 980.892C611.545 980.819 611.47 980.747 611.396 980.674C611.233 980.512 611.073 980.347 610.912 980.185C610.838 980.112 610.763 980.04 610.689 979.967C610.526 979.805 610.366 979.64 610.205 979.478C610.131 979.405 610.056 979.333 609.982 979.26C609.825 979.104 609.672 978.946 609.517 978.79C609.437 978.711 609.355 978.632 609.274 978.553C609.108 978.388 608.946 978.22 608.782 978.055C608.711 977.985 608.638 977.916 608.567 977.846C608.401 977.681 608.239 977.513 608.075 977.348C608.004 977.278 607.931 977.209 607.86 977.139C607.698 976.978 607.54 976.814 607.38 976.652C607.305 976.579 607.228 976.506 607.153 976.432C606.991 976.271 606.833 976.107 606.673 975.945C606.598 975.872 606.521 975.799 606.446 975.725C606.287 975.566 606.131 975.405 605.974 975.247C605.896 975.17 605.817 975.095 605.739 975.018C605.58 974.859 605.424 974.698 605.267 974.54C605.189 974.463 605.11 974.388 605.032 974.311C604.87 974.149 604.711 973.985 604.552 973.824C604.476 973.75 604.4 973.678 604.325 973.604C604.163 973.443 604.004 973.278 603.845 973.117C603.769 973.043 603.693 972.971 603.618 972.896C603.449 972.729 603.284 972.558 603.118 972.391C603.049 972.323 602.979 972.256 602.911 972.188C602.747 972.026 602.588 971.862 602.427 971.699C602.353 971.627 602.278 971.555 602.204 971.481C602.04 971.319 601.881 971.155 601.72 970.992C601.646 970.92 601.571 970.848 601.497 970.774C601.333 970.612 601.173 970.448 601.012 970.285C600.939 970.213 600.864 970.141 600.79 970.067C600.633 969.912 600.48 969.753 600.325 969.598C600.244 969.519 600.162 969.44 600.082 969.36C599.916 969.195 599.753 969.027 599.59 968.862C599.519 968.792 599.446 968.724 599.375 968.653C599.208 968.488 599.046 968.32 598.883 968.155C598.811 968.085 598.739 968.017 598.668 967.946C598.505 967.785 598.347 967.621 598.187 967.46C598.112 967.386 598.036 967.313 597.961 967.239C597.798 967.078 597.64 966.914 597.48 966.753C597.405 966.679 597.329 966.607 597.254 966.532C597.094 966.374 596.939 966.213 596.782 966.055C596.704 965.978 596.625 965.902 596.547 965.825C596.387 965.667 596.232 965.506 596.075 965.348C595.997 965.271 595.918 965.195 595.84 965.118C595.677 964.957 595.519 964.793 595.359 964.632C595.284 964.558 595.208 964.485 595.133 964.411C594.97 964.25 594.812 964.086 594.652 963.925C594.577 963.851 594.501 963.778 594.426 963.704C594.263 963.543 594.105 963.379 593.945 963.218C593.87 963.144 593.794 963.071 593.719 962.997C593.55 962.83 593.385 962.659 593.219 962.491C593.15 962.424 593.08 962.357 593.012 962.289C592.848 962.127 592.688 961.962 592.527 961.8C592.453 961.727 592.378 961.655 592.304 961.582C592.141 961.42 591.981 961.255 591.82 961.093C591.746 961.02 591.671 960.948 591.597 960.875C591.441 960.719 591.287 960.561 591.133 960.405C591.052 960.326 590.97 960.248 590.889 960.168C590.723 960.003 590.561 959.835 590.397 959.67C590.326 959.6 590.253 959.531 590.182 959.461C590.016 959.296 589.854 959.128 589.69 958.963C589.619 958.893 589.546 958.824 589.475 958.754C589.313 958.593 589.155 958.429 588.995 958.268C588.92 958.194 588.843 958.121 588.768 958.047C588.606 957.886 588.448 957.722 588.288 957.561C588.213 957.487 588.136 957.414 588.061 957.34C587.902 957.182 587.747 957.021 587.59 956.862C587.512 956.786 587.432 956.71 587.354 956.633C587.195 956.475 587.04 956.314 586.883 956.155C586.805 956.079 586.725 956.003 586.647 955.926C586.485 955.765 586.327 955.601 586.167 955.439C586.092 955.366 586.015 955.293 585.94 955.219C585.778 955.058 585.62 954.894 585.46 954.732C585.385 954.659 585.308 954.586 585.233 954.512C585.071 954.351 584.913 954.187 584.753 954.025C584.678 953.952 584.601 953.879 584.526 953.805C584.357 953.637 584.192 953.466 584.026 953.299C583.957 953.231 583.888 953.165 583.819 953.097C583.656 952.934 583.496 952.77 583.335 952.607C583.261 952.535 583.186 952.463 583.112 952.39C582.949 952.227 582.789 952.063 582.628 951.9C582.554 951.828 582.479 951.756 582.405 951.683C582.248 951.527 582.095 951.369 581.94 951.213C581.86 951.134 581.778 951.055 581.697 950.976C581.531 950.811 581.369 950.643 581.205 950.478C581.134 950.408 581.061 950.339 580.99 950.269C580.824 950.104 580.662 949.936 580.498 949.771C580.427 949.701 580.354 949.632 580.283 949.562C580.121 949.4 579.962 949.236 579.803 949.075C579.727 949.001 579.651 948.929 579.576 948.854C579.414 948.693 579.255 948.529 579.095 948.368C579.02 948.294 578.944 948.222 578.869 948.147C578.71 947.989 578.554 947.828 578.397 947.67C578.319 947.593 578.24 947.518 578.162 947.44C578.003 947.282 577.847 947.121 577.69 946.963C577.612 946.886 577.533 946.811 577.455 946.733C577.293 946.572 577.134 946.408 576.974 946.247C576.899 946.173 576.823 946.101 576.748 946.026C576.586 945.865 576.427 945.701 576.267 945.54C576.192 945.466 576.116 945.394 576.041 945.319C575.879 945.158 575.72 944.994 575.56 944.833C575.485 944.759 575.409 944.687 575.334 944.612C575.165 944.445 575 944.274 574.834 944.106C574.765 944.039 574.695 943.972 574.627 943.904C574.463 943.742 574.303 943.577 574.142 943.415C574.068 943.342 573.994 943.27 573.92 943.197C573.756 943.035 573.596 942.87 573.435 942.708C573.361 942.635 573.287 942.563 573.213 942.49C573.056 942.335 572.902 942.176 572.748 942.021C572.667 941.941 572.585 941.863 572.505 941.783C572.338 941.618 572.176 941.45 572.012 941.285C571.941 941.215 571.869 941.146 571.798 941.076C571.631 940.911 571.469 940.743 571.305 940.578C571.234 940.508 571.162 940.439 571.091 940.369C570.928 940.208 570.77 940.044 570.61 939.883C570.535 939.809 570.459 939.736 570.384 939.662C570.221 939.501 570.063 939.337 569.903 939.176C569.828 939.102 569.752 939.029 569.677 938.955C569.517 938.797 569.362 938.636 569.205 938.478C569.127 938.401 569.047 938.325 568.97 938.248C568.81 938.09 568.655 937.929 568.498 937.771C568.42 937.694 568.34 937.618 568.262 937.541C568.1 937.38 567.942 937.216 567.782 937.055C567.707 936.981 567.63 936.908 567.555 936.834C567.393 936.673 567.235 936.509 567.075 936.348C567 936.274 566.923 936.201 566.848 936.127C566.686 935.966 566.528 935.802 566.368 935.641C566.293 935.567 566.216 935.494 566.141 935.42C565.973 935.252 565.808 935.082 565.641 934.914C565.573 934.847 565.503 934.78 565.434 934.712C565.271 934.55 565.111 934.385 564.95 934.223C564.876 934.15 564.801 934.078 564.727 934.005C564.564 933.843 564.404 933.678 564.243 933.516C564.169 933.443 564.094 933.371 564.02 933.298C563.863 933.142 563.71 932.984 563.555 932.828C563.475 932.749 563.393 932.671 563.312 932.591C563.146 932.426 562.984 932.258 562.82 932.093C562.749 932.023 562.676 931.954 562.605 931.884C562.439 931.719 562.277 931.551 562.113 931.386C562.042 931.316 561.969 931.247 561.898 931.177C561.736 931.016 561.578 930.852 561.418 930.69C561.343 930.617 561.266 930.544 561.191 930.47C561.029 930.309 560.871 930.145 560.711 929.983C560.636 929.91 560.559 929.837 560.484 929.763C560.325 929.605 560.169 929.443 560.012 929.285C559.934 929.208 559.855 929.133 559.777 929.056C559.618 928.898 559.462 928.736 559.305 928.578C559.227 928.501 559.148 928.426 559.07 928.349C558.908 928.188 558.749 928.023 558.59 927.862C558.514 927.789 558.438 927.716 558.363 927.642C558.201 927.481 558.042 927.316 557.883 927.155C557.807 927.081 557.731 927.009 557.656 926.935C557.494 926.774 557.335 926.609 557.176 926.448C557.1 926.374 557.024 926.302 556.949 926.228C556.78 926.06 556.615 925.889 556.449 925.722C556.38 925.654 556.311 925.587 556.242 925.52C556.078 925.357 555.919 925.193 555.758 925.03C555.684 924.958 555.609 924.886 555.535 924.812C555.371 924.65 555.212 924.486 555.051 924.323C554.977 924.251 554.902 924.179 554.828 924.105C554.671 923.95 554.518 923.792 554.363 923.636C554.282 923.557 554.2 923.478 554.12 923.398C553.954 923.233 553.791 923.066 553.628 922.9C553.557 922.831 553.484 922.762 553.413 922.691C553.247 922.526 553.084 922.359 552.921 922.193C552.85 922.123 552.777 922.055 552.706 921.984C552.543 921.823 552.385 921.659 552.225 921.498C552.15 921.424 552.074 921.352 551.999 921.277C551.836 921.116 551.678 920.952 551.518 920.791C551.443 920.717 551.367 920.645 551.292 920.57C551.132 920.412 550.977 920.251 550.82 920.093C550.742 920.016 550.663 919.94 550.585 919.863C550.425 919.705 550.27 919.544 550.113 919.386C550.035 919.309 549.956 919.233 549.878 919.156C549.715 918.995 549.557 918.831 549.397 918.67C549.322 918.596 549.246 918.523 549.171 918.449C549.008 918.288 548.85 918.124 548.69 917.963C548.615 917.889 548.539 917.816 548.464 917.742C548.301 917.581 548.143 917.417 547.983 917.256C547.908 917.182 547.832 917.109 547.757 917.035C547.588 916.868 547.423 916.697 547.257 916.529C547.188 916.462 547.118 916.395 547.05 916.327C546.886 916.165 546.726 916 546.565 915.838C546.491 915.765 546.416 915.693 546.343 915.62C546.179 915.458 546.019 915.293 545.858 915.131C545.784 915.058 545.709 914.986 545.636 914.913C545.479 914.757 545.325 914.599 545.171 914.443C545.09 914.364 545.008 914.286 544.928 914.206C544.761 914.041 544.599 913.873 544.435 913.708C544.364 913.638 544.291 913.569 544.22 913.499C544.054 913.334 543.892 913.166 543.728 913.001C543.657 912.931 543.584 912.862 543.513 912.792C543.351 912.631 543.193 912.467 543.033 912.306C542.958 912.232 542.881 912.159 542.806 912.085C542.644 911.924 542.486 911.76 542.326 911.599C542.251 911.525 542.174 911.452 542.099 911.378C541.94 911.22 541.785 911.059 541.628 910.9C541.55 910.824 541.47 910.748 541.392 910.671C541.233 910.513 541.078 910.352 540.921 910.193C540.843 910.117 540.763 910.041 540.685 909.964C540.523 909.803 540.365 909.639 540.205 909.478C540.13 909.404 540.053 909.331 539.978 909.257C539.816 909.096 539.658 908.932 539.498 908.771C539.423 908.697 539.346 908.624 539.271 908.55C539.109 908.389 538.951 908.225 538.791 908.063C538.716 907.99 538.639 907.917 538.564 907.843C538.395 907.675 538.23 907.505 538.064 907.337C537.996 907.269 537.926 907.203 537.857 907.135C537.694 906.973 537.534 906.808 537.373 906.646C537.299 906.573 537.224 906.501 537.15 906.428C536.987 906.266 536.827 906.101 536.666 905.938C536.592 905.866 536.517 905.794 536.443 905.721C536.286 905.565 536.133 905.407 535.978 905.251C535.898 905.172 535.816 905.093 535.735 905.014C535.569 904.849 535.407 904.681 535.243 904.516C535.172 904.446 535.099 904.377 535.028 904.307C534.862 904.142 534.7 903.974 534.536 903.809C534.465 903.739 534.392 903.67 534.321 903.6C534.159 903.439 534 903.275 533.841 903.113C533.766 903.04 533.689 902.967 533.614 902.893C533.452 902.732 533.293 902.568 533.134 902.406C533.058 902.333 532.982 902.26 532.907 902.186C532.748 902.027 532.592 901.866 532.435 901.708C532.357 901.631 532.278 901.556 532.2 901.479C532.038 901.317 531.879 901.153 531.72 900.992C531.644 900.918 531.568 900.846 531.493 900.771C531.331 900.61 531.172 900.446 531.012 900.285C530.937 900.211 530.861 900.139 530.786 900.064C530.624 899.903 530.465 899.739 530.305 899.578C530.23 899.504 530.154 899.432 530.079 899.357C529.917 899.196 529.758 899.032 529.598 898.871C529.523 898.797 529.447 898.725 529.372 898.65C529.203 898.483 529.038 898.312 528.872 898.145C528.803 898.077 528.733 898.01 528.665 897.942C528.501 897.78 528.341 897.615 528.18 897.453C528.106 897.38 528.032 897.309 527.958 897.235C527.794 897.073 527.634 896.908 527.473 896.746C527.399 896.673 527.325 896.602 527.251 896.528C527.094 896.373 526.941 896.214 526.786 896.059C526.705 895.979 526.623 895.901 526.543 895.821C526.376 895.656 526.214 895.488 526.051 895.323C525.979 895.253 525.907 895.185 525.836 895.114C525.669 894.949 525.507 894.781 525.344 894.616C525.272 894.546 525.2 894.478 525.129 894.407C524.966 894.246 524.808 894.082 524.648 893.921C524.573 893.847 524.497 893.774 524.422 893.7C524.259 893.539 524.101 893.375 523.941 893.214C523.866 893.14 523.79 893.067 523.715 892.993C523.555 892.835 523.4 892.674 523.243 892.516C523.165 892.439 523.086 892.363 523.008 892.286C522.845 892.125 522.687 891.961 522.527 891.8C522.452 891.726 522.376 891.653 522.301 891.579C522.138 891.418 521.98 891.254 521.82 891.093C521.745 891.019 521.669 890.946 521.594 890.872C521.431 890.711 521.273 890.547 521.113 890.386C521.038 890.312 520.961 890.239 520.887 890.165C520.724 890.004 520.566 889.84 520.406 889.679C520.331 889.605 520.254 889.532 520.179 889.458C520.011 889.291 519.846 889.12 519.679 888.952C519.611 888.885 519.541 888.818 519.472 888.75C519.309 888.588 519.149 888.423 518.988 888.261C518.914 888.188 518.839 888.116 518.765 888.043C518.602 887.881 518.442 887.716 518.281 887.554C518.207 887.481 518.132 887.409 518.058 887.336C517.901 887.18 517.748 887.022 517.594 886.866C517.513 886.787 517.431 886.709 517.35 886.629C517.184 886.464 517.022 886.296 516.858 886.131C516.787 886.061 516.714 885.992 516.643 885.922C516.477 885.757 516.315 885.589 516.151 885.424C516.08 885.354 516.007 885.285 515.936 885.215C515.774 885.054 515.616 884.89 515.456 884.729C515.381 884.655 515.304 884.582 515.229 884.508C515.067 884.347 514.909 884.183 514.749 884.021C514.674 883.948 514.597 883.875 514.522 883.801C514.363 883.643 514.208 883.482 514.051 883.323C513.972 883.247 513.893 883.171 513.815 883.094C513.653 882.933 513.495 882.769 513.335 882.607C513.26 882.534 513.183 882.461 513.108 882.387C512.946 882.226 512.788 882.062 512.628 881.9C512.553 881.827 512.476 881.754 512.401 881.68C512.239 881.519 512.081 881.354 511.921 881.193C511.846 881.12 511.769 881.047 511.694 880.973C511.532 880.812 511.373 880.647 511.214 880.486C511.139 880.413 511.062 880.34 510.987 880.266C510.818 880.098 510.653 879.927 510.487 879.76C510.418 879.692 510.349 879.626 510.28 879.558C510.117 879.395 509.957 879.231 509.796 879.068C509.722 878.996 509.647 878.924 509.573 878.851C509.41 878.688 509.25 878.524 509.089 878.361C509.015 878.289 508.94 878.217 508.866 878.144C508.709 877.988 508.556 877.83 508.401 877.674C508.321 877.595 508.238 877.516 508.158 877.437C507.992 877.272 507.83 877.104 507.666 876.938C507.595 876.869 507.522 876.8 507.451 876.729C507.285 876.565 507.122 876.397 506.959 876.231C506.888 876.162 506.815 876.093 506.744 876.022C506.582 875.861 506.423 875.697 506.263 875.536C506.188 875.462 506.112 875.39 506.037 875.315C505.875 875.154 505.716 874.99 505.556 874.829C505.481 874.755 505.405 874.683 505.33 874.608C505.17 874.45 505.015 874.289 504.858 874.131C504.78 874.054 504.701 873.979 504.623 873.901C504.461 873.74 504.302 873.576 504.142 873.415C504.067 873.341 503.991 873.269 503.916 873.194C503.754 873.033 503.595 872.869 503.435 872.708C503.36 872.634 503.284 872.562 503.209 872.487C503.047 872.326 502.888 872.162 502.728 872.001C502.653 871.927 502.577 871.855 502.502 871.78C502.333 871.613 502.168 871.442 502.002 871.274C501.933 871.207 501.863 871.14 501.795 871.072C501.631 870.91 501.471 870.745 501.31 870.583C501.236 870.51 501.162 870.438 501.088 870.365C500.924 870.203 500.764 870.038 500.603 869.876C500.529 869.803 500.455 869.731 500.381 869.658C500.217 869.496 500.057 869.331 499.896 869.169C499.822 869.096 499.747 869.024 499.674 868.951C499.517 868.796 499.363 868.637 499.209 868.481C499.128 868.402 499.046 868.324 498.966 868.244C498.799 868.079 498.637 867.911 498.473 867.746C498.402 867.676 498.33 867.607 498.259 867.537C498.092 867.372 497.93 867.204 497.766 867.039C497.695 866.969 497.623 866.9 497.552 866.83C497.389 866.669 497.231 866.505 497.071 866.344C496.996 866.27 496.919 866.197 496.845 866.123C496.685 865.965 496.53 865.804 496.373 865.646C496.295 865.569 496.215 865.493 496.137 865.416C495.978 865.258 495.823 865.097 495.666 864.938C495.588 864.862 495.508 864.786 495.43 864.709C495.268 864.548 495.11 864.384 494.95 864.223C494.875 864.149 494.798 864.076 494.723 864.002C494.561 863.841 494.403 863.677 494.243 863.516C494.168 863.442 494.091 863.369 494.016 863.295C493.854 863.134 493.696 862.97 493.536 862.809C493.461 862.735 493.384 862.662 493.309 862.588C493.141 862.42 492.976 862.25 492.809 862.082C492.741 862.015 492.671 861.948 492.602 861.88C492.439 861.718 492.279 861.553 492.118 861.391C492.044 861.318 491.969 861.246 491.895 861.173C491.732 861.011 491.572 860.846 491.411 860.684C491.337 860.611 491.262 860.539 491.188 860.466C491.025 860.304 490.865 860.139 490.704 859.977C490.63 859.904 490.555 859.832 490.481 859.759C490.324 859.603 490.171 859.445 490.016 859.289C489.936 859.21 489.854 859.131 489.773 859.052C489.607 858.887 489.445 858.719 489.281 858.554C489.21 858.484 489.137 858.415 489.066 858.345C488.904 858.184 488.746 858.02 488.586 857.858C488.511 857.785 488.434 857.712 488.359 857.638C488.197 857.477 488.039 857.313 487.879 857.151C487.804 857.078 487.727 857.005 487.652 856.931C487.493 856.773 487.337 856.611 487.18 856.453C487.102 856.376 487.023 856.301 486.945 856.224C486.786 856.065 486.63 855.904 486.473 855.746C486.395 855.669 486.316 855.594 486.238 855.517C486.076 855.356 485.917 855.191 485.758 855.03C485.682 854.956 485.606 854.884 485.531 854.81C485.369 854.649 485.21 854.484 485.051 854.323C484.975 854.249 484.899 854.177 484.824 854.103C484.662 853.942 484.503 853.777 484.344 853.616C484.268 853.542 484.192 853.47 484.117 853.396C483.948 853.228 483.783 853.057 483.617 852.89C483.548 852.822 483.479 852.755 483.41 852.688C483.246 852.525 483.087 852.361 482.926 852.198C482.852 852.126 482.777 852.054 482.703 851.98C482.539 851.818 482.38 851.654 482.219 851.491C482.145 851.419 482.07 851.347 481.996 851.273C481.839 851.118 481.686 850.96 481.531 850.804C481.45 850.725 481.368 850.646 481.288 850.566C481.122 850.401 480.959 850.234 480.796 850.068C480.725 849.999 480.652 849.93 480.581 849.859C480.415 849.694 480.252 849.526 480.089 849.361C480.018 849.291 479.945 849.223 479.874 849.152C479.711 848.991 479.553 848.827 479.393 848.666C479.318 848.592 479.242 848.52 479.167 848.445C479.004 848.284 478.846 848.12 478.686 847.959C478.611 847.885 478.535 847.813 478.46 847.738C478.3 847.58 478.145 847.419 477.988 847.261C477.91 847.184 477.831 847.108 477.753 847.031C477.593 846.873 477.438 846.712 477.281 846.554C477.203 846.477 477.124 846.401 477.046 846.324C476.883 846.163 476.725 845.999 476.565 845.838C476.49 845.764 476.414 845.691 476.339 845.617C476.176 845.456 476.018 845.292 475.858 845.131C475.783 845.057 475.707 844.984 475.632 844.91C475.469 844.749 475.311 844.585 475.151 844.424C475.076 844.35 475 844.277 474.925 844.203C474.756 844.036 474.591 843.865 474.425 843.697C474.356 843.63 474.286 843.563 474.218 843.495C474.054 843.333 473.894 843.168 473.733 843.006C473.659 842.933 473.584 842.861 473.511 842.788C473.347 842.626 473.187 842.461 473.026 842.299C472.952 842.226 472.877 842.154 472.804 842.081C472.647 841.925 472.493 841.767 472.339 841.611C472.258 841.532 472.176 841.454 472.096 841.374C471.929 841.209 471.767 841.041 471.603 840.876C471.532 840.806 471.459 840.737 471.388 840.667C471.222 840.502 471.06 840.334 470.896 840.169C470.825 840.099 470.752 840.03 470.681 839.96C470.519 839.799 470.361 839.635 470.201 839.474C470.126 839.4 470.049 839.327 469.974 839.253C469.812 839.092 469.654 838.928 469.494 838.767C469.419 838.693 469.342 838.62 469.267 838.546C469.108 838.388 468.953 838.227 468.796 838.068C468.718 837.992 468.638 837.916 468.56 837.839C468.401 837.681 468.246 837.52 468.089 837.361C468.011 837.285 467.931 837.209 467.853 837.132C467.691 836.971 467.533 836.807 467.373 836.646C467.298 836.572 467.221 836.499 467.146 836.425C466.984 836.264 466.826 836.1 466.666 835.938C466.591 835.865 466.514 835.792 466.439 835.718C466.277 835.557 466.119 835.393 465.959 835.231C465.884 835.158 465.807 835.085 465.732 835.011C465.563 834.843 465.398 834.673 465.232 834.505C465.164 834.437 465.094 834.371 465.025 834.303C464.862 834.141 464.702 833.976 464.541 833.813C464.467 833.741 464.392 833.669 464.318 833.596C464.155 833.433 463.995 833.269 463.834 833.106C463.76 833.034 463.685 832.962 463.611 832.889C463.454 832.733 463.301 832.575 463.146 832.419C463.066 832.34 462.984 832.261 462.903 832.182C462.741 832.021 462.582 831.857 462.423 831.696C462.347 831.622 462.271 831.549 462.196 831.475C462.03 831.31 461.868 831.142 461.704 830.977C461.633 830.907 461.56 830.838 461.489 830.768C461.327 830.607 461.168 830.443 461.009 830.281C460.934 830.208 460.857 830.135 460.782 830.061C460.62 829.899 460.461 829.735 460.302 829.574C460.226 829.5 460.15 829.428 460.075 829.354C459.916 829.195 459.76 829.034 459.603 828.876C459.525 828.799 459.446 828.724 459.368 828.646C459.209 828.488 459.053 828.327 458.896 828.169C458.818 828.092 458.739 828.017 458.661 827.939C458.499 827.778 458.34 827.614 458.18 827.453C458.105 827.379 458.029 827.307 457.954 827.232C457.792 827.071 457.633 826.907 457.473 826.746C457.398 826.672 457.322 826.6 457.247 826.525C457.085 826.364 456.926 826.2 456.766 826.039C456.691 825.965 456.615 825.893 456.54 825.818C456.371 825.651 456.206 825.48 456.04 825.312C455.971 825.245 455.901 825.178 455.833 825.11C455.669 824.948 455.509 824.783 455.348 824.621C455.274 824.548 455.2 824.476 455.126 824.403C454.962 824.241 454.802 824.076 454.641 823.914C454.567 823.841 454.493 823.769 454.419 823.696C454.262 823.541 454.109 823.382 453.954 823.227C453.873 823.147 453.791 823.069 453.711 822.989C453.549 822.828 453.39 822.665 453.23 822.504C453.155 822.43 453.079 822.357 453.004 822.282C452.837 822.117 452.675 821.949 452.512 821.784C452.44 821.714 452.368 821.646 452.297 821.575C452.134 821.414 451.976 821.25 451.816 821.089C451.741 821.015 451.665 820.942 451.59 820.868C451.427 820.707 451.269 820.543 451.109 820.382C451.034 820.308 450.958 820.235 450.883 820.161C450.723 820.003 450.568 819.842 450.411 819.684C450.333 819.607 450.254 819.531 450.176 819.454C450.016 819.296 449.861 819.135 449.704 818.977C449.626 818.9 449.546 818.824 449.469 818.747C449.306 818.586 449.148 818.422 448.988 818.261C448.913 818.187 448.837 818.114 448.762 818.04C448.599 817.879 448.441 817.715 448.281 817.554C448.206 817.48 448.129 817.407 448.054 817.333C447.892 817.172 447.734 817.008 447.574 816.847C447.499 816.773 447.422 816.7 447.347 816.626C447.179 816.458 447.014 816.288 446.847 816.12C446.779 816.053 446.709 815.986 446.64 815.918C446.477 815.756 446.317 815.591 446.156 815.429C446.082 815.356 446.007 815.284 445.933 815.211C445.77 815.049 445.61 814.884 445.449 814.722C445.375 814.649 445.3 814.577 445.226 814.504C445.069 814.348 444.916 814.19 444.762 814.034C444.681 813.955 444.599 813.877 444.518 813.797C444.356 813.636 444.198 813.473 444.038 813.312C443.963 813.238 443.886 813.164 443.811 813.09C443.645 812.925 443.483 812.757 443.319 812.592C443.248 812.522 443.175 812.453 443.104 812.383C442.942 812.222 442.784 812.058 442.624 811.896C442.549 811.823 442.472 811.75 442.397 811.676C442.235 811.515 442.077 811.351 441.917 811.189C441.842 811.116 441.765 811.043 441.69 810.969C441.531 810.811 441.376 810.649 441.219 810.491C441.14 810.415 441.061 810.339 440.983 810.262C440.824 810.104 440.669 809.942 440.512 809.784C440.433 809.708 440.354 809.632 440.276 809.555C440.114 809.394 439.956 809.23 439.796 809.068C439.721 808.995 439.644 808.922 439.569 808.848C439.407 808.687 439.249 808.523 439.089 808.361C439.014 808.288 438.937 808.215 438.862 808.141C438.7 807.98 438.541 807.815 438.382 807.654C438.307 807.581 438.23 807.508 438.155 807.434C437.986 807.266 437.821 807.095 437.655 806.928C437.586 806.86 437.517 806.794 437.448 806.726C437.285 806.563 437.125 806.399 436.964 806.236C436.89 806.164 436.815 806.092 436.741 806.019C436.578 805.856 436.418 805.692 436.257 805.529C436.183 805.457 436.108 805.385 436.034 805.312C435.877 805.156 435.724 804.998 435.569 804.842C435.489 804.763 435.406 804.684 435.326 804.604C435.164 804.444 435.005 804.28 434.846 804.119C434.77 804.045 434.694 803.972 434.619 803.897C434.453 803.732 434.29 803.565 434.127 803.399C434.056 803.33 433.983 803.261 433.912 803.19C433.75 803.029 433.591 802.865 433.431 802.704C433.356 802.63 433.28 802.558 433.205 802.483C433.043 802.322 432.884 802.158 432.724 801.997C432.649 801.923 432.573 801.851 432.498 801.776C432.338 801.618 432.183 801.457 432.026 801.299C431.948 801.222 431.869 801.147 431.791 801.069C431.631 800.911 431.476 800.75 431.319 800.592C431.241 800.515 431.162 800.44 431.084 800.362C430.921 800.201 430.763 800.037 430.603 799.876C430.528 799.802 430.452 799.73 430.377 799.655C430.214 799.494 430.056 799.33 429.896 799.169C429.821 799.095 429.745 799.023 429.67 798.948C429.507 798.787 429.349 798.623 429.189 798.462C429.114 798.388 429.038 798.315 428.963 798.241C428.794 798.074 428.629 797.903 428.463 797.735C428.394 797.668 428.324 797.601 428.256 797.533C428.092 797.371 427.932 797.206 427.771 797.044C427.697 796.971 427.622 796.899 427.549 796.826C427.385 796.664 427.225 796.499 427.064 796.337C426.99 796.264 426.915 796.192 426.842 796.119C426.685 795.964 426.531 795.805 426.377 795.649C426.296 795.57 426.214 795.492 426.134 795.412C425.971 795.251 425.813 795.088 425.653 794.927C425.578 794.853 425.502 794.779 425.427 794.705C425.26 794.54 425.098 794.372 424.934 794.207C424.863 794.137 424.791 794.068 424.72 793.998C424.557 793.837 424.399 793.673 424.239 793.512C424.164 793.438 424.087 793.365 424.012 793.291C423.85 793.13 423.692 792.966 423.532 792.805C423.457 792.731 423.38 792.658 423.305 792.584C423.146 792.426 422.991 792.265 422.834 792.106C422.756 792.03 422.676 791.954 422.598 791.877C422.439 791.719 422.284 791.558 422.127 791.399C422.049 791.323 421.969 791.247 421.891 791.17C421.729 791.009 421.571 790.845 421.411 790.684C421.336 790.61 421.259 790.537 421.184 790.463C421.022 790.302 420.864 790.138 420.704 789.977C420.629 789.903 420.552 789.83 420.477 789.756C420.315 789.595 420.157 789.431 419.997 789.27C419.922 789.196 419.845 789.123 419.77 789.049C419.601 788.881 419.436 788.711 419.27 788.543C419.202 788.475 419.132 788.409 419.063 788.341C418.9 788.179 418.74 788.014 418.579 787.852C418.505 787.779 418.43 787.707 418.356 787.634C418.193 787.472 418.033 787.307 417.872 787.145C417.798 787.072 417.723 787 417.649 786.927C417.492 786.771 417.339 786.613 417.184 786.457C417.104 786.378 417.022 786.299 416.941 786.22C416.779 786.059 416.62 785.895 416.461 785.734C416.386 785.661 416.309 785.587 416.234 785.513C416.068 785.348 415.906 785.18 415.742 785.015C415.671 784.945 415.598 784.876 415.527 784.806C415.365 784.645 415.207 784.481 415.047 784.319C414.972 784.246 414.895 784.173 414.82 784.099C414.658 783.938 414.5 783.774 414.34 783.612C414.265 783.539 414.188 783.466 414.113 783.392C413.954 783.233 413.798 783.072 413.641 782.914C413.563 782.837 413.484 782.762 413.406 782.685C413.247 782.526 413.091 782.365 412.934 782.207C412.856 782.13 412.777 782.055 412.699 781.978C412.537 781.817 412.378 781.652 412.219 781.491C412.143 781.417 412.067 781.345 411.992 781.271C411.83 781.109 411.671 780.945 411.512 780.784C411.436 780.71 411.36 780.638 411.285 780.563C411.123 780.403 410.964 780.238 410.804 780.077C410.729 780.003 410.653 779.931 410.578 779.856C410.409 779.689 410.244 779.518 410.078 779.351C410.009 779.283 409.939 779.216 409.871 779.148C409.707 778.986 409.548 778.822 409.387 778.659C409.313 778.587 409.238 778.515 409.164 778.441C409 778.279 408.84 778.115 408.679 777.952C408.605 777.88 408.531 777.808 408.457 777.734C408.3 777.579 408.147 777.42 407.992 777.265C407.911 777.186 407.829 777.107 407.749 777.027C407.587 776.866 407.428 776.703 407.268 776.542C407.193 776.468 407.117 776.395 407.042 776.32C406.875 776.155 406.713 775.987 406.55 775.822C406.478 775.752 406.406 775.684 406.335 775.613C406.172 775.452 406.014 775.288 405.854 775.127C405.779 775.053 405.703 774.981 405.628 774.906C405.465 774.745 405.307 774.581 405.147 774.42C405.072 774.346 404.996 774.273 404.921 774.199C404.761 774.041 404.606 773.88 404.449 773.722C404.371 773.645 404.292 773.569 404.214 773.492C404.054 773.334 403.899 773.173 403.742 773.015C403.664 772.938 403.585 772.862 403.507 772.785C403.344 772.624 403.186 772.46 403.026 772.299C402.951 772.225 402.875 772.152 402.8 772.078C402.637 771.917 402.479 771.753 402.319 771.592C402.244 771.518 402.168 771.445 402.093 771.371C401.93 771.21 401.772 771.046 401.612 770.885C401.537 770.811 401.461 770.738 401.386 770.664C401.217 770.497 401.052 770.326 400.886 770.158C400.817 770.091 400.747 770.024 400.679 769.956C400.515 769.794 400.355 769.629 400.194 769.467C400.12 769.394 400.045 769.322 399.971 769.249C399.808 769.087 399.648 768.922 399.487 768.76C399.413 768.687 399.338 768.615 399.264 768.542C399.108 768.386 398.954 768.228 398.8 768.072C398.719 767.993 398.637 767.915 398.556 767.835C398.394 767.674 398.236 767.511 398.076 767.35C398.001 767.276 397.924 767.202 397.849 767.128C397.683 766.963 397.521 766.795 397.357 766.63C397.286 766.56 397.213 766.491 397.142 766.421C396.98 766.26 396.822 766.096 396.662 765.935C396.587 765.861 396.51 765.788 396.435 765.714C396.273 765.553 396.115 765.389 395.955 765.228C395.88 765.154 395.803 765.081 395.728 765.007C395.569 764.849 395.414 764.688 395.257 764.529C395.179 764.453 395.099 764.377 395.021 764.3C394.859 764.139 394.701 763.975 394.541 763.813C394.466 763.74 394.389 763.667 394.314 763.593C394.152 763.432 393.994 763.268 393.834 763.106C393.759 763.033 393.682 762.96 393.607 762.886C393.445 762.725 393.287 762.561 393.127 762.399C393.052 762.326 392.975 762.253 392.9 762.179C392.738 762.018 392.58 761.854 392.42 761.692C392.345 761.619 392.268 761.546 392.193 761.472C392.024 761.304 391.859 761.133 391.693 760.966C391.624 760.898 391.555 760.832 391.486 760.764C391.323 760.601 391.163 760.437 391.002 760.274C390.928 760.202 390.853 760.13 390.779 760.057C390.616 759.894 390.456 759.73 390.295 759.567C390.221 759.495 390.146 759.423 390.072 759.35C389.915 759.194 389.762 759.036 389.607 758.88C389.527 758.801 389.445 758.722 389.364 758.643C389.202 758.482 389.043 758.318 388.884 758.157C388.808 758.083 388.732 758.01 388.657 757.936C388.491 757.771 388.329 757.603 388.165 757.438C388.094 757.368 388.021 757.299 387.95 757.229C387.788 757.067 387.629 756.903 387.47 756.742C387.394 756.668 387.318 756.596 387.243 756.521C387.081 756.36 386.922 756.196 386.762 756.035C386.687 755.961 386.611 755.889 386.536 755.814C386.377 755.656 386.221 755.495 386.064 755.337C385.986 755.26 385.907 755.185 385.829 755.107C385.667 754.946 385.508 754.782 385.348 754.621C385.273 754.547 385.197 754.475 385.122 754.4C384.96 754.239 384.801 754.075 384.641 753.914C384.566 753.84 384.49 753.768 384.415 753.693C384.253 753.532 384.094 753.368 383.934 753.207C383.859 753.133 383.783 753.061 383.708 752.986C383.546 752.825 383.387 752.661 383.227 752.5C383.152 752.426 383.076 752.354 383.001 752.279C382.832 752.112 382.667 751.941 382.501 751.773C382.432 751.706 382.362 751.639 382.294 751.571C382.13 751.409 381.97 751.244 381.809 751.082C381.735 751.009 381.661 750.937 381.587 750.864C381.423 750.702 381.263 750.537 381.102 750.375C381.028 750.302 380.954 750.23 380.88 750.157C380.723 750.002 380.569 749.843 380.415 749.688C380.334 749.608 380.252 749.53 380.172 749.45C380.009 749.289 379.851 749.126 379.691 748.965C379.616 748.891 379.54 748.818 379.465 748.743C379.293 748.573 379.125 748.401 378.957 748.23C378.891 748.166 378.824 748.101 378.758 748.036C378.595 747.875 378.437 747.711 378.277 747.55C378.202 747.476 378.126 747.403 378.051 747.329C377.888 747.168 377.73 747.004 377.57 746.843C377.495 746.769 377.419 746.696 377.344 746.622C377.184 746.464 377.029 746.303 376.872 746.145C376.794 746.068 376.714 745.992 376.637 745.915C376.474 745.754 376.316 745.59 376.156 745.429C376.081 745.355 376.004 745.282 375.929 745.208C375.767 745.047 375.609 744.883 375.449 744.722C375.374 744.648 375.297 744.575 375.222 744.501C375.06 744.34 374.902 744.176 374.742 744.015C374.667 743.941 374.59 743.868 374.515 743.794C374.353 743.633 374.195 743.469 374.035 743.308C373.96 743.234 373.883 743.161 373.808 743.087C373.64 742.919 373.475 742.749 373.308 742.581C373.24 742.514 373.17 742.447 373.101 742.379C372.938 742.217 372.778 742.052 372.617 741.89C372.543 741.817 372.468 741.745 372.394 741.672C372.231 741.51 372.071 741.345 371.91 741.183C371.836 741.11 371.761 741.038 371.687 740.965C371.53 740.809 371.377 740.651 371.222 740.495C371.142 740.416 371.06 740.338 370.979 740.258C370.817 740.097 370.659 739.934 370.499 739.772C370.424 739.699 370.347 739.625 370.272 739.551C370.11 739.39 369.952 739.226 369.792 739.064C369.717 738.991 369.64 738.918 369.565 738.844C369.403 738.683 369.245 738.519 369.085 738.357C369.01 738.284 368.933 738.211 368.858 738.137C368.696 737.976 368.538 737.812 368.378 737.65C368.303 737.577 368.226 737.504 368.151 737.43C367.992 737.272 367.836 737.11 367.679 736.952C367.601 736.875 367.522 736.8 367.444 736.723C367.282 736.562 367.124 736.398 366.964 736.236C366.889 736.163 366.812 736.09 366.737 736.016C366.575 735.855 366.416 735.69 366.257 735.529C366.181 735.456 366.105 735.383 366.03 735.309C365.868 735.148 365.709 734.983 365.55 734.822C365.474 734.748 365.398 734.676 365.323 734.602C365.154 734.434 364.989 734.263 364.823 734.096C364.754 734.028 364.685 733.961 364.616 733.894C364.452 733.731 364.293 733.567 364.132 733.404C364.058 733.332 363.983 733.26 363.909 733.187C363.745 733.024 363.586 732.86 363.425 732.697C363.351 732.625 363.276 732.553 363.202 732.479C363.038 732.317 362.879 732.153 362.718 731.99C362.644 731.918 362.569 731.846 362.495 731.772C362.338 731.617 362.185 731.459 362.03 731.303C361.949 731.224 361.867 731.145 361.787 731.065C361.621 730.9 361.458 730.733 361.295 730.567C361.224 730.497 361.151 730.429 361.08 730.358C360.918 730.197 360.759 730.033 360.599 729.872C360.524 729.798 360.448 729.726 360.373 729.651C360.21 729.49 360.052 729.326 359.892 729.165C359.817 729.091 359.741 729.019 359.666 728.944C359.506 728.786 359.351 728.625 359.194 728.467C359.116 728.39 359.037 728.315 358.959 728.237C358.799 728.079 358.644 727.918 358.487 727.76C358.409 727.683 358.33 727.607 358.252 727.53C358.089 727.369 357.931 727.205 357.771 727.044C357.696 726.97 357.62 726.898 357.545 726.823C357.382 726.662 357.224 726.498 357.064 726.337C356.989 726.263 356.913 726.19 356.838 726.116C356.675 725.955 356.517 725.791 356.357 725.63C356.282 725.556 356.206 725.483 356.131 725.409C355.962 725.242 355.797 725.071 355.631 724.903C355.562 724.836 355.492 724.769 355.424 724.701C355.26 724.539 355.1 724.374 354.939 724.212C354.865 724.139 354.79 724.067 354.717 723.994C354.553 723.832 354.393 723.667 354.232 723.505C354.158 723.432 354.083 723.36 354.01 723.287C353.846 723.125 353.686 722.96 353.525 722.798C353.451 722.725 353.376 722.653 353.303 722.58C353.146 722.424 352.992 722.266 352.838 722.11C352.757 722.031 352.675 721.953 352.595 721.873C352.428 721.708 352.266 721.54 352.102 721.375C352.031 721.305 351.958 721.236 351.887 721.166C351.725 721.005 351.567 720.841 351.407 720.68C351.332 720.606 351.255 720.533 351.18 720.459C351.018 720.298 350.86 720.134 350.7 719.973C350.625 719.899 350.548 719.826 350.473 719.752C350.311 719.591 350.153 719.427 349.993 719.266C349.918 719.192 349.841 719.119 349.766 719.045C349.607 718.887 349.452 718.726 349.295 718.567C349.217 718.491 349.137 718.415 349.059 718.338C348.897 718.177 348.739 718.013 348.579 717.852C348.504 717.778 348.427 717.705 348.352 717.631C348.19 717.47 348.032 717.306 347.872 717.145C347.797 717.071 347.72 716.998 347.645 716.924C347.483 716.763 347.325 716.599 347.165 716.438C347.09 716.364 347.013 716.291 346.938 716.217C346.769 716.049 346.604 715.879 346.438 715.711C346.37 715.643 346.3 715.577 346.231 715.509C346.068 715.347 345.908 715.182 345.747 715.02C345.673 714.947 345.598 714.875 345.524 714.802C345.361 714.64 345.201 714.475 345.04 714.312C344.966 714.24 344.891 714.168 344.817 714.095C344.654 713.933 344.494 713.768 344.333 713.605C344.259 713.533 344.184 713.461 344.11 713.388C343.953 713.232 343.8 713.074 343.645 712.918C343.565 712.839 343.483 712.76 343.402 712.681C343.236 712.516 343.074 712.348 342.91 712.183C342.839 712.113 342.766 712.044 342.695 711.974C342.533 711.813 342.375 711.649 342.215 711.487C342.14 711.414 342.063 711.341 341.988 711.267C341.826 711.106 341.667 710.942 341.508 710.78C341.432 710.707 341.356 710.634 341.281 710.56C317.127 686.595 320.311 660.982 320.531 630.312C320.531 629.109 320.559 626.758 320.599 623.676C320.546 623.622 320.493 623.568 320.44 623.514C320.199 623.281 319.963 623.046 319.733 622.807C319.492 622.574 319.256 622.339 319.026 622.1C318.78 621.862 318.538 621.623 318.304 621.378C318.063 621.145 317.826 620.911 317.597 620.671C317.357 620.438 317.12 620.204 316.89 619.964C316.65 619.731 316.413 619.497 316.183 619.257C315.947 619.029 315.715 618.799 315.49 618.564C315.249 618.332 315.012 618.097 314.783 617.857C314.538 617.621 314.297 617.382 314.064 617.139C313.829 616.912 313.599 616.683 313.375 616.449C313.134 616.217 312.897 615.982 312.668 615.742C312.424 615.508 312.186 615.27 311.955 615.028C311.714 614.796 311.477 614.561 311.248 614.321C311.007 614.089 310.77 613.854 310.541 613.614C310.3 613.382 310.063 613.147 309.834 612.907C309.588 612.67 309.345 612.431 309.111 612.186C308.87 611.953 308.634 611.718 308.405 611.479C308.164 611.246 307.927 611.011 307.698 610.772C307.457 610.539 307.22 610.304 306.991 610.064C306.755 609.836 306.522 609.607 306.298 609.372C306.057 609.139 305.82 608.905 305.591 608.665C305.346 608.429 305.105 608.19 304.872 607.946C304.637 607.719 304.406 607.491 304.182 607.257C303.941 607.024 303.705 606.789 303.475 606.55C303.232 606.315 302.994 606.078 302.762 605.836C302.521 605.603 302.285 605.369 302.055 605.129C301.814 604.896 301.578 604.662 301.348 604.422C301.107 604.189 300.871 603.955 300.641 603.715C300.395 603.477 300.153 603.238 299.919 602.993C299.678 602.76 299.442 602.526 299.213 602.286C298.972 602.053 298.735 601.819 298.506 601.579C298.266 601.347 298.029 601.114 297.801 600.875C297.564 600.646 297.331 600.415 297.105 600.18C296.864 599.947 296.628 599.712 296.398 599.473C296.153 599.236 295.912 598.998 295.679 598.754C295.445 598.527 295.214 598.298 294.99 598.064C294.749 597.832 294.512 597.597 294.283 597.357C294.04 597.123 293.801 596.885 293.57 596.644C293.329 596.411 293.092 596.176 292.863 595.937C292.622 595.704 292.385 595.469 292.156 595.23C291.915 594.997 291.678 594.762 291.449 594.522C291.203 594.285 290.961 594.046 290.727 593.801C290.486 593.568 290.249 593.334 290.02 593.094C289.779 592.861 289.542 592.627 289.313 592.387C289.073 592.155 288.837 591.922 288.608 591.683C288.371 591.454 288.138 591.223 287.913 590.987C287.672 590.755 287.435 590.52 287.206 590.28C286.961 590.044 286.72 589.805 286.487 589.562C286.252 589.335 286.021 589.106 285.798 588.872C285.556 588.64 285.32 588.405 285.091 588.165C284.847 587.93 284.609 587.693 284.378 587.451C284.137 587.219 283.9 586.984 283.671 586.744C283.43 586.512 283.193 586.277 282.964 586.037C282.717 585.799 282.475 585.56 282.241 585.315C282 585.083 281.764 584.848 281.535 584.608C281.294 584.376 281.057 584.141 280.828 583.901C280.587 583.669 280.35 583.434 280.121 583.194C279.881 582.962 279.644 582.729 279.416 582.49C279.179 582.261 278.946 582.031 278.72 581.795C278.479 581.562 278.243 581.328 278.013 581.088C277.768 580.851 277.528 580.613 277.295 580.369C277.06 580.142 276.829 579.913 276.605 579.68C276.364 579.447 276.128 579.212 275.898 578.973C275.655 578.738 275.417 578.501 275.185 578.259C274.944 578.026 274.708 577.791 274.478 577.552C274.237 577.319 274.001 577.084 273.771 576.845C273.525 576.607 273.283 576.368 273.049 576.123C272.808 575.89 272.572 575.656 272.343 575.416C272.102 575.183 271.865 574.949 271.636 574.709C271.395 574.476 271.158 574.242 270.929 574.002C270.688 573.77 270.452 573.537 270.223 573.298C269.987 573.069 269.754 572.838 269.528 572.603C269.287 572.37 269.05 572.135 268.821 571.896C268.576 571.659 268.335 571.421 268.102 571.177C267.867 570.95 267.637 570.721 267.413 570.487C267.172 570.255 266.935 570.02 266.706 569.78C266.463 569.546 266.224 569.308 265.993 569.066C265.752 568.834 265.515 568.599 265.286 568.359C265.045 568.127 264.808 567.892 264.579 567.652C264.333 567.415 264.09 567.176 263.856 566.931C263.616 566.698 263.379 566.463 263.15 566.224C262.909 565.991 262.672 565.757 262.443 565.517C254.232 557.58 252.858 545.513 257.072 532.694C270.357 492.46 300.549 447.389 307.137 405.836C312.077 374.396 311.748 352.191 323.715 321.301Z" fill="#376967"/>
<g clip-path="url(#clip2_1_3040)">
<ellipse cx="539.952" cy="385.012" rx="189.387" ry="189.628" fill="#376967"/>
<path d="M719.349 709.742C732.194 571.012 817.83 410.955 735.817 279.92C634.152 117.445 392.285 142.069 323.008 320.594C311.041 351.484 311.37 373.689 306.43 405.129C299.842 446.682 269.65 491.753 256.365 531.987C250.547 549.686 255.377 565.955 274.151 571.891C287.655 576.179 302.148 571.232 315.981 572.881C317.189 572.991 318.506 572.881 319.275 573.98C320.812 576.289 319.824 622.569 319.824 629.604C319.604 660.274 316.42 685.888 340.574 709.852C371.535 740.523 414.792 726.781 453.218 730.079C470.016 731.508 483.63 747.228 485.606 763.608V853.2L729.34 852.101C723.85 804.831 715.067 757.562 719.459 709.742H719.349ZM386.905 493.072C306.978 376.328 380.977 210.555 522.606 199.452C658.635 188.789 758.544 316.526 715.726 446.682C668.187 591.019 472.981 618.611 386.905 492.962V493.072Z" fill="#B3D7B8"/>
<path d="M530.51 423.377C532.596 422.058 533.914 423.597 534.573 427.994L545.661 427.774L546.979 430.083C563.777 431.842 582.77 442.615 593.091 455.916C603.411 469.218 598.8 467.129 600.776 468.008C603.63 469.328 614.939 467.899 619.77 468.778C635.689 471.856 650.95 487.906 654.134 503.626C655.89 512.42 653.255 509.891 649.193 513.519L643.923 515.718H434.774L429.504 513.519C425.002 509.122 424.124 510.111 425.661 502.416C429.833 480.211 456.842 463.172 478.799 469.328C488.022 448.881 508.333 434.48 530.401 430.852C530.73 428.324 530.401 425.796 530.401 423.267L530.51 423.377Z" fill="#BFA689"/>
<path d="M559.056 371.711L558.507 368.413C571.572 349.725 588.589 333.675 606.595 319.384C586.393 326.97 567.07 341.48 554.225 359.728L550.163 361.817C540.501 320.704 578.489 286.626 616.695 282.778C654.902 278.93 656.769 282.009 659.404 285.856C662.039 289.704 658.964 301.466 658.635 303.884C652.377 353.352 608.132 387.76 558.836 371.601L559.056 371.711Z" fill="#B5D8B8"/>
<path d="M649.083 513.519C589.358 567.714 488.351 571.562 429.504 513.519H649.083Z" fill="#AC8369"/>
<path d="M530.51 387.101L526.668 386.111C514.481 372.81 499.879 361.817 483.411 354.672C498.232 364.675 512.285 376.218 521.727 391.608V395.895C474.408 414.803 430.602 370.062 433.237 323.232C435.103 320.484 463.539 320.813 468.26 321.253C502.953 324.441 533.365 350.164 530.401 387.101H530.51Z" fill="#B3D8B7"/>
<path d="M550.273 361.817C566.082 336.753 592.761 320.374 620.538 311.25C602.972 324.881 586.174 338.072 571.682 355.221C557.189 372.37 562.349 366.104 559.056 371.711C548.626 389.519 545.661 409.526 546.979 429.973C544.344 429.643 532.157 430.523 531.608 429.973C531.059 429.423 532.706 424.257 530.51 423.377C530.51 412.165 527.107 405.239 521.727 395.895C508.772 373.25 489.888 361.817 469.028 347.526C480.227 350.055 491.096 355.331 500.757 361.377C511.517 368.083 522.276 377.537 530.51 387.101C538.745 396.665 533.694 395.785 536 393.696C538.415 382.813 544.344 371.271 550.273 361.817Z" fill="#8DBA8D"/>
<path d="M549.065 247.161C565.424 278.051 534.902 323.562 499.33 312.679C490.327 308.611 482.093 300.037 478.25 290.803C459.476 245.072 517.665 206.927 549.065 247.051V247.161Z" fill="#F5D97B"/>
<path d="M499.33 312.679H514.371C543.356 306.962 558.397 274.423 548.955 247.161C575.854 281.789 540.392 331.367 499.22 312.679H499.33Z" fill="#DCB657"/>
<path d="M520.52 240.675C518.982 251.448 523.045 247.491 528.534 250.679C534.024 253.867 529.083 256.285 528.754 260.133C525.57 257.714 514.92 253.757 512.615 258.264C508.772 266.069 520.959 268.377 525.35 271.345C533.475 276.952 535.341 288.714 526.009 293.881C516.677 299.048 518.763 293.991 519.531 305.423H514.042C516.567 293.991 507.455 297.728 501.745 293.331C496.036 288.934 502.624 285.306 503.502 285.196C505.588 284.977 516.787 293.331 521.398 286.406C526.009 279.48 508.552 275.083 504.38 270.356C500.208 265.629 500.648 257.055 505.369 252.767C507.345 250.899 513.713 249.36 514.042 248.92C514.81 247.711 513.822 242.654 514.152 240.785H520.629L520.52 240.675Z" fill="#BDA04D"/>
</g>
</g>
<defs>
<clipPath id="clip0_1_3040">
<rect width="1024" height="1024" fill="white"/>
</clipPath>
<clipPath id="clip1_1_3040">
<rect width="1024" height="1024" fill="white"/>
</clipPath>
<clipPath id="clip2_1_3040">
<rect width="517" height="682" fill="white" transform="translate(253.95 171.2)"/>
</clipPath>
</defs>
</svg>
