<svg width="690" height="690" viewBox="0 0 690 690" fill="none" xmlns="http://www.w3.org/2000/svg">
<g clip-path="url(#clip0_2279_479)">
<ellipse cx="372.953" cy="218.012" rx="189.387" ry="189.628" fill="#376967"/>
<path d="M552.349 542.743C565.195 404.012 650.831 243.956 568.818 112.92C467.152 -49.5551 225.285 -24.9309 156.008 153.594C144.041 184.484 144.37 206.69 139.43 238.129C132.842 279.683 102.65 324.753 89.3657 364.987C83.5469 382.686 88.3776 398.956 107.152 404.892C120.656 409.179 135.148 404.232 148.982 405.881C150.189 405.991 151.507 405.881 152.275 406.98C153.812 409.289 152.824 455.569 152.824 462.604C152.605 493.275 149.421 518.888 173.574 542.853C204.535 573.523 247.792 559.782 286.219 563.08C303.017 564.509 316.631 580.229 318.607 596.608V686.2L562.34 685.101C556.851 637.831 548.067 590.562 552.459 542.743H552.349ZM219.906 326.073C139.979 209.328 213.977 43.5549 355.606 32.452C491.635 21.7889 591.544 149.527 548.726 279.683C501.187 424.019 305.981 451.612 219.906 325.963V326.073Z" fill="#B3D7B8"/>
<path d="M363.511 256.378C365.597 255.058 366.914 256.597 367.573 260.995L378.662 260.775L379.979 263.083C396.777 264.842 415.771 275.615 426.091 288.917C436.411 302.218 431.8 300.129 433.776 301.009C436.631 302.328 447.939 300.899 452.77 301.778C468.689 304.856 483.95 320.906 487.134 336.626C488.891 345.42 486.256 342.892 482.194 346.519L476.924 348.718H267.774L262.504 346.519C258.003 342.122 257.125 343.112 258.662 335.417C262.834 313.211 289.842 296.172 311.8 302.328C321.022 281.881 341.333 267.48 363.401 263.853C363.73 261.324 363.401 258.796 363.401 256.268L363.511 256.378Z" fill="#BFA689"/>
<path d="M392.056 204.711L391.507 201.413C404.572 182.725 421.589 166.676 439.595 152.385C419.394 159.97 400.071 174.481 387.225 192.729L383.163 194.817C373.501 153.704 411.489 119.626 449.696 115.778C487.902 111.931 489.769 115.009 492.404 118.856C495.039 122.704 491.965 134.466 491.635 136.885C485.377 186.353 441.132 220.761 391.836 204.601L392.056 204.711Z" fill="#B5D8B8"/>
<path d="M482.083 346.52C422.358 400.715 321.351 404.562 262.504 346.52H482.083Z" fill="#AC8369"/>
<path d="M363.51 220.101L359.668 219.112C347.481 205.81 332.879 194.817 316.411 187.672C331.232 197.675 345.285 209.218 354.727 224.608V228.895C307.408 247.803 263.602 203.062 266.237 156.232C268.103 153.484 296.539 153.814 301.26 154.254C335.953 157.441 366.365 183.165 363.401 220.101H363.51Z" fill="#B3D8B7"/>
<path d="M383.273 194.817C399.082 169.754 425.761 153.374 453.538 144.25C435.972 157.881 419.174 171.073 404.682 188.222C390.19 205.371 395.35 199.105 392.056 204.711C381.626 222.519 378.662 242.527 379.979 262.973C377.344 262.644 365.157 263.523 364.608 262.973C364.06 262.424 365.706 257.257 363.511 256.378C363.511 245.165 360.107 238.239 354.727 228.895C341.772 206.25 322.888 194.817 302.028 180.527C313.227 183.055 324.096 188.332 333.758 194.378C344.517 201.083 355.276 210.537 363.511 220.101C371.745 229.665 366.694 228.785 369 226.697C371.415 215.814 377.344 204.271 383.273 194.817Z" fill="#8DBA8D"/>
<path d="M382.065 80.161C398.424 111.051 367.902 156.562 332.33 145.679C323.327 141.611 315.093 133.037 311.251 123.803C292.477 78.0723 350.665 39.9269 382.065 80.051V80.161Z" fill="#F5D97B"/>
<path d="M332.33 145.679H347.371C376.356 139.963 391.397 107.424 381.955 80.1611C408.853 114.789 373.391 164.367 332.22 145.679H332.33Z" fill="#DCB657"/>
<path d="M353.519 73.6753C351.982 84.4483 356.045 80.4909 361.534 83.6788C367.024 86.8668 362.083 89.2852 361.754 93.1327C358.57 90.7143 347.92 86.7568 345.615 91.2639C341.772 99.0689 353.959 101.377 358.35 104.346C366.475 109.952 368.341 121.714 359.009 126.881C349.677 132.048 351.763 126.991 352.531 138.424H347.042C349.567 126.991 340.455 130.728 334.745 126.331C329.036 121.934 335.624 118.306 336.502 118.197C338.588 117.977 349.787 126.331 354.398 119.406C359.009 112.48 341.552 108.083 337.38 103.356C333.208 98.6292 333.648 90.0547 338.369 85.7675C340.345 83.8987 346.713 82.3597 347.042 81.92C347.81 80.7107 346.822 75.654 347.152 73.7852H353.629L353.519 73.6753Z" fill="#BDA04D"/>
</g>
<defs>
<clipPath id="clip0_2279_479">
<rect width="517" height="682" fill="white" transform="translate(86.9502 4.2002)"/>
</clipPath>
</defs>
</svg>
